<svg width="1712" height="983" fill="none" xmlns="http://www.w3.org/2000/svg"><path fill-rule="evenodd" clip-rule="evenodd" d="M-.58 568.595c.018-12.226.031-145.145.029-295.376L-.555.072H1183.96l-.48.944c-1.84 3.68-1.11 5.707 2.85 7.84 2.9 1.562 3.01 2.242.58 3.487-7.77 3.98-4.4 11.942 5.44 12.863 4.51.422 4.9.792 3.72 3.5-.52 1.192-.95 2.845-.95 3.674 0 1.82-1.84 3.113-5.72 4.034-7.02 1.664-10.42 8.154-7.3 13.894 1.1 2.004 1.08 2.214-.35 4.663-2.1 3.588-1.95 4.773.83 6.65 1.28.866 2.71 2.093 3.17 2.727 3.26 4.465 10.76-3.309 12.82-13.267.8-3.859 1.59-4.48 6.25-4.914 1.87-.173 4.67-.44 6.23-.592 3.73-.365 6.34.282 7.52 1.863 1.34 1.793 2.92 1.628 7.21-.752 3.5-1.945 6.86-3.304 6.86-2.778 0 1.294-3.46 3.604-7.2 4.806-1.41.454-2.28 1.026-2.15 1.428.11.37-.13 1.403-.54 2.296-.4.894-.53 2.215-.29 2.935l.44 1.31 2.21-1.072c1.22-.589 6.2-3.372 11.07-6.183 11.61-6.709 12.03-6.919 12.03-5.972 0 .404-1.26 1.518-2.81 2.477-7.66 4.74-10.83 7.089-13.67 10.13-5.03 5.396-11.31 7.523-17.2 5.831-6.55-1.878-11.18-1.088-17.11 2.921-2.81 1.896-2.96 3.314-.47 4.337 5.36 2.199 6.14 2.829 6.74 5.452 1.06 4.604 3.17 7.25 5.81 7.287 8.69.125 12.78 3.529 8.28 6.882-2.54 1.891-2.29 3.196.92 4.793 4.84 2.416 7.73 5.909 4.88 5.909-1.03 0-3.1-1.351-7.02-4.583-.12-.099-1.11.326-2.2.943-2.78 1.578-3.67 1.435-3.67-.585 0-2.15-1.6-2.129-3.73.05-1.83 1.878-1.29 3.752 1.09 3.762 2.32.01 3.19.476 3.46 1.84.38 1.884 3.27 2.948 6.56 2.41 2.25-.367 2.82-.312 3.99.383 2.12 1.255 9.59-.178 7.76-1.487-3.09-2.2 2.4-6.663 6.92-5.633 3.95.9 4.14 6.673.24 7.361-.63.112-3.16.761-5.61 1.441l-4.45 1.237 2.62 1.861c4.69 3.324 8.42 3.638 13.89 1.171 5.88-2.653 7.26-2.99 5.91-1.442-1.22 1.404-4.85 3.336-7.29 3.886-1.65.371-3.63 2.272-2.86 2.732.23.135 5.14-.748 10.91-1.961 9.39-1.973 11.17-2.214 16.87-2.286 8.09-.103 16.51-2.171 15.46-3.796-.22-.333-.09-.838.28-1.123.37-.285 1.09-1.463 1.6-2.616.5-1.154 1.38-2.321 1.95-2.593 1.86-.898.29-1.429-3.38-1.14-5.88.46-7.89-1.123-2.12-1.669 3.34-.317 6.16-2.142 6.74-4.362.88-3.355 1.56-3.674 7.47-3.52 2.9.077 6.15-.06 7.21-.302 1.44-.325 2.13-.307 2.68.072.41.282 1.68 1.154 2.82 1.94 3.56 2.435 4.65 4.728 3.63 7.645-1.46 4.196 1.19 4.57 7.08.999 4.41-2.67 6.4-2.938 8.03-1.076 1.66 1.902 1.4 3.326-.7 3.798l-1.77.4 2.48 1.928c2.63 2.038 3.05 2.732 3.36 5.429.3 2.676 3.93 2.679 8.07.007 4.06-2.62 8.81-2.721 9.49-.202.63 2.317 1.2 2.627 4.31 2.333 2.66-.253 3.81.254 1.68.74-1.36.308-1.39 1.107-.04 1.107 1.79 0 1.79.654.01 2.638-.96 1.066-1.74 2.139-1.74 2.386 0 1.375 8.32 1.347 17.81-.06 3.07-.455 3.45-.419 5.44.524 1.18.557 2.96 1.352 3.96 1.767 2.19.908 2.34 1.553.36 1.553-2.4 0-6 4.978-4.96 6.847.43.777.59 1.726.34 2.109-1.07 1.643 4.74 4.064 7.98 3.328 2.22-.505-.4 1.445-4.1 3.054-3.04 1.324-3.85 1.502-4.94 1.095-.72-.266-3.14-.612-5.38-.768-8.53-.594-11.31-5.958-4.15-8.02 4.14-1.19 4.04-1.747-.51-3.032-2.97-.839-4.02-1.425-5.28-2.936-2.07-2.507-2.77-2.936-4.79-2.936-2.4 0-3.05.867-1.19 1.595 1.88.742 1.9 1.259.07 2.556l-1.41 1.006-1.62-.901c-2.77-1.544-7.54-.923-7.54.982 0 2.379 3.69 4.28 5.31 2.731.87-.834 2.48-.39 3.42.944.53.75 1.49 1.622 2.13 1.939 1.74.856 1.42 1.68-.77 1.991-3.16.446-4.09 1.06-2.59 1.71 1.18.512 1.14.617-.65 1.728-1.06.651-1.68 1.322-1.4 1.492 1.15.677-1.53 1.023-3.42.443-1.55-.473-2.37-.496-3.94-.112l-1.99.485 2.13.302c1.17.167 3.34.326 4.82.353 2.63.048 5.4.659 6.18 1.362.64.575 11.34 1.729 13.82 1.49 1.42-.135 2.82.005 3.61.362.72.321 1.78.593 2.36.605.59.011 2.5.597 4.25 1.301 3.68 1.479 5.77 1.426 10.06-.257 3.67-1.439 4.91-4.369 1.29-3.06-1.33.482-1.66.449-2.54-.261-1.69-1.347-1.21-1.546 3.05-1.263 3.72.248 4.47.147 8.73-1.171 3.5-1.081 5.9-1.503 9.59-1.686 2.7-.135 6.66-.636 8.78-1.115 2.13-.479 4.75-.871 5.84-.871 1.08 0 4.36-.674 7.29-1.498 7.2-2.025 9.67-2.239 11.17-.971 1.73 1.461 1.43 1.928-1.48 2.336-2.16.303-2.64.558-2.66 1.405-.01.987-.24 1.041-4.88 1.16-4.46.115-5.3.293-10.01 2.136-2.83 1.105-6.7 2.247-8.59 2.537-1.88.291-4.59.783-6.02 1.096-1.47.323-3.68.462-5.13.322-2.96-.284-3.4.351-.92 1.316 3.03 1.175 16.87 3.065 19.47 2.657 2.26-.355 16.74.892 18.71 1.612.44.162 2.73.403 5.09.537 7.13.406 5.38 2.939-3.67 5.31-4.78 1.251-4.8 1.251-16.09-.044l-9.21-1.056-5.75 1.683c-5.99 1.751-7.29 2.703-5.84 4.303 1.21 1.345-.37 2.064-2.9 1.315-1.79-.53-2.37-.527-4.57.019-3.07.758-3.43 2.12-.76 2.841 1.77.478 2.4 1.182 1.06 1.182-.39 0-.7.283-.7.629 0 .346.44.63.99.63 1.69 0 13.88 2.473 15.5 3.143.83.347 2.53.631 3.76.631 3.03 0 3.58 1.014 1.29 2.374-1.34.79-2.3 1.014-3.71.856-4.84-.543-9.68-1.593-12.79-2.776-4.2-1.598-7.28-1.682-9.68-.263-4.23 2.51.32 5.424 9.11 5.826 9.7.443 16.39 5.839 9.4 7.57-2.42.599-3.77 1.935-2.85 2.817.8.77 12.92.056 15.61-.921 3.18-1.157 6.09-1.087 5.8.141-.18.757.16.969 1.72 1.076 1.26.086 1.95-.064 1.95-.423 0-.306 2.4-1.255 5.33-2.11 5.95-1.736 6.56-1.711 12.04.48 3.3 1.318 5.17 1.295 11.65-.143 3.72-.824 11.33-1.263 11.33-.654 0 .226-.73.411-1.63.411-.9 0-3.79.64-6.41 1.423-2.63.784-6.16 1.547-7.85 1.697-1.7.151-5.26.925-7.93 1.721s-5.33 1.452-5.91 1.458c-1.9.019-4.7 1.565-3.8 2.099.95.566 5.42 1.224 8.42 1.238 2.67.013 5.37 1.078 4.83 1.907-.22.338-.63.53-.92.425-.28-.104-1.86-.369-3.51-.589l-3.01-.399 2.99 1.512c3.49 1.77 6.69 5.408 5.5 6.256-.9.643-15.46.789-15.46.155 0-.723-4.56.348-6.19 1.454-2 1.353-2.01 2.184-.06 3.418l1.54.97h-2.63c-8.01 0-13.97 2.175-15.37 5.605-.96 2.368-.44 2.771 3.6 2.771 3.83 0 4.5-.445 4.08-2.691l-.38-1.951 4.74.277c4.59.267 4.78.239 5.98-.843 1.82-1.647 5.32-1.378 6.93.531.64.766 1.68 1.724 2.3 2.13 2.53 1.66-.52 2.899-8.46 3.426-7.87.524-11.65 2.162-11.65 5.056 0 1.31 2.25 3.305 3.74 3.305.36 0 1.6.472 2.76 1.048 2.84 1.416 4.36 1.33 5.58-.314.98-1.314 1.24-1.383 7.25-1.919l6.24-.555 2.96 1.88c2.53 1.598 3.5 1.921 6.51 2.148 1.95.148 5.31.543 7.48.878 2.17.334 5.4.609 7.18.609 7.69 0 10.27 3.684 3.22 4.587-5.84.747-8.91 2.906-5.14 3.604 1.98.367 2.81.49 2.86.764.04.21-.36.507-1.04 1.069-2.86 2.385-1.29 4.992 2.72 4.516 3.08-.365 6.1.464 10.06 2.762 4.48 2.6 9.28 3.282 13.35 1.895l2.74-.935 3.37 1.694c3.93 1.97 4.27 2.366 2.79 3.243-.61.356-1.1.915-1.1 1.242 0 .327-.67.953-1.49 1.393-.83.439-1.78 1.223-2.11 1.742-.54.83-1.11.944-4.72.944-4.83 0-9.76 1.3-11.15 2.936-3.59 4.24-3.86 4.846-3.43 7.638.54 3.392-.36 3.832-7.88 3.871-4.71.024-4.99.082-5.9 1.205-1.17 1.447-2.25 1.718-5.43 1.365-2.96-.329-3.78-4.311-.98-4.745 2.22-.343 1.49-1.875-1.91-4.025-5.23-3.301-12.04-1.307-15.13 4.429-.22.396-.34.692-.55.924-.66.764-2.13.833-10.03 1.503-4.48.38-5.41.348-6.47-.22-1.68-.902-10.38-1.755-11.45-1.123-1.29.765.6 1.687 4.1 1.998 3.43.305 4.29.698 2.94 1.35-.61.291-2.54.171-6.19-.384-7.44-1.131-8.14-1.018-8.14 1.313 0 1.555-.28 1.961-1.59 2.302-2.21.574-2.07.704 2.13 1.897 2.8.794 3.77 1.31 3.95 2.097.13.574.73 1.371 1.34 1.77.89.591.92.845.2 1.363-2.1 1.497-6.59.238-4.9-1.371.99-.94.43-2.186-.99-2.186-1.01 0-2.82 2.822-2.19 3.425.65.625-1.93.372-6.8-.671-2.63-.562-7.22-1.319-10.2-1.684-4.88-.598-5.72-.852-8.52-2.584-3.3-2.04-4.29-2.129-8.04-.725-2.34.874-2.65 1.728-1.02 2.785.78.507 1.97 1.583 2.65 2.39.68.807 1.79 1.845 2.47 2.307 1.19.809 1.15.886-1.09 2.18-2.03 1.17-2.44 1.261-3.22.707-1.37-.979-4.59-1.839-6.89-1.839-3.01 0-4.66 2.272-2.39 3.3.93.421 1.69 1.389 1.99 2.508.39 1.468 1.01 2.048 3.17 2.975 1.47.633 3.53 1.753 4.58 2.49 3.83 2.699 7.03 3.124 11.06 1.471 2.92-1.202 7.66-1.166 7.66.058 0 1.498 3.45 2.063 5.08.833 1.49-1.12 1.55-1.128 2.65-.336.62.445 3.27 1.804 5.9 3.019 2.94 1.357 4.78 2.518 4.78 3.012 0 .962-.91 1.037-2.12.173-1.84-1.314-4.66-.784-5.58 1.051-.47.927-1.63 1.982-2.59 2.355-1.21.468-1.75 1.06-1.75 1.931 0 1.091-.2 1.225-1.59 1.025-4.03-.583-14.92-1.53-20.63-1.793-8.65-.399-9.26-.777-8.61-5.353.76-5.325.7-5.855-.68-6.331-.7-.239-2.25-.919-3.46-1.512-2.43-1.198-8.7-3.326-9.8-3.326-.38 0 .13.648 1.15 1.44 2.54 1.97 2.4 2.433-.61 2.098-1.93-.214-2.57-.122-2.92.416-.44.684 1.46 2.337 2.69 2.337 2.25 0 4.15 1.375 2.72 1.968-1.03.428-1.44 1.064-1.44 2.25 0 1.295-.27 1.654-1.24 1.657-.68.001-2.46.203-3.95.448l-2.71.447.47 2.031c.27 1.168.16 2.374-.26 2.838-1.04 1.149-.2 2.59 1.66 2.867 2.7.401 7.13-.542 8.03-1.711.44-.578 1.37-1.049 2.06-1.045 5.38.024 6.25 2.207 1.6 4.028-3.2 1.257-5.27 3.039-6.02 5.193-.81 2.324-1.38 2.517-7.51 2.517-3.57 0-5.14 0-5.39.572-.19.453.45 1.265 1.59 2.72 4.65 5.925-2.67 9.596-9.12 4.572-3.76-2.927-3.36-5.467.98-6.237 3.42-.609 3.43-.696.43-3.199-1.32-1.096-3.11-2.843-3.98-3.881-2.44-2.902-2.57-2.957-5.31-2.278-2.68.663-2.8.606-3.47-1.59-.42-1.372-.81-1.614-3.2-1.995-3.11-.496-3.9-.968-4.61-2.735-.8-2.028-2.41-3.146-5.72-3.989-1.72-.434-3.52-1.177-4.02-1.651-.59-.552-1.66-.861-3-.861h-2.08l1.9 1.177c3.3 2.043.73 4.701-4.55 4.692-5.05-.008-5.84-4.445-1.04-5.812 2.22-.633 2.14-.697-2.72-2.215-3.98-1.246-7.61-.578-9.64 1.772-1.4 1.631-2.68 2.169-6.34 2.665-.97.132-2.82.81-4.1 1.506l-2.33 1.266.75 2.452c.84 2.752.45 3.821-1.39 3.821-.69 0-1.65.284-2.13.63-.49.346-1.5.629-2.26.629-2.24 0-3.92.737-4.7 2.059-.57.983-1.2 1.266-3.05 1.372-1.81.104-2.42.367-2.74 1.178-1.12 2.851-11.32 4.027-11.32 1.306 0-1.402-11.73-2.325-13.49-1.063-.51.364-1.53.565-2.28.448-2.03-.314-3.27.11-4.52 1.541-2.59 2.969 7.01 3.773 9.91.83.52-.523.75-.523 1.77.006.64.334 2.41.866 3.92 1.182 3.69.773 4.08 3.601.77 5.562-2.21 1.31.87 3.367 4.41 2.946 2.96-.35 4.68.3 6.25 2.366l1.33 1.748 3.22-.322c1.77-.177 6.88-.359 11.36-.406l8.14-.084 4.02 2.248c2.21 1.236 4.53 2.248 5.17 2.248.63 0 2.03.271 3.11.602l1.97.602 1.23-2.03c1.66-2.736 3.02-3.352 8.39-3.803 5.66-.475 6.76-.718 7.64-1.695 4.05-4.48 21.2-1.091 19.53 3.859-.22.664-.13 1.631.2 2.15.57.899.46.937-2.4.801-2.8-.133-3.18-.021-5.41 1.63-6.8 5.04-14.05 8.524-16.14 7.76-.33-.121-.99.061-1.48.404-.48.344-1.44.625-2.13.625-2.04 0-7.07 3.835-7.06 5.375 0 .158 1.39.624 3.08 1.036 3.76.916 7.42 2.968 7.94 4.445.21.603.88 1.7 1.49 2.437.62.737.96 1.822.77 2.412-.26.817-.05 1.072.89 1.072.8 0 1.37.441 1.65 1.266.24.697 1.91 2.204 3.72 3.348 3.66 2.322 4.86 4.986 3.11 6.925-2.72 3.002-16.92 2.322-20.2-.968-1.49-1.496-3.94-1.245-7.96.819-1.46.745-3.13 1.192-4.48 1.192-1.81 0-2.07.129-1.7.823.81 1.506-.84 2.402-6.52 3.561-3.03.616-6.69 1.487-8.13 1.934-2.61.812-5.83 1.037-7.94.558-1.54-.351-1.42-2.31.35-5.618 1.17-2.185 1.49-4.003 1.61-9.166.16-6.577-.02-7.087-2.72-7.965-1.39-.448-1.38-.459.13-.472 2.2-.018 2.48-.517 1.54-2.814-3.1-7.63-6-8.843-15.9-6.635-2.59.577-5.89 1.048-7.34 1.048-1.46 0-4.14.47-5.98 1.049-1.83.577-4.09 1.048-5.03 1.048-3.13 0-9.85 3.361-8.14 4.072 1.74.719 1.87 2.592.31 4.377-.48.546-.85.895-.78 1.135.12.479 1.94.526 8.04.836 6.44.328 8.28.577 10.08 1.365 3.62 1.588 4.93.455 3.34-2.901-1.42-2.981-.81-4.368 2.37-5.441 1.17-.394 2.13-.939 2.13-1.211.01-1.18 2.27-1.871 5.23-1.597 3.62.334 5.62 1.584 5.04 3.142-.28.744-.05 1.304.68 1.66 1.58.778 1.34 2.118-.6 3.348-2.62 1.664-2.78 2.589-.8 4.796 2.68 2.978 2.39 3.997-1.75 6.382-2.25 1.292-3.7 2.519-3.97 3.369-.23.735-1.5 2.038-2.83 2.896-2.69 1.739-2.79 1.942-1.53 3.161 1.04 1.004-3.21 3.746-5.81 3.746-1.23 0-1.32.14-.7 1.108.58.901.38 1.485-1.05 3.107-1.97 2.238-1.97 2.242 3.39 2.718l3.27.29-1.41 1.058c-1.9 1.435-1.76 2.899.45 4.794 1.02.874 2.08 2.205 2.34 2.959.12.352.19.618.35.815.52.64 1.94.546 9.05.261 5.87-.235 7.49 2.105 3.4 4.909-4.37 2.987-4.12 3.265 5.31 5.898 4.47 1.252 8.14 2.358 8.14 2.458 0 .574-2.49 1.5-4.03 1.5-3.61 0-8.78 1.393-8.56 2.306.18.768.77.845 6.92.895 4.76.038 7.56.273 9.56.8 4.85 1.278 18.27 1.404 21.03.198 3.68-1.612 9.42-.792 11.37 1.622.66.816 1.77 1.229 4.3 1.599 3.88.57 5.14 1.085 6.41 2.616 2.62 3.181-2.89 3.82-12.49 1.447-2.62-.649-6.64-1.155-11.32-1.428-4-.232-8.76-.702-10.59-1.045-17.56-3.292-30.69 1.301-17.9 6.266 3.66 1.419 1.35 3.359-3.45 2.897-3.31-.318-3.3.146.02.969 1.73.426 3.6.556 5.55.382 3.27-.289 5.83.155 9.55 1.654 4.04 1.627 6.21 1.771 7.05.467.89-1.392 2.17-1.381 5.04.046 2.06 1.028 2.2 1.048 1.44.21-.93-1.029-.91-1.034 3.12-.943 1.57.036 3.76-.139 4.87-.389 1.44-.326 2.27-.326 2.94-.001.53.262 2.06.344 3.63.195 4.69-.448-3.34 1.632-12.39 3.209-5.39.941-5.96 5.491-.85 6.784.98.248 3.56 1.433 5.74 2.635 4.12 2.283 9.81 3.797 10.39 2.768.41-.733 4.08-.625 5.17.153 1.07.763-.06 1.418-2.46 1.43-2.15.01.57 1.563 3.37 1.921 1.23.157 3.41.639 4.86 1.072 1.44.434 3.87.788 5.39.788 1.53 0 4.04.265 5.59.588 8.91 1.863 15.91 1.799 19.32-.174 2.94-1.705 5.21-1.632 8.01.254 2.82 1.897 5.17 2.624 10.63 3.283 4.02.486 4.35.614 4.78 1.848 1.36 3.948 7.93 5.055 16.08 2.71 4.19-1.207 8.28-.99 13.58.722l2.48.8-2.59.017c-1.43.01-4.61.393-7.08.851-4.92.914-8.14 1.039-11.92.463-9.07-1.378-13.73-.777-12.09 1.562 1.56 2.235.35 2.486-1.43.297-2.7-3.312-19.98-7.228-27.4-6.212-1.83.251-6.04.77-9.35 1.154-3.3.384-8.08.971-10.61 1.303-2.53.333-6.92.775-9.74.983-4.82.354-8.31 1.222-12.56 3.122-2.06.919-.83 1.408 5.32 2.111 2.91.333 6.16.802 7.22 1.044 1.06.241 6.79.655 12.74.921 9.54.425 12.23.541 12.28.988.03.179-.37.41-.92.734-1.45.863-1.69.87-10.48.358-9.52-.554-10.2-.467-10.22 1.324-.02 1.331-1.53 1.264-6.72-.298-6.09-1.831-10.05-1.642-15.05.719-1.47.693-3.94 1.64-5.5 2.103-7.37 2.194-8.34 3.941-3.01 5.398 2.04.559 6.01 2.269 8.81 3.8 3.89 2.129 6.28 3.055 10.14 3.929 5.5 1.244 6.65 2.101 5.5 4.067-.76 1.289-2.45 1.748-5.02 1.365-5.49-.816-8.89 4.576-4.27 6.774 1.5.716 3.59 2.229 4.63 3.362l1.89 2.059-4.38-.219c-3.3-.164-5-.498-6.9-1.357-2.89-1.31-7.7-2.591-8.32-2.219-.24.139 1.59 1.33 4.06 2.646 9.71 5.175 11.28 6.011 11.23 6.723-.01.141-.09.277-.17.441-.28.517-1.28 1.113-2.22 1.324-3.75.846 1.49 2.957 13.51 5.447 5.25 1.086 7.45 1.707 10.94 3.092 3.33 1.322 4.31 1.392 12.25.873l4.77-.313 3.37 2.006c1.85 1.103 4.91 2.573 6.8 3.267 9.79 3.59-6.22 12.189-17.44 9.368-1.25-.315-3.5-1.36-4.99-2.324-1.49-.963-3.56-1.854-4.6-1.98-2.61-.315-5.34-2.39-2.88-2.182 1.26.106 1.81-.132 2.33-1.007.28-.468.48-.784.41-1.03-.14-.515-1.41-.722-5.34-1.367-5.67-.932-6.68-1.577-6.68-4.273 0-1.582-.33-2.136-1.59-2.685l-1.59-.692 1.59.277c.98.171 1.59.097 1.59-.194 0-.514-7.13-2.522-8.95-2.522-.63 0-2.93-.468-5.12-1.04-3.66-.957-15.5-2.734-18.22-2.734-1.83 0 .03 1.065 3.68 2.113 4.11 1.18 4.75 3.25.83 2.704-3.94-.548-12.59-.513-11.8.047.37.268 1.63.6 2.8.738 1.21.143 3.46 1.072 5.25 2.16 4.39 2.675 11.78 4.604 19.14 4.993 9.34.495 12.83 1.865 16.56 6.512.82 1.024 1.5 2.156 1.51 2.516 0 .361.95 2.26 2.11 4.221 3 5.084 2.95 5.25-1.94 6.093-5.65.972-7.42.734-21.55-2.897-13.89-3.568-15.17-3.706-18.39-1.999-4.13 2.184-1.07 4.467 12.41 9.268 4.62 1.645 9.84 3.644 11.6 4.442 1.77.798 4.52 1.646 6.11 1.886 1.6.239 8.49 1.65 15.3 3.135 7.28 1.586 14.95 2.955 18.59 3.319 7.05.704 9.45 1.398 11.77 3.4 6.73 5.822-2.54 8.193-15.14 3.872-5.23-1.794-10.13-3.12-28.9-7.81-3.82-.956-7.54-1.738-8.25-1.738-.72 0-4.48-.944-8.37-2.098l-7.07-2.097h-9.54c-14.29 0-21 2.538-12.73 4.813 3.55.978 3.77 1.409.89 1.75l-2.12.251 2.98 2.104c3.3 2.335 6.2 3.246 10.35 3.246h2.77l-.09 2.267-.09 2.268-2.48-.639c-9.22-2.376-15.11-1.861-13.33 1.165.51.87.42 1.416-.36 2.143-2.69 2.511 7.92 8.114 17.35 9.163 4.31.478 5.78 1.338 5.15 3.024-.64 1.719 1.32 3.282 10.47 8.351 8.26 4.581 10.44 5.333 17.4 6.015 3.5.342 4.13.921 3.05 2.764-1.05 1.785.26 3.164 5 5.272 2.07.919 5.35 2.375 7.3 3.235 1.95.861 5.93 3.185 8.85 5.165 5.99 4.059 9.52 6.205 14.72 8.945 6.46 3.406 5.71 7.969-1.32 7.969-2.45 0-8.27-2.987-14.58-7.487-3.37-2.4-8.38-5.425-11.14-6.722-2.75-1.297-6.56-3.302-8.45-4.456-1.9-1.153-8.31-5.022-14.25-8.598-5.94-3.575-11.81-7.396-13.05-8.49-4.65-4.101-10.06-5.074-16.67-2.991-3.92 1.237-4.04 1.205-6.92-1.914-4.35-4.703-17.26-4.301-21.2.662-1.63 2.051-3.09 2.305-6.14 1.065-1.03-.421-3.39-1.097-5.24-1.503-4-.88-5.49-1.984-5.49-4.086 0-1.388-.25-1.6-2.37-2.015-3.03-.593-5.13-1.935-5.93-3.793-.79-1.82-4.8-2.881-11.03-2.916-4.51-.025-5.51-.258-10.19-2.372-3.69-1.669-6.05-1.795-10.11-.54-1.58.487-3.5.788-4.28.668-1.3-.202-3.52.991-3.52 1.894 0 1.597 11.26 6.706 20.07 9.105 6.7 1.826 8.12 2.844 6.82 4.881-.38.592-.69 1.922-.69 2.957 0 2.827-1.57 4.292-4.93 4.611-4.21.399-4.25 1.126-.35 5.803 1.84 2.2 2.16 3.169 1.06 3.169-1.35 0-4.27-2.839-5.1-4.97-.59-1.513-1.14-2.127-1.79-1.98-.51.117-2.09-.253-3.51-.823-1.41-.569-3.14-1.035-3.83-1.035s-1.8-.124-2.47-.275c-1.1-.252-1.12-.19-.14.734.59.555 1.27 1.528 1.52 2.163.25.635 1.98 2.712 3.85 4.614 1.88 1.903 3.84 4.12 4.38 4.927.53.807 1.52 1.94 2.21 2.516.68.577 1.46 1.588 1.72 2.248.7 1.726-2.08.809-3.17-1.048-.43-.734-1.54-1.918-2.45-2.63-.92-.713-2.4-2.145-3.29-3.183-.89-1.038-3.6-3.114-6.02-4.614-7.93-4.907-9.96-9.498-5.28-11.953 4.34-2.284 4.97-4.93 2.05-8.598-3.7-4.639-5.46-5.148-10.05-2.908-3.31 1.616-6.2 2.127-9.19 1.62-2.6-.443-9.74-.522-11.48-.127-.64.144-2.08 1.347-3.21 2.673-2.26 2.657-2.96 2.936-7.37 2.936-2.68 0-3.2-.167-4.72-1.536-1.36-1.22-2.44-1.643-5.22-2.055-1.93-.285-4.02-.887-4.64-1.338-.61-.451-2.3-1.051-3.74-1.334-3.2-.624-3.2-.671-.33-1.711 2.75-.991 4.99-1.065 6.2-.205.98.704 2.12.834 2.12.242 0-4.496-16.34-3.398-18.17 1.22-.23.58-1.21 1.563-2.19 2.185l-1.78 1.132.91 4.033c.64 2.864.68 4.163.14 4.482-1.32.78-2.88.02-3.36-1.633-2.8-9.615-6.67-13.451-9.87-9.786-1.2 1.379-3.04 2.11-5.3 2.11-.82 0-2.27.304-3.23.675-1.11.431-2.4.577-3.57.403-1.19-.177-1.67-.12-1.38.163.25.24 1.57.436 2.94.436 4.25 0 5.22.571 5.22 3.067 0 3.154 4.56 5.718 10.2 5.739.35.001 2.36.486 4.47 1.077 4.4 1.234 5.28 1.047 6.63-1.423 2.63-4.817 9.59-6.597 14.48-3.703 3.16 1.871 3.7 3.334 2.13 5.716-.69 1.045-1.85 3.206-2.59 4.802-2.6 5.638-5.76 5.974-13.8 1.465-5.71-3.206-6.27-3.261-8.4-.832-.63.713-2.17 1.333-4.55 1.829-6.95 1.445-4.87 5.389 4.74 9.004 3.49 1.31 6.47 2.82 7.89 3.993 1.34 1.106 3.44 2.196 5.08 2.634 2.8.749 7.7 3.562 7.7 4.424 0 .862-10.1-.017-11.24-.979-1.41-1.195-7.16-3.259-9.08-3.259-4.48 0-.54 4.129 6.22 6.516 2.75.971 2.84 1.702.59 4.757-.75 1.01-1.36 2.532-1.36 3.383 0 3.183-10.79 4.689-18.17 2.536-5.03-1.466-6.6-1.244-6.6.928 0 2.039-2.94 4.493-6.62 5.532l-3.65 1.03 1.99.451c1.1.248 2.43.451 2.97.451.53 0 1.07.505 1.19 1.122.38 1.921 1.74 1.543 5.22-1.449 6.15-5.297 11.11-6.173 16.93-2.994 3.3 1.806 4.99 3.957 4.43 5.674-.23.717.07 1.161.99 1.452 2.11.669 1.63 1.648-.8 1.648-1.17 0-3.32.377-4.77.839-1.88.597-4 .839-7.35.839-6.76 0-8.95 3.129-3.85 5.506 1.02.475 2.52 1.648 3.33 2.607.81.959 2.17 2.309 3.03 3.001.85.692 2.32 2.013 3.27 2.934l1.71 1.676-2.46-.959c-12.28-4.776-17.01-4.764-17.87.045-.62 3.458-2.37 4.15-10.08 3.988l-6.37-.134-.22 1.308c-.28 1.729 3.09 3.797 6.79 4.161 2.77.273 3.89.364 4.23.925.24.394.1 1.019-.12 2.099-.85 4.332-4.69 5.645-9.49 3.25-1.16-.576-2.85-1.048-3.75-1.048-.93 0-2.29-.485-3.14-1.119-2.25-1.671-4.01-1.096-3.73 1.22.19 1.512.44 1.768 1.64 1.667 5.44-.459 6.94-.229 9.3 1.425 1.28.897 3.44 2.338 4.81 3.202 2.88 1.827 2.74 2.36-1.07 3.852-2.47.97-2.78 1.276-2.78 2.79 0 2.64-3.02 2.265-3.54-.438-.41-2.189-1.22-2.426-8.49-2.489-8.77-.075-11.33.854-11.33 4.11 0 1.636-.13 1.73-3.8 2.759l-3.8 1.066-.49 2.956-.5 2.955-1.96-1.598c-2.74-2.237-3.93-2.728-6.22-2.557l-1.99.149 2.56.675c1.69.446 2.81 1.104 3.3 1.939.41.695 1.41 1.389 2.22 1.541 1.27.239 1.48.613 1.48 2.696 0 3.384 2.39 3.864 4.16.84.84-1.427 1.57-1.465 6.27-.332 1.86.447 2.91.452 5.6.026 3.11-.493 3.55-.454 7.27.636 4.8 1.407 8.79 1.471 12.27.196 3.68-1.346 5.07-1.163 8.11 1.07 1.48 1.086 3.51 2.454 4.51 3.041 3 1.751 4.79 7.567 2.33 7.567-.63 0-2.88.587-5 1.305-4.79 1.624-6.99 1.451-11.27-.887-5.17-2.82-7.43-2.146-7 2.081.51 4.953-2.27 6.112-8.57 3.577-2.92-1.174-6.97-1.395-7.61-.414-.63.973-2.73.752-6.36-.673-4.2-1.647-5.87-1.43-8.43 1.094-2.95 2.912-2.67 3.814 1.42 4.495 4.86.81 4.85 4.954-.02 4.934-2.49-.01-3.17-.468-5.27-3.532-1.37-2.002-2.46-2.981-3.59-3.226-2.28-.493-2.84.625-1.21 2.418 1.6 1.758 1.13 2.088-1.73 1.212-3.1-.948-7.08-4.833-8.55-8.336-1.37-3.269-2.12-3.742-7.35-4.657-1.984-.347-5.518-1.389-7.854-2.317-6.736-2.673-8.222-2.276-7.268 1.94.577 2.555.504 2.843-.948 3.759l-1.573.992 2.417 2.101c2.698 2.346 3.828 2.675 3.272.954-.396-1.23.518-2.625 2.079-3.171 1.265-.442 1.227-1.133-.061-1.133-1.1 0-2.185-.757-1.589-1.11.2-.119 1.108.025 2.017.32.91.294 3.483.553 5.719.575 2.239.022 4.419.252 4.859.51 1.13.668-1.75 5.599-3.993 6.849-2.294 1.277-2.212 1.651.732 3.342 1.391.798 2.161 1.236 2.251 1.783.1.679-.84 1.525-2.959 3.436-1.752 1.581-3.185 3.224-3.185 3.651 0 1.037-.235 1.008-5.452-.692-3.261-1.061-4.626-1.567-5.287-1.092-.533.382-.61 1.4-.853 3.274-.656 5.057.081 5.524 7.056 4.481 2.689-.402 5.392-1.055 6.007-1.452 1.042-.673 1.206-.621 2.477.798.746.835 2.276 2.138 3.386 2.895 2.22 1.513 2.27 2.598.24 5.776-2.23 3.499-2.32 5.662-.25 5.662 6.31 0 11.67 7.127 8.61 11.46-1.21 1.711-.92 2.405 1.88 4.539 2.57 1.958 2.52 2.49-.38 4.313-4.17 2.622-9.65 1.442-9.65-2.08 0-2.191-2.7-6.838-4.27-7.335-.765-.242-1.391-.711-1.391-1.04 0-.33-.717-.819-1.592-1.086-.876-.267-3.292-1.236-5.369-2.152l-3.776-1.666-1.755.977c-.964.537-2.406 1.601-3.203 2.365l-1.448 1.388-5.873-.123c-13.406-.28-18.315 7.022-7.974 11.865 4.184 1.96 7.516 2.155 12.356.723l3.112-.921 6.59 1.34c7.846 1.596 9.809 1.667 11.222.407.931-.833 1.251-.878 2.951-.42 1.05.283 2.47.514 3.16.514 1.49 0 3.72 1.355 5.3 3.211 2.38 2.788 5.97 3.279 12.7 1.738 1.45-.331 2.41-.324 3.54.025 7.35 2.262 10 1.83 10.03-1.638l.03-2.586-4.25-2.291c-2.34-1.259-5.28-2.563-6.55-2.896-2.67-.706-2.68-.715-1.08-2.314 1.33-1.343 3.71-1.615 5.15-.588 1.22.868 2.13.787 2.13-.19 0-.498-1.25-1.326-3.18-2.113-1.75-.712-3.5-1.655-3.9-2.096-.69-.766-.82-.77-2.88-.089-2.37.786-6.23-.89-5.31-2.31.22-.336.4-1.998.4-3.692 0-4.863 1.59-5.37 8.37-2.67 8.13 3.233 8.85 2.847 10.4-5.533 1.2-6.443 1.19-6.551-.22-8.188-2.23-2.591-.57-5.376 2.34-3.941.99.484 7.2 6.603 9.58 9.431.58.692 2.1 1.531 3.37 1.864 2.75.723 3.42 1.929 2.24 4.053-.69 1.237-.68 2.14.03 4.396 1.67 5.238-.76 10.654-6.07 13.536l-2.59 1.409.79 2.176c1.67 4.639.12 6.317-2.76 2.974-.79-.923-1.67-1.675-1.96-1.671-2.77.034-3.25 2.944-1.15 6.956 1.91 3.639 2.45 3.923 6.91 3.65 3.52-.216 3.82-.156 5.63 1.113 4.09 2.879 1.06 6.309-5.58 6.309h-3.81l.43 1.27c.4 1.205.32 1.264-1.75 1.171-1.26-.057-2.73.203-3.51.618-.97.521-2.59.716-5.95.716-2.53 0-6.17.281-8.08.625-2.79.502-3.86.724-4.18.336-.21-.262-.07-.802.11-1.721l.41-2.018-5.01-2.707c-2.83-1.53-5.48-3.386-6.11-4.273-1.32-1.869-2.23-1.993-2.83-.381-.48 1.292.51 3.227 2.22 4.345 1.18.772.74 1.6-.85 1.6-.55 0-1.27-.614-1.6-1.363-.55-1.236-.83-1.353-3.03-1.253-4.549.206-5.262.182-10.405-.354-6.231-.65-7.336-.319-5.99 1.795 1.123 1.763.991 1.784-3.45.559-5.159-1.423-8.421-1.434-8.421-.028 0 .605-.588 1.22-1.416 1.483-1.93.612-1.781 1.422.644 3.51 2.388 2.056 2.668 2.636 1.914 3.955-.336.587-.23 1.192.27 1.549 1.066.762.605 2.556-.619 2.4-1.535-.194-2.917.767-2.917 2.03 0 .819-.442 1.262-1.448 1.451-.796.15-3.342 1.047-5.658 1.994-5.625 2.3-11.016 2.647-14.832.955-2.966-1.315-3.427-.878-1.471 1.394 1.025 1.189 1.585 2.9 1.908 5.817l.458 4.132 3.043.745c1.674.411 3.891 1.248 4.926 1.861 1.835 1.088 1.906 1.095 2.886.301 1.36-1.101 1.027-1.485-2.518-2.902-5.586-2.233-7.184-6.435-3.274-8.612 2.789-1.552 4.241-1.03 4.654 1.672.566 3.717 4.266 6.114 7.937 5.143 1.041-.275 2.353-.276 3.851-.004 1.752.319 2.835.255 4.729-.277 7.656-2.152 12.931 2.987 7.884 7.682-1.948 1.812-2.377 2.566-2.048 3.605.652 2.061-1.166 2.86-5.853 2.573-2.067-.127-3.758-.072-3.758.122 0 .193.8 2.359 1.778 4.811 1.3 3.258 1.586 4.673 1.062 5.252-2.357 2.61.154 3.51 4.83 1.732 8.122-3.088 15.109.293 11.762 5.692-1.961 3.165-2.501 3.375-6.504 2.525-4.623-.982-4.745-.965-8.707 1.231-4.049 2.244-6.429 2.324-11.384.381a15.318 15.318 0 0 0-5.695-1.066c-1.637 0-4.371-.399-6.075-.888l-3.097-.888-1.655.92-1.654.921-2.849-1.065c-1.566-.586-3.062-1.464-3.322-1.951-.447-.833-.552-.843-1.785-.182-1.491.799-3.511.927-6.985.44l-2.406-.337.397 2.595c.353 2.308.267 2.561-.779 2.294-3.681-.938-4.983-.732-8.502 1.345-1.901 1.122-4.181 2.332-5.067 2.689l-1.611.65 2.205 2.676c3.968 4.819.985 7.228-6.203 5.008-5.282-1.631-6.196-.929-7.418 5.696-.954 5.174-2.16 5.566-5.791 1.884-2.799-2.838-4.981-4.097-6.027-3.478-.777.461.358 3.586 1.677 4.62.357.28.796 2.45.973 4.823.373 4.958 2.517 10.283 5.023 12.469 1.236 1.079 1.601 1.84 1.32 2.75-.215.692-.608 3.326-.876 5.853-.425 4.017-.69 4.717-2.11 5.558-4.331 2.566-7.084.033-6.384-5.873.342-2.879.128-4.512-.973-7.44-.775-2.063-1.41-4.99-1.41-6.504 0-10.567-9.107-15.956-14.812-8.765-2.413 3.042-6.426 2.589-6.426-.726 0-.717-.297-1.128-.708-.977-1.08.396-.844 3.27.417 5.057.735 1.043.979 2.184.705 3.302-1.483 6.061-1.442 6.53.585 6.53 2.406 0 2.934.849 1.53 2.458-1.481 1.697-1.403 2.022.27 1.126 1.337-.718 1.395-.703 1.79.459.225.66 1.151 2.086 2.058 3.167 1.08 1.289 1.409 2.11.954 2.38-.456.27-.151.866.884 1.727.87.723 1.426 1.406 1.238 1.518-.346.204-5.264-3.38-9.663-7.043-3.073-2.558-3.831-2.681-7.74-1.257-2.791 1.016-3.357 1.456-3.875 3.007-.334 1-1.394 2.522-2.356 3.384-2.552 2.285-3.131 6.086-1.058 6.946 1.521.631 1.895 1.612 1.089 2.855-.669 1.034-1.675.787-2.703-.662-3.014-4.247-3.506 8.691-.717 18.832.511 1.861 3.032 3.884 4.838 3.884 3.169 0 4.05 2.977 1.49 5.033-1.447 1.162-1.77 1.904-1.77 4.066v2.645h-10.517l-.228-6.225-.228-6.226-2.696-2.477c-1.484-1.363-3.923-4.001-5.422-5.864-1.5-1.862-3.531-4.087-4.513-4.945-.983-.858-2.3-2.475-2.927-3.593-1.088-1.941-8.312-6.74-10.146-6.74-1.035 0-1.448 1.982-.772 3.703.332.847.611 2.699.62 4.116.013 2.083 2.979 11.274 4.682 14.515.276.526-.005.734-.991.734-2.194 0-2.822-.811-4.475-5.776-1.854-5.565-1.939-5.662-4.97-5.716-1.085-.019-1.726-.018-2.025-.337-.438-.468-.142-1.621.565-4.528.71-2.915-2.24-6.7-5.748-7.378-.714-.138-3.374-1.366-5.912-2.728-6.586-3.536-8.143-3.412-9.056.72-.249 1.125-1.71 3.556-3.247 5.401-2.207 2.649-2.93 4.101-3.435 6.899-.653 3.61-1.601 4.635-4.285 4.635-1.931 0-4.269-1.259-4.269-2.3 0-3.764-9.446-4.15-12.356-.505-.962 1.205-2.846 2.821-4.187 3.59l-2.436 1.399-.879-2.327c-.751-1.987-.709-2.688.286-4.79.642-1.354 1.156-3.11 1.143-3.902l-.024-1.441-1.352.961c-.743.528-2.342 2.482-3.552 4.342-4.148 6.372-5.951 7.451-9.288 5.557-3.253-1.847-3.501-1.407-4.877 8.627-.393 2.874-1.246 6.344-1.893 7.71-.91 1.923-1.003 2.755-.41 3.687l.766 1.202h-17.414l-.32-1.295c-.213-.857.111-1.602.957-2.202 1.037-.735 1.284-.777 1.303-.222.023.664 3.298 1.349 4.444.929.294-.107.535-1.665.535-3.461 0-3.689.703-4.373 5.265-5.12 1.584-.259 2.844-.783 3.224-1.342.49-.721.634-.76.669-.184.048.791 1.113.987 1.798.331 1.326-1.272 1.046-20.149-.3-20.149-.817 0-2.16 2.023-2.172 3.271-.03 3.093-3.697 2.982-4.264-.129-.209-1.152-.766-2.506-1.238-3.009-.473-.504-.858-1.401-.858-1.992 0-.592-.319-1.077-.708-1.077-.725 0-.96.758-.742 2.384.067.504-.989 2.297-2.346 3.984-3.177 3.95-3.921 8.067-2.179 12.073 2.289 5.264.275 8.489-7.368 11.801-12.816 5.552-15.375 6.262-17.664 4.906-.661-.392-.85-.392-.85 0 0 .391-78.028.503-349.003.503H-.555l-.029-195.554c-.015-107.555-.014-205.558.004-217.784ZM1268.03 3.465c0-.275 1.2-1.15 2.66-1.944 3.41-1.858 6.69-2.074 4.75-.313-.69.624-2.13 2.594-3.19 4.376-1.07 1.783-3.11 4.244-4.55 5.47-1.43 1.227-3.45 3.002-4.49 3.945-1.75 1.587-2.13 1.716-5.08 1.723-1.76.003-4.12.156-5.25.338-3.69.594-9.01-1.829-5.68-2.586.61-.14 1.47-.039 1.91.222 2.72 1.612 18.92-8.004 18.92-11.231Zm344.23-.284c-1.65.553-.9-.65 1.18-1.883 2.02-1.192 4.31-1.632 4.31-.828 0 .359-3.24 1.956-5.49 2.71Zm231.98-.778c1.04-.592 3.6-1.282 6.06-1.631 4.56-.651 11.54-.903 10.68-.385-.29.173-4.56 1.119-9.5 2.1-4.93.983-9.53 1.902-10.21 2.042-.85.174-1.24.04-1.24-.423 0-.373.54-.678 1.2-.678.66 0 2.02-.462 3.01-1.025Zm-293.78-.653a.683.683 0 0 1-.67-.692c0-1.028 10.11-.522 25.48 1.275 6.81.797 14.97 1.67 18.12 1.939 6.55.562 7.76.88 7.11 1.876-.51.79-3.45.66-9.93-.444-1.92-.326-4.63-.48-6.06-.344-1.45.138-4.59-.047-7.15-.422-4.94-.723-19.94-1.61-21.44-1.27-.5.115-1.79-.27-2.86-.854-1.06-.585-2.23-1.064-2.6-1.064Zm500.76 1.48c2.79-.377 6.51-1.139 8.27-1.693 3.61-1.144 6.04-1.315 6.59-.465.27.412-.43.658-2.4.845-1.54.145-5.21.833-8.17 1.53-6.24 1.47-12.84 2.146-10.66 1.093.71-.343 3.58-.932 6.37-1.31Zm-503.05 3.182c-.54-.318-.38-.694.54-1.297 1.65-1.079 3.2-1.09 3.2-.024 0 1.033-2.65 1.968-3.74 1.321Zm-303.5.735c0-.354.23-.781.52-.95.28-.168.64-.088.79.177.15.266-.09.693-.52.95-.58.342-.79.295-.79-.177Zm818.01 2.15c1.7-.518 4.14-1.476 5.43-2.13 2.92-1.48 6.24-1.649 6.24-.319 0 1.243-3.31 3.71-4.97 3.71-.75 0-3.48.472-6.07 1.048-8.56 1.91-9.02.246-.63-2.309Zm-354.83 5.04c1.54-.006 9.64-2.433 13.96-4.184 6.32-2.561 9.77-1.208 3.89 1.527-6.8 3.168-9.87 4.2-13.27 4.468-3.53.28-7.15 1.292-14.63 4.102-5.15 1.934-18.2 4.475-19.38 3.773-2.03-1.2 5.48-4.057 17.33-6.6 2.61-.558 6.11-1.48 7.79-2.048 1.68-.568 3.61-1.034 4.31-1.037Zm-21.76-1.395c-.97-.19-2.52-2.034-2.07-2.466.6-.575 2.16-.375 3.91.5 1.72.865.3 2.384-1.84 1.966Zm-171.83-.707c-.47 0-.42-.24.14-.639.5-.351 1.04-.553 1.22-.447.49.29-.5 1.087-1.36 1.087Zm-160.48 6.711c-.39 0-.91-.189-1.15-.42-.24-.23-.12-.419.27-.419s.91.19 1.15.42c.24.23.11.42-.27.42Zm547.93 3.775c-2.7 0-3.28-.567-2.2-2.122 1.3-1.86 7.07-1.497 7.07.444 0 .986-2.01 1.678-4.87 1.678Zm-593.81 3.196c-.32-.192 1.33-1.38 3.66-2.637 4.38-2.37 5.71-2.383 3.4-.03-1.43 1.465-6.13 3.237-7.06 2.667Zm263.2-3.013c-1.2.437-2.91-.033-2.91-.8 0-.79.75-.814 2.45-.076.94.408 1.07.651.46.876Zm37.64 3.01c-.29-.173 3.71-1.68 5.47-2.059 2.16-.467 3.06-.34 2.16.303-.85.606-7.13 2.051-7.63 1.755Zm-199.12-1.096c-1.39.53-2.83.53-2.83 0 0-.23.87-.416 1.94-.413 1.52.005 1.72.096.89.413Zm-56.28 2.936c-.59 0-1.06-.189-1.06-.42 0-.23.47-.419 1.06-.419.58 0 1.06.189 1.06.42 0 .23-.48.419-1.06.419Zm-94.93 2.381c-1.38.314-2.36-.51-1.89-1.589.17-.374.26-.59.42-.689.23-.138.59-.05 1.48.152 1.46.33 1.45 1.794-.01 2.126Zm233.75.974c-1.05 0-.26-1.392 1.31-2.325 2.09-1.239 3.22-1.316 3.22-.22 0 .697-3.29 2.545-4.53 2.545Zm-282.42.343c-2.24.158-2.7-1.276-.64-1.987 1.54-.531 1.7-.533 3.01-.039 1.52.577.03 1.856-2.37 2.026Zm422.87.557c3.31-.901 6.66-1.938 7.43-2.304 1.8-.842 3.19-.874 3.19-.073 0 .839-2.55 1.767-6.99 2.55-3.96.696-10.86 3.076-15.04 5.183-1.41.712-3.22 1.294-4.03 1.294-.8 0-2.28.187-3.3.415-1.48.334-1.93.28-2.29-.283-.67-1.037 3.59-2.94 7.77-3.473 1.94-.246 4.36-.722 5.38-1.06 1.03-.336 4.57-1.349 7.88-2.25Zm-433.47 4.447c-2.84-2.08-2.71-3.484.48-5.217 4.23-2.294 7.53-1.054 7.53 2.826 0 3.754-4.37 5.058-8.01 2.391Zm742.48-4.085c-.25-.459-.25-1.025-.01-1.258 1.13-1.081 4.44.241 3.65 1.459-.6.918-3.12.78-3.64-.2Zm-716.03-.2c-.42-.154-.56-.473-.32-.708.3-.286.7-.279 1.21.022.91.539.2 1.084-.89.686Zm250.57 1.665c-1.55.832-1.79.427-.72-1.231.38-.592 1.01-1.076 1.41-1.076 1.25 0 .8 1.511-.69 2.307Zm164.07 2.816c3.18-.92 5.99-2.078 7.06-2.907 2.12-1.65 2.96-1.705 5.12-.341l1.65 1.036-1.7.838c-.93.46-2.97 1.228-4.53 1.705-6.17 1.892-23.11 8.19-25.13 9.343-.58.333-1.76.82-2.61 1.084-2.35.725-2.97-.288-.87-1.405.94-.498 2.06-1.27 2.49-1.714.42-.445 2.47-1.216 4.55-1.713 2.46-.59 4.63-1.515 6.23-2.651 1.61-1.15 4.25-2.27 7.74-3.275Zm300.07.276 2.08-.81c2.67-1.045 7.32-1.157 5.9-.142-1.34.96-4.19 1.514-6.23 1.212l-1.75-.26Zm-536.29.169c-.09.501-1.06.404-1.37-.137-.15-.276.1-.428.57-.335.47.092.83.304.8.472Zm83.36 3.175c-5.6 1.22-8 .788-3.95-.71 2.5-.924 4.85-1 5.31-.172.16.287-.45.684-1.36.882Zm71.14 1.922c-1.93-.72-1.88-1.347.17-2.477 2.9-1.589 5.42-1.445 5.13.292-.27 1.652-3.34 2.918-5.3 2.185Zm-42 1.288c-.39.143-.71.06-.71-.185 0-.244.32-.444.71-.444.39 0 .71.083.71.185s-.32.302-.71.444Zm-70.5 3.847c-2.87.652-13.68-1.613-11.53-2.418 1.54-.579 4.61-.441 5.58.249.54.384 2.09.63 3.98.63 3.19 0 4.45.977 1.97 1.539Zm-152.46-.267c-.89-.328-.85-.508.28-1.247 1.29-.844 3.24-1.178 3.21-.55-.04.884-2.52 2.158-3.49 1.797Zm469.6-.434c-.55 0-.99-.283-.99-.63 0-.345.63-.628 1.39-.628.95 0 1.27.201.99.629-.22.346-.85.629-1.39.629Zm-217.61 2.987c0-.555 1.47-1.174 6.08-2.559 2.3-.691 4.44-1.258 4.76-1.261 1.34-.013-.59.928-3.99 1.943-2.02.601-3.92 1.353-4.23 1.67-.63.634-2.62.792-2.62.207Zm408.45-2.452c-3.1.722-4.72.184-2.43-.809 1.46-.635 4.29-.754 4.86-.205.21.199-.88.655-2.43 1.014Zm-682.13 5.888c-1.29 1.033-1.11-.054.41-2.42.38-.587.89-1.067 1.14-1.067.78 0-.34 2.517-1.55 3.486Zm595.99-.287c-.29-.17-.06-.478.5-.684 1.32-.484 1.92-.13.85.504-.46.269-1.06.35-1.35.18Zm-245.35 3.44c-4.43-2.483-4.85-3.12-2.45-3.691 3.35-.8 4.78-.548 4.33.765-.56 1.66 3.32 4.369 5.75 4.009 2.21-.33 2.75.379 1.15 1.544-1.6 1.172-2.46.915-8.78-2.627Zm-53.42 2.069c-5.21-.646-5.76-1.119-2.92-2.526 3.68-1.822 5.81-1.471 6.07 1.002l.21 1.941-3.36-.417Zm293.82-1.579c-1.01 0-.99-.099.14-.839.7-.461 1.56-.839 1.9-.839.35 0 .29.378-.13.84-.42.46-1.28.838-1.91.838Zm-285.42-.231c-.99-.24-.96-.325.27-.623.78-.19 2.37-.343 3.54-.34l2.12.004-2.39.619c-1.32.34-2.91.493-3.54.34Zm-71.79 2.6c-2.71.83-1.78-.078 1.17-1.143 1.22-.442 2.34-.804 2.48-.805.77-.005-1.86 1.4-3.65 1.948Zm-102.44-.328c0-.354.23-.78.51-.949.29-.168.64-.088.79.177.15.265-.08.692-.52.949-.57.342-.78.295-.78-.177Zm88.45 3.821c.6-.005 2.83-.647 4.94-1.426 4.27-1.576 5.9-1.54 5.58.123-.2.985-.61 1.13-4.11 1.425-2.14.182-5.09.7-6.55 1.15-1.91.593-2.66.671-2.66.283 0-.732 1.46-1.543 2.8-1.555Zm168.27 1.22c-3.5-1.37-4.06-2.16-2.05-2.854.68-.236 3.15-.43 5.49-.431l4.24-.004-1.77.82c-.97.452-2.01.825-2.3.83-1.67.03-.12 1.281 2.13 1.71 3.59.686 3.95.842 3.12 1.335-1.12.666-5.25.01-8.86-1.405Zm-361.6 5.541c-1.77-.823-2.54-6.506-1.07-7.905.3-.288 1.2-.524 2.01-.524 1.4 0 1.41.039.25 1.088-1.15 1.038-1.15 1.077.09.849 4.05-.747 6.82 4.27 3.46 6.26-2.09 1.24-2.53 1.261-4.74.232Zm-35.72-.485c-8.68.703-11.69-2.944-4.24-5.145 5.34-1.58 10.57-.462 10.57 2.26 0 1.798-1.53 2.496-6.33 2.885Zm249.12-.97c-.16-.092.57-.566 1.62-1.054 2.01-.938 3.83-1.163 3.83-.473 0 .431-4.96 1.82-5.45 1.527Zm62.89-.492c-2.4.452-4.97-.641-2.75-1.171.48-.116 1.6-.227 2.48-.245 1.93-.04 2.15 1.064.27 1.416Zm-322.91.439c-.39.142-.71-.036-.71-.395 0-.36.32-.654.71-.654.39 0 .71.177.71.395 0 .217-.32.511-.71.654Zm648.91 1.145c1.88-.125 4.37-.575 5.55-1 3.31-1.195 7.44-1.055 7.44.253 0 1.388-5.6 3.775-14.86 6.332-1.36.377-4.55 1.338-7.08 2.137-10.39 3.28-29.79 8.699-35.76 9.988-3.51.758-7.65 1.78-9.19 2.271-1.55.491-3.21.893-3.7.893-.48 0-2.77.54-5.07 1.2-3.46.994-4.81 1.166-7.83.994-4-.228-4.7-1.106-1.6-2.02.89-.262 2.32-.868 3.18-1.347.86-.48 3.8-1.47 6.52-2.2 6.93-1.857 13.02-3.723 15.92-4.875 1.35-.538 2.84-.98 3.31-.98 2.19 0 12.52-2.851 17.71-4.891 4.57-1.798 6.71-2.363 10.19-2.695 5.15-.492 6.59-.876 9.62-2.577 1.63-.915 3.17-1.317 5.65-1.483Zm-306.45.539c-1.07-.558-1.95-1.119-1.95-1.245 0-.653 4.27-.149 4.93.581 1.73 1.913.1 2.275-2.98.664Zm-24.68-.093c3.35-.113 6.23-.281 6.39-.374.98-.56 4.31.14 4.31.905 0 1.78 1.62 2.7 4.76 2.7 3.98 0 4.96.334 7.93 2.689 1.42 1.12 3.42 2.139 4.78 2.43 1.55.332 2.35.777 2.35 1.31 0 1.08-3.09.724-8.68-.998-2.76-.853-5.88-1.394-9.62-1.672-20.67-1.536-29.21-6.418-12.22-6.99Zm-175.09 8.171c-2.56-2.163-.44-6.432 3.87-7.781 4.33-1.358 10.6.189 10.6 2.615 0 4.328-10.87 8.21-14.47 5.166Zm242.77-.188c2.73-1.066 7.25-3.343 10.04-5.059 5.43-3.33 7.48-3.773 7.88-1.706.27 1.377-3.16 3.543-9.43 5.95-4.28 1.647-15.21 7.67-15.21 8.384 0 .227 2.53.271 6.14.106 6.12-.279 6.13-.277 4.84.568-.75.496-2.2.85-3.48.856-2.32.01-7.73 1.29-8.48 2.008-.24.234-3.23.92-6.64 1.525-3.4.605-9.05 1.649-12.56 2.32-11.19 2.146-14.78 1.955-8.08-.43 1.58-.566 4.5-1.783 6.47-2.706 1.97-.923 4.73-2.199 6.14-2.835 1.4-.637 3.63-1.717 4.94-2.4 1.32-.685 3.88-1.684 5.7-2.221 1.82-.537 4.09-1.301 5.04-1.7.96-.397 3.97-1.594 6.69-2.66Zm-130.09-7.014c-.24.139-.85.154-1.36.033-.56-.134-.4-.233.43-.254.75-.017 1.16.082.93.22Zm309.1 3.428c-1.43 1.344-4.12.918-4.38-.694-.22-1.363-.15-1.405 1.77-1.124 2.78.408 3.55.94 2.61 1.818Zm-466.21 3.868c.38 0 .87-.414 1.09-.92.41-.915.42-.915 2.03-.11.89.447 1.7.824 1.78.84.29.054-5.55 4.57-7.43 5.747-2.94 1.845-5.86 1.114-4.43-1.112.77-1.2 5.85-4.445 6.96-4.445Zm263.54 1.618c-4.6.817-5.47.11-2.47-2.005 1.89-1.329 6.02-1.829 7.04-.853.84.802-1.61 2.334-4.57 2.858Zm45.25 1.737c-.55.509-.68.449-.69-.314-.01-.52.31-.944.69-.944.89 0 .89.445 0 1.258Zm-310.06 3.755c0-1.385.26-1.509 6.36-2.977 6.94-1.67 7.66-.924 2.03 2.094-5.27 2.819-8.39 3.147-8.39.883Zm591.51-1.82c-1.46.331-3.45-.135-2.88-.674.24-.232 1.04-.422 1.77-.422 1.74 0 2.52.774 1.11 1.097Zm-529.57.583a.58.58 0 0 1 0-.84c.56-.537 3.18-.55 3.18-.015 0 .635-2.66 1.351-3.18.855Zm334.49 3.15c0-.522 6.39-3.609 8.5-4.103 3.28-.773 4.25.382 1.78 2.125-3.34 2.347-10.28 3.684-10.28 1.978Zm-205.61-1.53c-.74-.084-1.47-.389-1.63-.677-.42-.749.89-.649 2.01.153.82.586.77.656-.38.524Zm338.68.082c-.89.977-2.34.887-2.69-.165-.16-.509.28-.7 1.62-.7 1.65 0 1.76.095 1.07.865Zm-512.16.76c2.34-.146 5.04-.464 6.02-.708 3.28-.822 7.78.071 7.78 1.541 0 .56-4.03 2.384-6.81 3.084-2.51.632-9.14 4.764-10.8 6.73-.99 1.176-1.56 1.377-4.21 1.49-7.35.314-9.25-4.02-2.24-5.118 2.63-.413 5.21-2.626 5.64-4.838l.37-1.918 4.25-.264Zm-103.86 6.709c-11.46 3.41-18.85.858-14.2-4.902l1.96-2.43 3.9.15c12.67.486 17.34 4.504 8.34 7.182Zm300.66-7.075c-1.98.505-7.26.505-7.79 0-.27-.265 1.34-.409 4.39-.39 3.35.02 4.39.14 3.4.39Zm334.56 3.775c-1.58 0-2.49-.628-1.84-1.259.69-.658 1.66-.494 2.48.42.64.707.54.839-.64.839Zm-514.4 4.465c-3.44-1.76-2.85-3.094 1.94-4.415 3.72-1.024 7.18-.991 7.52.07.7 2.194-3.71 7.238-5.89 6.741-.69-.156-1.06.014-1.06.485 0 .616-.17.642-1.13.172-1.02-.504-1.01-.603.13-1.096 1.15-.5 1.03-.653-1.51-1.957Zm-42.78 2.245c-7.04 0-8.57-3.88-2.13-5.403 2.69-.635 2.8-.598 4.3 1.402 2.01 2.703 1.31 4.001-2.17 4.001Zm535.92-1.83c-2.4.285-2.97-.368-.93-1.072.68-.235 2.35-.433 3.7-.44 3.02-.016 1.06 1.06-2.77 1.513Zm-315.56 2.09c-.02-.72.46-1.638 1.05-2.042.59-.404 1.33-.734 1.65-.734.87 0 5.54 1.436 5.56 1.71.03.441-5.97 4.051-7.53 4.524-1.05.32-1.41.728-1.16 1.305.41.925-1.19 1.523-2.98 1.116-.87-.199-.66-.632 1.18-2.407 1.3-1.25 2.24-2.717 2.23-3.472Zm-358.37-.854c.04.489.21.588.43.254.21-.303.18-.665-.05-.804-.24-.14-.41.108-.38.55Zm232.22.943c1.82.674 2.82.62 6.4-.34 6.29-1.691 9.65-.225 6 2.614-1.02.793-1.86 1.754-1.86 2.135 0 .4-.56.695-1.33.695-.73 0-2.4.267-3.72.593-1.32.327-4.94.64-8.05.697-4.12.075-6.62.364-9.2 1.065-3.85 1.047-8.93 1.926-9.43 1.631-1.41-.832 2.53-3.294 5.89-3.69 1.27-.149 1.29-.2.21-.48-.71-.184-2.17-.03-3.53.372-2.16.639-2.38.636-3.21-.042-2.63-2.126 2.18-3.696 7.04-2.301 4.26 1.222 4.47 1.193 9.25-1.271 3.62-1.864 4.4-2.1 5.54-1.678Zm81.76 1.122c-1.4-.633-2.55-1.317-2.55-1.52 0-.6 3.44-.423 5.79.298l2.18.668-1.44.852-1.44.853-2.54-1.151Zm456.57-1.02c-.22-.213.16-.474.84-.58 3.3-.51 6.27-.294 4.83.353-1.53.686-5.05.827-5.67.228Zm-500.28 5.8c-4.68.966-6.89-.162-4.52-2.308 1.26-1.138 3.12-1.085 5.51.156 1.83.952 1.51 1.634-.99 2.152Zm329.28.038c-1.46-.533-.69-.827 5.48-2.079 5.89-1.197 7.27-1.073 7.27.655 0 1.153-1.97 2.007-6.11 2.652-1.6.251-3.67.804-4.6 1.23-2.88 1.327-4.67.295-2.24-1.294 1.03-.675 1.06-.848.2-1.164Zm-271.17-1.675c-.37 0-.67-.189-.67-.419 0-.231.5-.42 1.11-.42.6 0 .9.189.66.42-.24.23-.73.419-1.1.419Zm-134.46 2.297c1.75-.157 4.93-.637 7.08-1.067 4.05-.814 5.05-.836 5.46-.122.27.487-5.21 1.458-14.04 2.485-5.75.67-6.04.756-5.74 1.703.32.972.27.981-1.71.369-1.11-.345-2.44-.628-2.95-.629-3.6-.011 5.93-2.204 11.9-2.739Zm243.78 2.524c-5.95 1.838-11.73.267-9.53-2.591.71-.924 1.11-1.026 3.1-.779 1.25.156 5.05.421 8.44.588 3.4.168 6.37.424 6.62.57.59.35-3.49 1.585-5.23 1.585-.76 0-2.29.282-3.4.627Zm409.77 1.131c-.62.366-3.4-.645-11.12-4.034-2.87-1.261 2.61-.706 7.08.715 4.12 1.313 5.51 2.451 4.04 3.319Zm-591.26-3.128c-2.17-.358-2.3-.451-1.06-.748 1.97-.472 2.05-.468 3.51.167 1.8.776.54 1.074-2.45.581Zm17.6 2.764c-3.77.877-4.99.438-2.32-.831 2.37-1.123 3.34-1.213 4.46-.416.63.449.19.706-2.14 1.247Zm482.84-.136c-2.43 0-2.77-.699-.47-.962 2.84-.324 3.98-.303 4.38.08.5.482-1.27.882-3.91.882Zm-412.07 2.029c1.43-.514 2.86-1.18 3.17-1.481.7-.681 1.38-.693 2.48-.044 1.25.743 1.03 1.732-.57 2.545-.78.395-1.42 1.192-1.42 1.771 0 .609-.4 1.052-.96 1.052-1.79 0-4.59 1.678-5.44 3.258-1.17 2.16-1.89 2.52-3.09 1.543-1-.803-1.04-.801-2.71.127-2.15 1.197-2.37 1.186-4.44-.209-2.51-1.686-2.24-2.008 2.87-3.439 3.31-.926 5.05-1.71 6.07-2.743.8-.795 2.61-1.866 4.04-2.38Zm-150.63-.141c-.05.622-1.63.508-2-.145-.2-.353.12-.51.86-.42.65.08 1.17.334 1.14.565Zm247.09 2.307c-1.68 0-2.34-.532-1.76-1.431.48-.742 1.55-.842 3.04-.283 1.35.505.45 1.714-1.28 1.714Zm346.28-.076c-1.2.102-1.58-.075-1.58-.734 0-.653.45-.868 1.82-.868 2.32 0 2.11 1.403-.24 1.602Zm-604.43 6.434c2.54-2.917 6.41-4.93 10.67-5.559 6.85-1.009 8.35.467 2.38 2.346-2.2.692-5.3 1.875-6.88 2.629s-3.88 1.489-5.1 1.634l-2.22.263 1.15-1.313Zm86.25-4.43c-.21-.127.02-.518.51-.87.8-.574 4.26-.931 4.26-.44 0 .35-4.36 1.55-4.77 1.31Zm-43.75.831c-2.99.742-3.25.688-2.69-.576.3-.678.94-.925 2.41-.925 3.05 0 3.2.78.28 1.501Zm547.07 1.5c-4.72.158-7.96-.753-7.96-2.244 0-.224.4-.307.88-.185.49.123 2.72.563 4.96.979 4.42.82 5.19 1.348 2.12 1.45Zm-499.87 2.636c-1.82-1.368-1.87-1.773-.34-2.773 1.9-1.241 5.68-1.005 7.9.491 1.73 1.168 2.22 1.26 6.84 1.283l4.97.024-3.63.979c-8.13 2.189-12.83 2.188-15.74-.004Zm199.08.69c3.23.691 4.39.148 5.03-2.356.26-1.031.73-1.874 1.05-1.874 1.17 0 1.36 1.85.33 3.308-1.03 1.452-1 1.522.74 2.276 4.81 2.073-.99 2.122-6.45.054-4.3-1.629-4.6-2.245-.7-1.408Zm-370.27 2.352c4.88.298 5.85-.307 4.99-3.116-.76-2.469-3.18-2.837-7.51-1.139-4.91 1.926-3.76 3.871 2.52 4.255Zm322.94 3.132c-3.53-.157-10.02-3.555-8.14-4.267 3.96-1.496 10.37.251 10.76 2.933l.22 1.46-2.84-.126Zm-59.09-.903c-3.09-.494-4.42-1.518-2.78-2.136 1.8-.674 4.61-.4 6.2.602 2.3 1.446.65 2.183-3.42 1.534Zm87.02.836c-.37 0-.67-.189-.67-.42 0-.23.5-.419 1.1-.419.61 0 .91.189.67.419-.24.231-.74.42-1.1.42Zm-248.09.976c1.95-.052 5.13-.364 7.08-.693 1.95-.329 4.34-.615 5.31-.634l1.77-.035-1.95.628c-3.26 1.047-16.12 3.575-16.84 3.311-2.72-.996-.11-2.45 4.63-2.577Zm96.9 3.363c-.23-.541-.22-1.47.04-2.064.45-1.073 5.73-1.227 11.2-.326 3.71.612-1.46 2.762-9.38 3.899-6.56.942-9.66.934-4.33-.011 2.53-.449 2.83-.635 2.47-1.498Zm73.09-1.791c3.85.007 7.38-.229 9.11-.61 3.95-.865 6.3-.82 7.78.15 1.22.799 1.22.84-.07 1.104-.73.151-3.25.738-5.58 1.304-9.81 2.378-14.57 3.092-19.76 2.965-5.31-.129-6.71-.855-3.49-1.806.84-.249 2.47-1.052 3.63-1.785 2.06-1.306 2.23-1.332 8.38-1.322Zm163.17.388c-.39 0-.9-.189-1.14-.42-.25-.231-.12-.419.27-.419.38 0 .9.188 1.14.419.24.231.12.42-.27.42Zm-305.9 2.341c0-.327.87-.975 1.94-1.442 1.64-.711 2.11-.757 2.92-.285 1.19.69.48 1.483-1.32 1.483-.74 0-1.53.188-1.77.419-.65.62-1.77.509-1.77-.175Zm-24.07.408c0-.922.34-1.042 3.36-1.183 6.57-.307 7.76-.288 6.19.1-7.47 1.853-9.1 2.275-9.46 1.782-.1-.152-.09-.39-.09-.699Zm53.87-.47c-.21-.125.08-.403.66-.618 1.68-.629 2.58-.434 1.09.235-.75.336-1.54.509-1.75.383Zm292.72.281c-.94-.619-1.01-.845-.29-1.016 1.7-.401 2.54-.294 2.98.377 1.04 1.612-.61 2.003-2.69.639Zm-69.48 1.634c.55 0 .74-.455.54-1.258-.29-1.197-.19-1.259 2.21-1.259 2.62 0 3.57.475 3.76 1.888.07.461.35 1.261.62 1.777.73 1.372-1.2 1.63-5.8.771-3.63-.678-4.49-1.919-1.33-1.919Zm-211.98 4.804c0-.554 1.03-1.479 2.5-2.244 5.99-3.116 10.98-.057 7.05 4.32-1.86 2.078-2.18 3.404-1.08 4.442.5.462.09.984-1.56 1.992-5.86 3.582-12.87-.933-8.68-5.595.97-1.085 1.77-2.396 1.77-2.915Zm-17.55 2.57c-3.88.367-3.89-.269-.05-1.919 2.86-1.226 7.68-1.768 7.68-.863 0 .788-4.71 2.505-7.63 2.782Zm170.42-.94c-2.32-.276-2.75-.823-.85-1.103 2.08-.307 7.26-.212 7.26.133 0 .58-4.26 1.224-6.41.97Zm154.83 5.31c-3.55 0-4.31-2.425-1.57-4.994 2.17-2.034 2.77-2.099 5-.535.92.65 3.05 1.437 4.73 1.747 15.55 2.874 17.77 7.796 2.47 5.478-2.97-.45-6.03-1.016-6.79-1.258-.76-.241-2.49-.438-3.84-.438Zm-61.87.671c-4.26-.297-5.62-.712-4.83-1.474.62-.587.86-.579 5.22.19 5.06.89 4.83 1.648-.39 1.284Zm97.98.601c-8.68.74-8.31.279 1.2-1.512 5.95-1.119 8.24-1.241 8.24-.44 0 .794-2.89 1.392-9.44 1.952Zm-114.45 4.246c-3.7-1.623-2.65-3.592 2.13-3.967 5.27-.413 12.37.839 16.28 2.869.58.303 2.81.896 4.95 1.316 7.33 1.438 3.84 4.814-3.73 3.617-2.03-.322-6.28-.623-9.43-.67-5.64-.084-8.08-.607-8.08-1.735 0-.275-.95-.918-2.12-1.43Zm229.22-1.401c-3.58-.912-4.2-1.414-2.15-1.731 2.08-.323 2.33-.311 8.24.392 8.53 1.013 11.37 2.133 8.73 3.434-1.02.503-9.1-.639-14.82-2.095Zm-511.15 1.232c-.48-.095-.99-.621-1.13-1.168-.21-.869-.1-.925.89-.44 1.33.657 1.52 1.857.24 1.608Zm-32.03 4.297c1.59-1.816 1.34-2.893-.75-3.366-1-.224-1.88-.409-1.96-.409-.08 0-1.73.628-3.67 1.395-4.7 1.855-5.51 1.994-7.69 1.323-1.59-.487-1.86-.483-1.86.025 0 .328.88.705 1.95.838 1.07.133 3.9.676 6.28 1.208 4.84 1.08 6.01.927 7.7-1.014Zm516.12 0c-1.12 0-1.52-.878-.64-1.398.66-.389 2.53-.338 3.7.101 1.1.414-.98 1.297-3.06 1.297Zm-422.77 1.885c1.36-.338 2.68-.806 2.92-1.04.56-.532.61-.531 2.8.062 2.89.778.84 1.766-4.77 2.306-3.44.331-4.08-.555-.95-1.328Zm-8.48 1.471c-.59 0-.87-.189-.63-.42.24-.231.92-.419 1.5-.419.59 0 .87.188.63.419-.25.231-.92.42-1.5.42Zm251.74.931c0-.259.56-.663 1.24-.898 2.15-.741 5.73-.521 7.37.453l1.53.906-1.58.762c-4.35 2.086-12.88 2.076-9.69-.012.63-.407 1.13-.952 1.13-1.211Zm-120.1 3.495c-7.41 2.812-12.25.978-5.49-2.082 3.67-1.661 6.72-1.939 9.34-.853 1.65.687 2.09 1.444.83 1.444-.41 0-2.51.672-4.68 1.491Zm-140.94-.652c1.4 0 3.66-.49 5.52-1.198 3.3-1.254 3.93-1.32 3.3-.35-.67 1.042-15.37 4.144-15.37 3.245 0-.669 3.97-1.697 6.55-1.697Zm31.39.976c-1.35.307-3.39-1.106-2.84-1.963.53-.813 1.8-.893 2.99-.187 1.15.683 1.07 1.873-.15 2.15Zm492.6.702c-1.25 0-1.35-.699-.13-.957.49-.103 1.13-.106 1.43-.006.8.271-.12.963-1.3.963Zm-524.22 2.654c-.45-.266-.6-.689-.34-.94.56-.536 1.58-.595 2.07-.121.69.653-.84 1.587-1.73 1.061Zm-18.48 1.876c-.57-.53-1.25-1.295-1.5-1.699-.79-1.282 1.7-.839 6.53 1.158 2.5 1.036 4.95 1.883 5.43 1.883 1.5 0 5.57 3.178 7.34 5.738 2.53 3.657 6.85 4.183 15.14 1.842 4.3-1.211 13.74-1.948 15.05-1.173.73.434-1.68 1.875-5.74 3.426l-3.54 1.352-8.01-.245c-7.47-.228-8.1-.186-9.38.621-1.81 1.141-1.75 1.304.75 2.07 1.17.358 2.13.835 2.13 1.059 0 .868-3.61.35-5.91-.849-3.56-1.85-9.66-.829-11.94 1.998-1.56 1.923-5.09 1.643-5.38-.426-.22-1.558-.2-1.572 2.41-1.572 3.01 0 8.78-1.804 8.78-2.744 0-.337-.3-.612-.66-.612-.36 0-1.56-.208-2.66-.463-6.06-1.409-10.75-.812-18.13 2.309-6.83 2.885-14.89 3.809-12.85 1.472 1.49-1.709 1.06-2.199-2.53-2.902-3.53-.69-4.94-1.421-4.94-2.564 0-1.147 5.37-.773 9.75.679 2.13.705 3.04 1.026 3.9.947.73-.067 1.42-.413 2.79-1.051 1.35-.634 4.15-1.53 6.22-1.992 3.98-.891 6.32-2.825 6.35-5.263.01-.589.39-1.287.83-1.552.61-.363.56-.72-.23-1.447Zm190.2-.986 3.54-.695c4.49-.879 5.31-.9 5.31-.131 0 .77-2.45 1.161-6.08.97l-2.77-.144Zm-112.73 8.2c-.54 0-.82-.142-.64-.315.59-.572 11.74-.19 12.81.439.54.321 1.92.814 3.07 1.096 1.15.282 2.52 1.019 3.04 1.638.52.62 1.44 1.489 2.04 1.931 1.02.75.99.78-.32.435-.78-.203-3.99-.399-7.13-.436-5.67-.067-8.75-.392-8.86-.937-.03-.157-.12-.826-.2-1.485-.15-1.207-2.02-2.366-3.81-2.366Zm52.29 6.71c-2.18 0-5.89-1.2-5.34-1.729.49-.468 7.2-.284 11.89.325l2.75.356-2.71 1.142c-2.41 1.016-2.84 1.074-3.86.524-.64-.34-1.86-.618-2.73-.618Zm-9.56 3.372c7.36-.19 14.48-.535 15.85-.767 4.68-.797 14.16-.325 14.16.706 0 1.849-2.24 2.872-7.26 3.325-7.43.669-24.38 1.465-25.15 1.18-.37-.133-1.73-.061-3.03.16-1.87.318-2.73.251-4.17-.327-.99-.401-2.6-.83-3.58-.953-1.38-.176-1.72-.452-1.57-1.25.32-1.651.76-1.713 14.75-2.074Zm-60.18 2.909c.04-1.032.11-2.018.17-2.191.14-.414.88-.397 3.37.078 1.13.216 4.36.61 7.18.876 2.83.267 5.13.631 5.13.81 0 .811-6.71 3.374-8.83 3.374-1.23 0-3.91.294-5.95.654-5.6.985-7.4.679-3.9-.665 2.5-.96 2.76-1.234 2.83-2.936Zm214.64 3.827c-.26.462-2.88-2.435-3.73-4.131-.26-.519-.28-.944-.03-.944.67 0 4.05 4.561 3.76 5.075Zm-184.34-1.831c-.24-.139-.18-.491.13-.783.44-.428.61-.428.85-.002.34.608-.35 1.16-.98.785Zm3.19 4.292c-3.49-.858-2.04-2.918 2.64-3.749 5.03-.893 8.83.364 7.67 2.538-.59 1.092-7.49 1.903-10.31 1.211Zm-7.1-2.503c-.39 0-.51-.188-.27-.419.24-.231.75-.419 1.14-.419.39 0 .52.188.27.419-.24.231-.75.419-1.14.419Zm109.94 1.424c-3.66-.548-3.66-1.34 0-1.535 1.12-.059 2.38-.124 3.33-.172l1.14-.056c.78-.037 1.9.119 2.48.346 2.3.894-3.09 1.993-6.95 1.417Zm-171.69-.06c-.19.288-.35.052-.35-.525 0-.576.16-.812.35-.524.2.289.2.76 0 1.049Zm9.82 1.992c-5.9 0-6.44-.311-3.86-2.25 2.1-1.581 8.1-1.613 10.57-.057 1.28.813 1.41 1.049.55 1.049-.61 0-1.29.283-1.52.629-.31.482-1.65.629-5.74.629Zm77.89-1.258c-.56 0-1.21-.189-1.45-.42-.24-.231.21-.419 1.02-.419.8 0 1.45.188 1.45.419 0 .231-.45.42-1.02.42Zm100.14 2.856c-.59-.11.85-.495 3.18-.857 5.61-.87 10.3-.893 13.79-.066 4.72 1.12 3.36 1.841-3.48 1.841-2.25 0-5.08.206-6.29.457-1.85.382-2.53.324-4.18-.36-1.08-.449-2.44-.905-3.02-1.015Zm-188.32.704c-.7-.496-.69-.754.01-1.254.84-.604 3.54-.893 3.54-.38 0 .96-2.73 2.218-3.55 1.634Zm111.07.639c-6.13.399-9.47-.497-7.1-1.904.25-.148 2.21-.138 4.35.022 2.14.16 4.76.328 5.82.373 5.09.217 3.3 1.094-3.07 1.509Zm123.75.803c-3.24.73-13.24-.559-13.24-1.708 0-.278.89-.359 2.31-.212 1.26.132 4.49.431 7.18.666 5.67.497 6.25.691 3.75 1.254Zm95.44.849c-.9 1.674-9.57.724-9.57-1.048 0-.975.22-1.029 4.16-1.029 4.57 0 6.19.623 5.41 2.077Zm-383.88-.825c1.46.004 2.66-.182 2.66-.413 0-.534-2.86-.534-4.25 0-.79.303-.38.408 1.59.413Zm65.79 1.547c.65-.352 2.08-.704 3.18-.783 3.54-.254 4.63.074 4.14 1.241-.44 1.036-.41 1.043 3.52.85 4.49-.22 5.38.707 1.42 1.484-1.17.23-2.48.705-2.92 1.057-.44.352-2.83.885-5.31 1.184-6.75.814-13.66 2.993-13.93 4.393-.39 1.974-2.28 2.534-9.31 2.759-6.87.218-7.41.073-4.59-1.238 1-.464 1.66-1.074 1.48-1.353-.18-.281.44-.851 1.37-1.267.94-.417 1.71-1 1.71-1.297 0-.697 3.38-2.279 4.87-2.279 1.24 0 12.41-3.696 14.37-4.751Zm-42.57 3.634c-.75-.568-1.73-1.681-2.17-2.474-.95-1.703-1.05-1.715-4.18-.497-1.33.518-3 1.148-3.71 1.399-1.7.602-.91 1.011 1.96 1.011 2.17 0 4.29.808 2.27.865-2.05.06 2.18.729 4.6.729h2.6l-1.37-1.033Zm39.99-3.35c-.58.13-1.23.055-1.46-.165-.23-.221.24-.401 1.04-.401 1.71 0 1.88.233.42.566Zm137 1.95c-.37 0-.87-.188-1.11-.419-.24-.231.06-.419.67-.419.61 0 1.1.188 1.1.419 0 .231-.3.419-.66.419Zm-201.76 4.436c.45.739.57.714 1.37-.301 1.34-1.699.23-2.458-2.45-1.677-1.86.541-1.95.645-.76.891.74.154 1.56.643 1.84 1.087Zm120.3-1.08c-.94 0-1.41-.28-1.41-.839 0-.559.47-.839 1.41-.839.95 0 1.42.28 1.42.839 0 .559-.47.839-1.42.839Zm180.88-.013c-.39 0-1.19-.183-1.77-.407-.59-.223-.75-.406-.36-.406s1.19.183 1.77.406c.59.224.75.407.36.407Zm213.97 2.846c-.49-.095-.98-.63-1.09-1.188-.19-.984-.16-.991.89-.202 1.31.986 1.4 1.625.2 1.39Zm-517.13 3.439c-.26-1.694-.09-2.688.53-3.129.49-.356.77-.724.61-.819-.16-.095-1.4.75-2.75 1.878-2.28 1.897-4.24 2.667-4.24 1.67 0-.827-3.5-.422-4.54.524-1.31 1.205-2.17 3.242-1.38 3.279 11.63.546 12.34.339 11.77-3.403Zm21.61 1.475 2.73-1.094c2.72-1.091 4.63-1.163 7.53-.283 1.6.486.95 1.169-.85.891-.89-.138-1.62.09-2.15.668-.89.989-2.28 1.077-5.24.329l-2.02-.511Zm524.29 1.884c-2.45-.552-1.45-1.255 2.34-1.646 4.56-.472 7.75.84 4.06 1.672-2.33.523-3.99.517-6.4-.026Zm-511.29 2.951c-1.05 0-3.64-2.47-3.64-3.471-.01-.695.14-.701 2.15-.082 2.5.765 3.29 1.65 2.18 2.444-.43.307-.58.681-.32.833.26.152.09.276-.37.276Zm79.49-2.348c-2.47-.789-2.81-1.063-1.96-1.566 1.48-.876 6.61-.269 6.61.782 0 1.435-1.7 1.722-4.65.784Zm51.71 1.302c.26-.691.81-1.493 1.22-1.782.4-.29 1.01-.527 1.36-.527 1.14 0 .58 1.038-1.25 2.307l-1.81 1.258.48-1.256Zm240.41.957c-6.78-.134-5.98-.881 1.71-1.581 6.05-.551 8.14-.496 8.14.213 0 1.032-3.34 1.496-9.85 1.368Zm-206.06 1.391c0 1.33-8.48-.082-11.28-1.877l-1.71-1.102h3.99c3.89 0 9 1.691 9 2.979Zm250.95 2.303c-7.36-.362-10.31-3.207-4.73-4.566 3.5-.851 3.51-.85 7.59.275 1.96.541 5.06 1.117 6.9 1.28 4.25.377 8.07 2.121 6.73 3.075-.88.631-2.47.624-16.49-.064Zm-204.66-.144c-2.79-.791-3.02-1.255-.84-1.733 3.31-.725 10.04 1.179 8.71 2.462-.63.603-4.38.255-7.87-.729Zm-135.7-.288c-1.08-.144-1.78-.444-1.55-.668.64-.612 6.25-.49 7.77.168 1.55.673-.57 1.35-3 .959-.69-.109-2.13-.316-3.22-.459Zm313.11.184c1.36-.029 4.55-.306 7.08-.615 9.05-1.106 13.45-.607 9.83 1.116-1.49.712-2.53.783-8.77.599-7.42-.218-13.16-.994-8.14-1.1Zm-248.3 3.699c-2.85-.421-3.93-1.339-2.54-2.162.75-.444 2.7-.329 5.28.311 1.31.325 3.28.491 4.36.368 2.59-.293 5.18.956 3.9 1.873-.91.649-4.94.506-11-.39Zm-58.11-.947c.13-.062.87-.324 1.65-.582 1.7-.562 1.72-.562 4.51-.232 3.42.406 2.16 2.779-1.47 2.779-1.53 0-5.41-1.624-4.69-1.965Zm89.83-.237c-1.19 0-2.17-.189-2.17-.419 0-.231.78-.42 1.73-.42s1.92.189 2.16.42c.26.244-.46.419-1.72.419Zm-158.26 3.461 1.23-1.521c1-1.251 1.6-1.52 3.36-1.52 2.43 0 2.61.248.97 1.322-1.6 1.046-.41 1.796 3.83 2.425 7.87 1.167 9.28 1.456 14.55 2.982 3.04.882 5.92 1.793 6.38 2.023 1.92.945 9.17 2.976 11.57 3.243 1.41.157 3.4.541 4.41.854 1.01.312 2.21.568 2.67.57 1.97.005 9.43 2.252 9.43 2.838 0 .69-4.81.483-5.61-.242-.68-.613-3.4-1.336-5.03-1.336-.84 0-2.47-.397-3.62-.883-3.75-1.582-9.22-2.648-13.29-2.592-3.23.043-4.05-.104-5.12-.915-.71-.531-2.33-1.082-3.6-1.224-3.69-.409-17.34-3.835-19.84-4.98l-2.29-1.044Zm43.75-2.392c.46.102 1.8.01 2.97-.204 3.12-.571 4.82-.356 5.72.724.44.528 1.53 1.418 2.42 1.98 2.96 1.861 1.05 2.424-7.46 2.202-7.34-.193-16.25-1.958-14.65-2.903.89-.529 10-2.018 11-1.799Zm332.5 3.15c0 1.177-2.43 1.016-7.08-.469l-3.89-1.243 4.96.266c5.77.31 6.01.369 6.01 1.446Zm-100.89 8.36c-4.22-.95-3.31-3.353 1.76-4.685 2.91-.763 7.1.342 7.1 1.869 0 1.832-5.49 3.576-8.86 2.816Zm-424.63-.781c2.77 1.432 8.74 1.187 8.74-.358 0-.765-4.73-1.06-8.51-.531-1.48.206-1.49.236-.23.889Zm334.39.1c0-.469.23-.996.53-1.17.29-.175.64.003.77.394s-.1.918-.53 1.17c-.56.332-.77.223-.77-.394Zm195.73-.573c-1.97.502-4.06.502-3.53 0 .24-.231 1.45-.406 2.69-.391 1.91.026 2.04.087.84.391Zm106.31 2.866c-3.11-.494-3.99-1.057-2.77-1.788.74-.445 6.5-.017 7.46.555 1.79 1.062-1.05 1.81-4.69 1.233Zm-472.3 5.769c-.94.14-1.95-.092-2.79-.643-1.96-1.281 2.76-1.217 5.99.081 3.17 1.271 3.7 2.297.62 1.187-1.31-.472-3-.747-3.82-.625Zm152.2.172c-.58 0-1.06-.183-1.06-.406 0-.223.48-.297 1.06-.165.59.133 1.07.316 1.07.406 0 .091-.48.165-1.07.165Zm41.85 2.936c-1.14 0 1.94-1.734 4.52-2.541 3.17-.994 4.79-1.078 3.54-.185-.48.346-1.18.629-1.54.629-.36 0-1.83.472-3.26 1.049-1.43.576-2.9 1.048-3.26 1.048Zm-160.07 2.314c-6.45-.285-12.8-2.076-9.89-2.79 3.24-.796 15.66.256 16.89 1.432 1.32 1.249-.68 1.636-7 1.358Zm216.45-2.343c1.65-.016 3.64-.192 4.42-.39 2.4-.612 7.18-.478 8.17.227 1.78 1.272-.17 1.573-8.12 1.253-7.35-.297-10.37-1.032-4.47-1.09Zm209.77 1.542c-1.29.294-4.12-.59-3.57-1.114.71-.682 4.58-.476 4.58.243 0 .354-.45.746-1.01.871Zm-544.79.769c0-.305-.24-.638-.54-.74-1.57-.548-5.28-.758-5.01-.284.44.791 5.55 1.733 5.55 1.024Zm51.29 2.706c.98.58 1.09.562 1.08-.18-.02-1.322-1.11-2.099-1.69-1.203-.28.438-.03 1 .61 1.383Zm244.71 9.465c-4.53.852-16.38-5.328-16.38-8.544 0-2.376 2.66-1.548 10.47 3.268 7.07 4.351 7.72 4.935 5.91 5.276Zm-237.72-3.102c-.61-.822-1.26-1.825-1.46-2.228-.51-1.037-1.61-.898-4.27.536-2.53 1.361-5.2 1.588-9.04.765-4.78-1.024-6.94.145-6.82 3.691.1 2.879 1.63 4.143 6.23 5.164 6.73 1.49 9.6.285 7.97-3.341-.21-.479.56-.679 3.24-.839 4.55-.27 5.84-1.435 4.15-3.748Zm98.99 3.747c-1.73-.002-6.49-1.378-6.49-1.88 0-.376 5.2-.228 7.97.226 3.96.652 3.07 1.657-1.48 1.654Zm38.39 3.215c-1.73-.88-1.87-1.114-1.05-1.697 1.81-1.299 5.33-.291 4.91 1.41-.34 1.388-1.53 1.476-3.86.287Zm-34.65 1.335c-.69-.08-1.4-.399-1.58-.709-.2-.361.14-.512.95-.42.69.08 1.4.399 1.57.71.21.361-.13.512-.94.419Zm-3.42.065c-.58 0-1.26-.189-1.5-.419-.24-.231.04-.42.63-.42.58 0 1.25.189 1.49.42.25.23-.04.419-.62.419Zm241.64 2.936c-.76 0-1.39-.189-1.39-.42 0-.839 14.77-.228 16.29.674 2.68 1.588-3.4 1.987-9.53.627-2.19-.484-4.6-.881-5.37-.881Zm-233.41 8.801c-3.05-.01-3.89-.504-3.05-1.811.81-1.263 2.25-1.432 3.89-.459 1.85 1.098 1.42 2.278-.84 2.27Zm256.37-.882c-4.73.065-10.19-.388-10.19-.846 0-.525 6.14-.371 10.27.257l3.54.539-3.62.05Zm-448.84 4.663c3.21 0 3.82-.714 2.46-2.847-1.46-2.282-4.36-2.423-5.86-.286-.6.842-1.73 1.631-2.51 1.752-.93.145-1.42.572-1.42 1.234 0 1.283 1.79 1.714 3.44.827.7-.373 2.45-.68 3.89-.68Zm203.19 17.302c-10.49-6.273-14.48-9.198-18.75-13.736l-2.37-2.517 5.22 2.726c2.87 1.5 8.27 4.889 12.02 7.531 3.74 2.643 8.24 5.447 9.98 6.233 3.4 1.525 5.58 3.468 5.63 5.005.05 1.628-1.12 1.106-11.73-5.242Zm21.28-14.804c-1.07-.525-1.06-.593.15-.857 1.67-.368 2.94.283 1.83.942-.62.368-1.1.347-1.98-.085Zm94.07 1.947c-.06-.023-.34-.561-.61-1.195-.41-.977-.26-1.152.97-1.152 1.3 0 5.77 2.316 5.78 2.996 0 .2-5.35-.365-6.14-.649Zm-100.05 3.734c1.19.846-1.04.846-3.54 0l-1.77-.599 2.22-.015c1.21-.008 2.61.268 3.09.614Zm237.51.839 2.12-.717c2.52-.851 3.83-.909 6.5-.288l2 .462-1.74.395c-.96.218-3.35.34-5.31.272l-3.57-.124Zm-396.3 10.197c-1.98-.167-2.18-4.633-.31-7.156.45-.614.67-1.036 1.01-1.247.73-.448 2.03.042 7.4 1.623 3.65 1.072 8.33 2.364 10.41 2.87 3.55.864 3.7.963 2.58 1.63-.95.562-1.41.606-2.22.208-1.38-.679-12.41-3.711-13.52-3.716-.61-.004-.88.773-.88 2.497 0 2.712-1.17 3.569-4.47 3.291Zm312.49-6.213c-.78 0-1.61-.188-1.85-.419-.24-.231.2-.419.98-.419s1.61.188 1.85.419c.24.231-.2.419-.98.419Zm-239.89 2.511c-1.77.007-2.03-.406-.74-1.168 1.02-.607 1.98-.629 3.4-.078 1.35.525-.17 1.236-2.66 1.246Zm-33.45 2.348c0 .74-1.52.612-1.96-.166-.15-.274.23-.498.84-.498.62 0 1.12.298 1.12.664Zm223.88.033c-.48.116-1.28.116-1.77 0-.48-.116-.09-.212.89-.212.97 0 1.37.096.88.212Zm59.35 3.301c-3.54-.295-10.68-2.147-10.68-2.771 0-1.098 15.46.031 16.1 1.176.6 1.071-2.11 1.871-5.42 1.595Zm42.81.615c-1.98 0-3.93-1.399-3.93-2.82 0-1.138 1.76-1.269 4.09-.301 2.31.959 2.2 3.121-.16 3.121Zm-332.99 3.447c-3.27-.442-10.04-2.369-10.04-2.857 0-.8 9.54.826 11.75 2.001.82.435 4.48 1.26 8.14 1.834 3.66.573 8.41 1.457 10.54 1.963l3.89.92-2.45.297c-1.35.163-2.7.208-2.99.099-.3-.108-2.38-.477-4.62-.819-2.25-.341-5.52-1.14-7.27-1.775s-4.88-1.384-6.95-1.663Zm258.77 5.522c-4.9-.499-8.29-1.93-8.29-3.502 0-1.123 7.41.232 9.57 1.75 2.14 1.51 1.74 2.059-1.28 1.752Zm-201.56.013c3.31-.15 10.96-.887 17-1.639 13.27-1.655 14.7-1.74 13.38-.798-1.6 1.144-14.73 3.094-20.93 3.108-3.72.009-4.86.479-3.85 1.591 1.07 1.189.99 1.339-.69 1.339-2.06 0-4.2-.756-4.2-1.483 0-.73-1.71-.774-7.48-.188-8.55.868-8.94.889-8.51.472.84-.798 9.33-2.132 15.28-2.402Zm405.24-.257c-2.3-1.195-2.44-1.376-1.27-1.649 2.92-.679 4.31-.216 4.94 1.648.58 1.724-.36 1.724-3.67.001Zm-564.97 3.751c-1.14-.16-1.08-.243.45-.619 2-.49 2.77-.324 1.62.353-.41.248-1.35.368-2.07.266Zm-72.92 2.225c-3.87-.644-5.89-1.604-4.49-2.128 2.1-.788 5.82-.113 7.09 1.284 1.09 1.216.6 1.376-2.6.844Zm23.67 2.378c-2.8-1.049-3.66-2.181-2.28-2.999.65-.382 2.32-.658 3.99-.658h2.87l-.46 2.059c-.53 2.343 2.8 4.651 6.71 4.651 2.78 0 9.13 3.094 6.72 3.276-2.33.175-7.04-1.288-11.74-3.651-2.14-1.076-4.76-2.281-5.81-2.678Zm295.14-1.714c-.65.384-3.17-.256-3.59-.911-.29-.437.11-.613 1.37-.613 1.64 0 3.1 1.002 2.22 1.524Zm-78.59 9.8c-1.43 0-13.59-6.132-14.49-7.308-.87-1.129 1.12-.974 2.33.18.23.23.93.418 1.53.418.61 0 2.14.519 3.4 1.153 1.26.635 3.26 1.466 4.45 1.847 3.68 1.176 5.58 3.71 2.78 3.71Zm-325.33-6.71c-.34 0-1.02-.283-1.51-.629-1.18-.849-2.12-.794-2.12.125 0 .416-.27.935-.61 1.154-1.73 1.128 4.76 6.899 7.75 6.899 2.54 0 1.5-4.949-1.41-6.669-.81-.484-1.76-.88-2.1-.88Zm345.6-.239c-.67.152-1.66-.012-2.27-.375-.98-.58-.9-.645.79-.645 2.23 0 3.16.639 1.48 1.02Zm-271.73.503c-.62-.142-.94-.448-.69-.681.57-.55 1.56-.538 2.15.025.65.625-.1.964-1.46.656Zm29.09 2.028c-.61-.552-1.11-1.102-1.11-1.22 0-.118 1.5.347 3.32 1.034 1.83.687 3.75 1.249 4.27 1.249 1.5 0-.95 2.461-2.99 3.013-3.93 1.06-7.64-1.029-4.2-2.364 1.73-.67 1.77-.758.71-1.712Zm190.1 6.407c-3.67-3.829-4.28-4.731-3.86-5.679.45-1.004 2.35.809 5.96 5.683 1.77 2.396.19 2.393-2.1-.004Zm-205.87-2.244c-2.12-1.723-.72-2.941 3.7-3.208 5.13-.31 5.64-.302 6.71.108.85.326.73.408-.61.413-1.27.005-1.5.137-.95.531.58.41-.02.493-2.74.379-3.71-.155-4.89.55-1.71 1.021 2.53.377 2.18.872-.86 1.209-2.07.231-2.81.136-3.54-.453Zm582.94-2.785c.44.775-2.42.644-2.93-.134-.32-.493-.04-.625 1.11-.524.84.073 1.66.37 1.82.658Zm-88.64 4.299c-.45 0-1.74-.567-2.86-1.259-2.28-1.412-1.18-1.725 1.84-.522 5.74 2.291 6.88 2.617 9.14 2.624 1.36.003 3.16.116 4 .25 1.6.254 6.32 3.415 5.67 3.799-.68.406-8-1.457-12.52-3.188-2.45-.938-4.82-1.704-5.27-1.704Zm-473.66 5.83c-2.34-2.677-.51-5.166 4.86-6.63 5.34-1.453 7.61-1.194 11.38 1.3l3.3 2.179-1.73.862c-.95.475-2.38 1.639-3.17 2.588-2.73 3.274-11.68 3.09-14.64-.299Zm68.29-4.991c-1.14 0 .03-.857 1.73-1.262 2.83-.678 3.65-.417 1.32.424-1.27.461-2.64.838-3.05.838Zm-91.35.406c-.63.007-1.55-.27-2.03-.616-1.13-.807.02-.815 1.81-.014 1.15.518 1.19.618.22.63Zm15.31.432c-.58-.287-1.06-.711-1.06-.941 0-.234.47-.189 1.06.103.58.287 1.06.71 1.06.941 0 .234-.47.188-1.06-.103Zm-6.5 3.775c-.47.284-3.76-2.019-3.76-2.629 0-.267.92.169 2.05.967 1.13.799 1.9 1.547 1.71 1.662Zm580.42 6.936c-9.24-4.396-10.83-8.726-3.33-9.118 2.42-.127 3.07.03 4.59 1.108.98.691 3.29 2.255 5.14 3.476 7.77 5.135 2.59 8.808-6.4 4.534Zm-518.15-7.519c-.19-.11-.13-.401.13-.647.69-.669 1.1-.539.62.2-.23.356-.57.557-.75.447Zm589.85-.304c-2.72.019-5.43-.148-6.02-.371-1.31-.504 6.55-.504 9.21 0 1.26.24.36.346-3.19.371Zm-10.66.468c-.61 0-.91-.189-.67-.42.25-.23.74-.419 1.11-.419.36 0 .66.189.66.419 0 .231-.49.42-1.1.42Zm-27.72 5.434c-5.03-.035-11.83-1.968-11.06-3.146.23-.355.61-.586.86-.512 5.59 1.681 6 1.763 6.28 1.265.45-.785 4.05-.633 5.88.249 2.36 1.132 1.41 2.167-1.96 2.144Zm-528.31 2.115c-.39 0-.7-.283-.7-.629 0-.346.31-.629.7-.629.39 0 .71.283.71.629 0 .346-.32.629-.71.629Zm35.35 7.145c-2.43.771-2.01-5.543.46-7.009 1.99-1.174 8.98-1.264 11.25-.144 2.19 1.076.92 5.406-1.82 6.218-1.49.44-2.49 1.074-2.64 1.666l-.23.955-2.12-1.06c-2.37-1.182-2.92-1.252-4.9-.626Zm123.26-6.083c-.42-.155-.56-.473-.32-.708.3-.286.7-.279 1.2.022.91.539.21 1.084-.88.686Zm278.57 3.552c-.98 0-3.22-1.522-3.22-2.191 0-.592 1.39-.339 2.83.513 1.66.987 1.83 1.678.39 1.678Zm-341.09-.969c-1.23.731-2.44.534-1.61-.261.26-.246.99-.448 1.64-.448 1.08 0 1.08.056-.03.709Zm310.89 1.066c-3.27-.105-6.24-.358-6.61-.564-1.14-.628 9.79-.443 11.25.191 1.12.484.46.536-4.64.373Zm19.16 2.942c-1.69-.104-4.93-1.841-4.93-2.643 0-.532.1-.521 3.89.441 3.67.933 4.37 2.406 1.04 2.202Zm-320.3.744c-1.34-1.535-1.33-1.583.17-1.816.69-.106 1.45-.214 1.71-.241.88-.092 4.13 2.533 4.13 3.339 0 1.612-4.28.699-6.01-1.282Zm-139.29 2.827c-1.22-.237-2.85-2.337-2.38-3.071.6-.926 2.35-.716 2.82.34.73 1.605.52 2.915-.44 2.731Zm19.52 4.219c-2.89-1.789-3.58-3.374-2.06-4.75 3.69-3.332 12.3 2.275 8.74 5.683-1.57 1.5 1.7 2.063 7.41 1.277 1.97-.272 2.84-.217 3.45.22 1.16.83-3.37 1.885-7.7 1.793-1.84-.038-5.9.274-9.04.695-6.08.818-8.1.68-8.1-.551 0-.745 3.34-1.775 5.75-1.775 3.22 0 3.9-1.14 1.55-2.592Zm50.32-4.23c-.23-.139-.18-.491.13-.783.45-.428.61-.428.85-.002.34.608-.35 1.16-.98.785Zm-88.77 5.774c7.76 1.622 15.23.571 13.64-1.921-.94-1.479-.9-1.483 2.23-.226 3.24 1.305 6.62 1.651 10.43 1.071 5.85-.893 8.61-.805 7.92.251-.47.739-3.74 1.339-9.09 1.669-7.76.478-19.05 1.926-24.42 3.133-8.72 1.955-10.2 2.009-12.6.454-1.87-1.213-2.28-1.295-5.09-1.028-2.23.211-2.92.158-2.56-.194.28-.265 1.58-.483 2.9-.483 1.32 0 2.58-.174 2.8-.387.22-.213 1.33-.508 2.46-.655 1.14-.148 2.9-.728 3.93-1.291 2.16-1.19 3.34-1.252 7.45-.393Zm504.35-.217c-1.9-.373-2.35-.609-1.64-.875 1.56-.584 4.16-.431 4.62.271.65 1-.14 1.16-2.98.604Zm-58.72.293 2.13-.303c4.45-.636 8-.264 6.65.697-.99.706-4.1.748-6.79.092l-1.99-.486Zm-167.46.553c-.41 0-.56-.189-.32-.42.25-.23.58-.419.75-.419.18 0 .32.189.32.419 0 .231-.34.42-.75.42Zm81.1 1.794 1.77-.451c2.64-.674 4.95-.609 4.95.138 0 .913-1.83 1.212-4.46.728l-2.26-.415Zm-487.71 2.911c2.38-.742 2.15-1.242-.45-1.016-1.65.144-2.64-.075-4.12-.917-1.07-.608-2.17-.978-2.43-.821-.96.567-.49 4.982.62 5.924 1.11.94 3.14 1.28 3.14.526 0-.223-.49-.293-1.1-.155-1.73.393 2.32-2.909 4.34-3.541Zm423.16 3.258c-2.73.019-3.91-2.335-1.47-2.917 1.16-.275 1.69-.404 2.2-.353.45.045.88.228 1.71.574 2.86 1.185 1.52 2.669-2.44 2.696Zm-152.43-.728c0 .477-2.38-.324-3.6-1.209-.89-.646-.74-.638 1.3.068 1.26.438 2.3.952 2.3 1.141Zm-289.62 5.767c-.93 0-1.34-.3-1.34-1 0-.736-.47-1.053-1.78-1.202-1.4-.158-1.72-.055-1.45.476.18.372.54 1.183.79 1.801.42 1.043.79 1.144 5.16 1.393 2.6.147 5.65.445 6.78.66 2.23.424 2.95.285 2.21-.422-.25-.247-1.48-.449-2.72-.45-1.24-.002-3.17-.285-4.29-.629-1.11-.345-2.63-.627-3.36-.627Zm51.21.889c-1.02-.323-1.29-.736-1.03-1.556.38-1.178.93-.886 1.91 1.018.46.874.36.932-.88.538Zm660.21.782c-6.5.013-7.25-.814-1.83-2.017 3.89-.862 5.85-.679 6.69.625.6.916-1.04 1.385-4.86 1.392Zm-189.32-.128c-1.18.246-4.13-1.333-3.54-1.895.58-.552 1.81-.62 3.01-.166 1.11.422 1.49 1.862.53 2.061Zm-366.7 4.329c-1.49 0-4.07-1.524-3.5-2.065.89-.862 4.43-.528 4.87.46.48 1.094.04 1.605-1.37 1.605Zm-136.12.419c1.26 0 1.36-.103.62-.629-.48-.346-1.16-.629-1.5-.629-.34 0-.62.283-.62.629 0 .362.64.629 1.5.629Zm662.38 3.755c-1.52-.41-4.1-2.356-4.1-3.091 0-.476 5.55 1.917 5.98 2.577.6.925.12 1.055-1.88.514Zm-344.55.458c-2.22-.665-4.46-1.507-4.97-1.872-1.34-.954-.18-.82 3.83.443 10.2 3.219 17.37 7.167 11.4 6.279-1.83-.272-2.18-.457-4.74-2.472-.81-.643-3.3-1.713-5.52-2.378Zm224.05 2.917c-.92 0-3.95-1.016-3.95-1.326 0-.711 2.81-.325 3.54.487.42.462.6.839.41.839Zm-22.35.413c-.9-.349-.91-.471-.08-.789 1.18-.451 5.22.278 4.63.836-.52.501-3.22.473-4.55-.047Zm-56.61 4.401c-.75.274-7.45-1.605-8.16-2.289-.73-.701 2.59-.473 5.83.4 2.95.793 3.69 1.392 2.33 1.889Zm-374.17.492c-1.45 1.311-2.88.743-2.19-.871.46-1.091 2.08-1.447 2.92-.641.26.24-.07.921-.73 1.512Zm89.57 1.495c0-.296.51-1.01 1.15-1.586.63-.576 1.31-.954 1.5-.841.19.112-.32.826-1.14 1.585-.83.76-1.5 1.139-1.51.842Zm8.46-1.348c.7 0 1.66-.283 2.15-.629 1.31-.939 5.53-.757 9.8.423 2.08.574 4.85 1.045 6.15 1.045 3.09 0 4.58.944 4.58 2.917 0 .88.47 2.141 1.06 2.802 1.35 1.536 1.35 4.484.01 7.111-.58 1.132-1.06 2.561-1.06 3.174-.01 1.069-.17 1.114-3.73 1.088-2.04-.014-5.79.033-8.32.105-5.84.169-9.44-.845-12.96-3.653-1.39-1.106-3.71-2.942-5.15-4.08l-2.62-2.07 1.33-2.334c1.44-2.516 6.46-5.899 8.76-5.899Zm-82.76 4.194c-1.93 0-3.44-1.21-2.12-1.703 1.35-.505 1.58-.492 3.11.171 1.5.647.92 1.532-.99 1.532Zm198.73 8.881c-7.93-2.326-15.42-5.431-15.42-6.397 0-1.034 12.98 2.721 18.56 5.369 1.83.871 4.06 1.895 4.95 2.275 4.03 1.721-.15 1.075-8.09-1.247Zm-281.88.975c1.51.678 4.53.837 4.53.239 0-.947-4.05-2.147-4.98-1.479-.74.525-.66.744.45 1.24Zm52.39 1.87c-2.39-1.241-3.18-2.407-2.08-3.058 1.19-.706 3.33.513 4.55 2.6 1.12 1.887.5 2.002-2.47.458Zm-61.32-1.034c.47.172 1.37.007 2-.367.95-.566.97-.677.11-.672-1.75.011-3.1.676-2.11 1.039Zm68.21 2.31c-2.02 0-2.88-1.011-1.64-1.902.79-.563 1.1-.553 2.74.088 1.01.397 3.62 1.233 5.79 1.858 4.09 1.176 7.47 3.311 5.25 3.311-1.34 0-6.43-1.495-8.76-2.574-.93-.43-2.45-.781-3.38-.781Zm-33.22 2.516c-2.92 0 1.91-3.695 5.49-4.196 1.3-.182 4.27-.344 6.61-.359l4.24-.028-1.87.929c-1.53.761-1.72 1.06-1.07 1.658 2.59 2.361-3.79 4.646-8.73 3.127-2.02-.622-4.13-1.131-4.67-1.131Zm588.81 3.308c-.78-.739-.73-.993.3-1.67 1.86-1.219 2.42-.973 2.42 1.076 0 2.017-.99 2.233-2.72.594Zm-545.16 9.275c-5.98 0-7.08-1.555-3.04-4.299 1.37-.932 2.13-.921 6.11.09 5.6 1.421 3.56 4.209-3.07 4.209Zm574.67-1.458c-2.95-.353-5.83-1.536-6.16-2.527-.32-.962 3.57-.606 6.27.574 2.85 1.246 2.79 2.301-.11 1.953Zm187.58.412c11.95-.575 24.26-1.107 27.38-1.182 15.96-.383 19.43.182 15.03 2.449-3.13 1.615-6.05 1.827-28.48 2.064-23.12.244-40.76.78-42.12 1.279-.47.174-4.09.356-8.04.404-5.7.069-7.95.285-10.9 1.047-2.73.705-3.96.84-4.63.508-2.22-1.09-8.14-1.002-18 .267-1.9.244-5.2.223-9-.056-5.43-.399-7.47-.311-21.08.897-8.61.765-22.36 1.617-32.06 1.986-9.35.356-18.43.822-20.18 1.035-13.8 1.677-48.6 2.86-61.18 2.078-10.21-.634-34.41-.075-45.01 1.04-3.3.348-9.04.82-12.74 1.048-3.7.229-9.68.628-13.3.886-16.63 1.19-26.71-2.195-10.7-3.595 17.85-1.561 28.04-2.31 37.1-2.726 5.45-.25 13.89-.731 18.76-1.069 12.91-.896 26.83-1.433 30.16-1.163 1.6.129 3.57.025 4.39-.235.94-.299 11.28-.618 28.59-.883 19.37-.296 28.61-.599 32.34-1.062 3.83-.476 10.93-.69 26.78-.806 18.8-.138 21.72-.246 22.85-.85 1.08-.582 1.75-.619 4.18-.231 2.24.358 4.3.316 9.24-.192 4.12-.424 12.62-.718 24.26-.84 9.85-.103 19.34-.373 21.09-.601 1.75-.228 5.52-.422 8.37-.433 2.86-.01 14.96-.489 26.9-1.064Zm-438.17 2.929c-3.11-.474-4.36-1.289-3.48-2.268 1.11-1.227 1.85-1.098 3.88.676 2.01 1.753 1.96 1.952-.4 1.592Zm243.66-.625c-1.56 0-2.47-.631-1.81-1.259.29-.28.9-.275 1.81.014 1.77.561 1.77 1.245 0 1.245Zm-580.65.413c-4.39.011-6.72-.979-3.25-1.375 2.88-.328 3.96-.301 5.95.147 2.52.569 1.09 1.219-2.7 1.228Zm523.22 3.362c-.36 0-.66-.189-.66-.419 0-.231.5-.42 1.1-.42.61 0 .91.189.67.42-.24.23-.74.419-1.11.419Zm-473.32 9.897c-.6.928-3.06.727-3.06-.25 0-.534.47-.839 1.3-.839 1.67 0 2.24.353 1.76 1.089Zm229.84.169c-.39 0-.71-.189-.71-.419 0-.231.32-.42.71-.42.39 0 .71.189.71.42 0 .23-.32.419-.71.419Zm-12.9.696c9.99-.052 15.12-.239 16.09-.584.78-.278 3.64-.503 6.37-.5l4.95.006-5.3 1.093c-4.69.965-6.52 1.101-15.58 1.158-9.42.059-10.7.163-15.57 1.257-4.46 1.002-6.51 1.207-12.75 1.276-4.08.046-9.18.201-11.32.345-2.14.144-7.72.467-12.39.716-4.67.25-10.85.829-13.74 1.287-3.4.54-6.25.744-8.14.581-6.88-.596-14.51 1.316-14.56 3.649-.04 2.179-5.61 3.611-8.75 2.253-5.87-2.533-7.05-2.872-10.9-3.117-3.03-.193-4.12-.44-4.3-.967-.64-1.978 11.7-3.519 24.99-3.123 6.76.202 10.04.087 16.07-.563 4.17-.449 11.5-1.113 16.29-1.475 4.78-.362 9.88-.93 11.32-1.262 1.44-.333 6.82-.806 11.97-1.052 5.14-.246 9.63-.549 9.97-.674.34-.124 7.22-.261 15.28-.304Zm-164.3 7.038c1.21-.542 5.91-1.576 9.07-1.996 3.08-.409 4.66-.269 5.04.449.21.403 1.86 2.472 3.64 4.596 4.72 5.601 1.57 8.131-10.37 8.33-2.96.05-7.14.391-9.28.76-5.13.881-6.96.848-9.8-.178-3.09-1.118-2.14-1.858 3.61-2.806 4.3-.708 5.51-1.385 4.19-2.334-.97-.689 2.07-5.998 3.9-6.821Zm-59.07 2.404c-7.08.149-8.29-.123-3.53-.801 4.4-.628 7.16-.607 8.71.067 1.23.534.69.611-5.18.734Zm-.8 2.025c-.77 0-1.61-.188-1.85-.419-.24-.231.2-.42.98-.42s1.61.189 1.85.42c.24.231-.2.419-.98.419Zm152.64 4.448c-.24.139-.85.154-1.36.033-.56-.134-.39-.233.43-.253.75-.018 1.16.081.93.22Zm14.77 5.13c-.97.938-3.36.253-5.99-1.72-.87-.651-.78-.728.84-.728 2.19 0 5.88 1.754 5.15 2.448Zm22.64-.174c1.53-.17 4.53-.455 6.67-.634 4.96-.413 13.18-.177 15.93.457l2.12.491-2.57.788c-1.97.606-2.68 1.124-3.03 2.241-1.6 5.068-10.7 5.485-14.75.676-1.06-1.249-2.53-2.193-4.37-2.798l-2.78-.912 2.78-.309Zm-143.09 2.044c.98-.854 2.5-1.791 3.39-2.082 2.8-.921 6.46-.687 8.38.535 2.67 1.697 4.6 1.97 8.51 1.2 3.3-.649 3.47-.641 5.52.258 2.89 1.266 10.2 1.493 20.45.635 4.4-.368 10.01-.669 12.48-.669 2.47 0 5.64-.284 7.03-.63 4.39-1.085 10.96-.577 14.4 1.114 3.04 1.494-8.9 3.842-13.77 2.707-3.78-.879-17.71-1.01-32.49-.304-7.42.354-8.31.499-14.32 2.31-7.4 2.232-7.69 2.265-8.25.946-.88-2.081-35.18-2.747-39.65-.77-2.53 1.118-8.52.191-6.51-1.006.92-.541 26.54-2.69 32.09-2.69.52 0 1.76-.699 2.74-1.554Zm738.33-.815c-3.94.31-8.27-.04-7.67-.618.47-.447 7.89-.436 9.84.014 1.06.245.53.392-2.17.604Zm-626.28 4.72c-.59.35-1.79-.153-2.66-1.116-.41-.448-.46-.815-.11-.815.91 0 3.26 1.64 2.77 1.931Zm-73.05 9.213c-4.31-.978-4.87-2.718-1.26-3.994 4.1-1.453 10.57.822 8.81 3.102-1.1 1.427-3.78 1.744-7.55.892Zm58.52-2.673c2.56-.098 3.42-.314 3.76-.944.78-1.459 7.42 1.973 7.42 3.836 0 1.184-1.34.587-2.56-1.139-1.13-1.607-2.46-1.892-2.21-.473.27 1.482-3.15 1.497-6.79.032l-2.95-1.185 3.33-.127Zm226.61 3.907c-1.62-1.226-2.76-2.347-2.52-2.49.8-.472 10.79 4.759 10.79 5.65 0 1.106-2.79 1.215-4.03.158-.7-.598-2.61-2.091-4.24-3.318Zm-253.94 3.979c2.87 0 4.44-.227 5.74-.833 1.71-.796 1.88-.801 3.83-.119 2.67.934 2.58 1.284-.44 1.562l-4.88.45c-2.9.266-8.21-.183-8.21-.694 0-.202 1.78-.366 3.96-.366Zm-21.14.95c-3.11.628-6.7.304-5.83-.527.4-.391 8.85-.633 8.85-.253 0 .094-1.36.445-3.02.78Zm33.51 4.922c-2.28 0-5.01-1.631-5.01-2.993 0-1.209 2.02-.932 4.68.644 2.95 1.749 3.03 2.349.33 2.349Zm-17.73-1.897c-2.52-.144-5.07-.432-5.66-.638-.73-.253.19-.375 2.81-.373 2.22.001 4.65.274 5.66.638 1.67.598 1.5.62-2.81.373Zm511.37 6.75c.53.808-.07.738-3.81-.449-1.75-.556-2.68-1.019-2.05-1.03 1.95-.033 5.46.852 5.86 1.479Zm-593.06 6.223c-3.67.408-6.71-.855-3.81-1.581.49-.121 1.52-.14 2.3-.041.78.1 1.97.184 2.66.187 2.23.01 1.31 1.162-1.15 1.435Zm5.74-.343c-.18.106-.72-.096-1.22-.447-.56-.399-.61-.639-.14-.639.86 0 1.85.795 1.36 1.086Zm110.62 1.64c-.39-.143-.71-.448-.71-.679 0-.231.32-.303.71-.16.39.143.71.448.71.679 0 .23-.32.302-.71.16Zm448.2 1.864c-4.87-.483-8.92-1.13-10.26-1.639l-2.22-.84 3.78-.007c2.09-.004 7.02.385 10.98.865 3.95.48 12.28 1.423 18.51 2.096 21.75 2.349 26.55 3.136 26.55 4.354 0 1.246-4.54 1.595-9.34.719-2.45-.449-7.95-1.226-12.2-1.727-4.26-.5-9.99-1.385-12.74-1.967-2.76-.581-8.63-1.416-13.06-1.854Zm-609.78 3.809c-2.56-.459-2.8-.592-1.6-.876 1.96-.462 6.16-.46 7.4.004 2.14.801-2.4 1.484-5.8.872Zm259.98 1.552c-.78-.586-1.42-1.272-1.42-1.524s.1-.458.22-.458c.62 0 11.82 6.668 11.82 7.041 0 1.31-22.98 2.166-35.75 1.333-3.89-.254-10.51-.568-14.69-.697-4.19-.13-7.61-.373-7.61-.542 0-.46 14.35-.991 28.32-1.048 17.18-.071 22.85-1.288 19.11-4.105Zm497.27.469c-2.34.631-4.42-.073-3.07-1.039.97-.693 1.24-.694 3.33-.007l1.63.536-1.89.51Zm-149.96.789c-.49.293-3.26-1.102-3.26-1.642 0-.441 2.55.312 3.21.948.26.245.28.557.05.694Zm-592.61 7.244c-2.84-.639-1.77-4.255 1.6-5.418 2.74-.947 5.84.695 5.84 3.098 0 1.809-4.07 3.078-7.44 2.32Zm306.18-3.564c-1.17-.663-2.12-1.359-2.12-1.546 0-.578.89-.382 2.61.57.9.502 1.63 1.198 1.63 1.547 0 .439-.65.264-2.12-.571Zm-129.24 11.115c-3.69 0-19.42-6.622-19.42-8.176 0-1.415 6.12.205 11.36 3.002 1.38.739 3.93 1.782 5.66 2.319 3.31 1.026 4.85 2.855 2.4 2.855Zm-133.03-1.843c-2.02.878-3.05.716-4.26-.674l-1.1-1.258h2.41c3.19 0 4.87 1.101 2.95 1.932Zm-36.08 3.244c-.85.194-8.89-3.211-8.89-3.765 0-.09 1.2.141 2.66.514 1.46.373 3.69.856 4.95 1.074 2.44.418 3.21 1.739 1.28 2.177Zm386.53-3.267c1.52.722-.87.523-3.23-.27-.85-.284-.77-.358.4-.368.8-.007 2.07.28 2.83.638Zm-235.71 4.784c-2.71-1.413-3.88-3.439-2.52-4.404 1.51-1.079 2.64-.668 5.3 1.92 3.75 3.659 2.18 5.063-2.78 2.484Zm244.9-3.338c-1.23 0-2.86-.293-3.61-.652-.43-.202-.86-.352-.85-.435.03-.218 3.18.028 17.88 1.036 9.2.632 9.93.745 10.13 1.588.43 1.811-9.56 2.147-13.87.467-3.3-1.281-6.79-2.004-9.68-2.004Zm-83.47 2.097c-2.41 0-12.15-1.858-13.51-2.58-1.87-.99 13.86.229 17.39 1.347.77.245 3.13.612 5.25.816 6.91.666 13.17 3.046 11.15 4.24-.63.374-2.83-.021-9.3-1.667-4.87-1.236-9.55-2.156-10.98-2.156Zm-327.59.602c-.73-.938-1.33-1.831-1.33-1.985 0-.153 1.51-.169 3.36-.034 3.62.262 6.55 1.645 6.55 3.095 0 1.691-5.97 2.883-6.83 1.363-.23-.404-1.02-1.501-1.75-2.439Zm-42.71 3.82c2.16-.535 2.51-.802 2.31-1.791-.33-1.716-4.42-1.781-9.89-.156-2.52.75-8.02 7.003-6.47 7.356 2.11.48 5.63.204 9.61-.755 5.25-1.268 5.3-1.307 3.46-2.781l-1.56-1.245 2.54-.628Zm296.68.164c-2.29-1.07-2.42-2.385-.28-2.895 2.3-.547 2.53-.52 3.34.379 1.99 2.195-.09 3.899-3.06 2.516Zm-205.11 1.861c-3.13-.253-3.5-.362-2.05-.602.97-.161 2.72-.234 3.89-.161 1.17.072 2.43.144 2.8.16.38.016.35.217-.08.47-.47.281-2.14.329-4.56.133Zm573.57 3.355c-1.37-.568-3.63-2.875-3.63-3.707 0-.783 3.41.021 5.41 1.275 3.85 2.418 2.53 4.22-1.78 2.432Zm-617.69 1.268c-.61-.14-1.12-.423-1.12-.629 0-.58 1.15-.443 2.13.254.95.683.72.769-1.01.375Zm3.13 1.741c0 .387-3.89-.33-4.93-.909-.76-.421-.79-.577-.14-.577 1.04 0 5.07 1.181 5.07 1.486Zm417.67 4.176c-.39-.143-.71-.448-.71-.679 0-.231.32-.303.71-.16.39.142.71.448.71.678 0 .231-.32.303-.71.161Zm-339.21 2.934c-.13.075-1.79-.602-3.68-1.504-3.75-1.785-3.77-1.948-.13-1.047 2.07.513 4.51 2.145 3.81 2.551Zm-8.94 5.664c-.84 0-.69-.257.6-1.073.94-.591 1.82-.868 1.96-.616.36.637-1.23 1.689-2.56 1.689Zm272.53 2.086-1.9-.536 1.77-.279c1.69-.265 6.07.088 6.86.552.9.536-4.96.764-6.73.263Zm-223.83 1.269c-.39 0-.71-.283-.71-.629 0-.346.32-.629.71-.629.39 0 .71.283.71.629 0 .346-.32.629-.71.629Zm71.39 4.454c-4.12-.488-5.25-1.77-2.91-3.301 2.15-1.409 7.27-.301 7.27 1.573 0 1.361-1.71 2.041-4.36 1.728Zm-101.63 5.037c-3.58-1.123-7.02-2.492-7.62-3.041-1.97-1.782 2.54-.728 10.28 2.401 2.22.899 4.32 1.636 4.66 1.637 3.94.015 8.06 2.03 8.06 3.942 0 1.053-1.16.803-5.15-1.113-2.04-.981-6.64-2.702-10.23-3.826Zm540.45-.264c-1.97 0-4.67-2.008-3.57-2.656.74-.444 1.65-.325 1.65.218 0 .273.69.934 1.54 1.468 1.28.806 1.34.97.38.97Zm-522.17-1.291c.62.035 1.53-.226 2.03-.581.38-.273.62-.457.88-.534.53-.153 1.18.111 3.34.922 1.52.567 3.6 1.156 4.62 1.308 2.18.324 2.03 1.014-.38 1.743-2.92.882-5.13.601-9.06-1.147-3.65-1.625-3.83-1.846-1.43-1.711Zm-136.35 1.814c-1.14-.13-1.77-.481-1.77-.991 0-1.031 1.87-1.018 2.81.021 1.02 1.134.96 1.196-1.04.97Zm353.79 3.237c-2.29-.017-3.89-.524-7.68-2.423l-2.77-1.39 2.84.287c5.62.572 12.07 3.56 7.61 3.526Zm-341.94-.703c-3.27.599-9.18-.931-7.48-1.938.86-.511 3.38-.272 6.61.628l3.18.889-2.31.421Zm29.94 1.828c-1.19-.516-1.26-.749-.54-1.693.97-1.253 2.39-1.397 4.05-.413 2.68 1.592-.41 3.449-3.51 2.106Zm382.83-1.116c-.85.003-1.75-.183-1.99-.413-.56-.534 1.08-.534 2.48 0 .86.33.77.407-.49.413Zm154.86 4.829c-2.02-1.94-2.45-3.757-1.09-4.561 3.9-2.31 16.31 3.049 15.77 6.811-.58 4.09-9.52 2.721-14.68-2.25Zm-630.42.104c.19-.289-.35-.783-1.21-1.099-2.83-1.046-5.39-1.305-5.86-.591-.31.481-1.05.584-2.91.405-2.63-.253-3.07.039-4.24 2.782-.73 1.733 6.31 6.633 8.42 5.86.68-.249.44.6-.59 2.081-.35.505-.19.734.54.734.58 0 1.45.283 1.93.629.48.346 1.99.63 3.34.63 1.67 0 2.85.293 3.71.923.94.688 1.96.91 4.01.87 2.86-.056 5.39.675 7.49 2.159 1.04.74 1.23.765 1.25.167.01-.387.49-.982 1.06-1.322 1.13-.669-1.36-1.49-6.52-2.15-2.53-.323-4.43-1.601-4.43-2.973 0-.485-1.42-2.614-3.16-4.731-1.74-2.117-3.01-4.086-2.83-4.374Zm86.46 2.024c-2.38.542-1.93-2.727.52-3.694 1.61-.637 3.05-.266 6.08 1.566l3.13 1.888h-4.34c-2.38 0-4.81.108-5.39.24Zm-7.64 1.196c-.73-.268-.84-2.427-.14-2.841.27-.158.75-.13 1.07.061.77.452-.11 3.079-.93 2.78Zm133.79 3.641c-2.63.986-9.03-.014-12.54-1.959l-2.59-1.434 2.13.384c10.54 1.904 13.88 2.678 13 3.009Zm-89.95 2.892c-2.39 0-4.51-2.6-2.52-3.078 1.9-.455 4.84-.255 5.23.355.48.731-1.51 2.723-2.71 2.723Zm266.13-1.258c-.58 0-1.45-.284-1.94-.63-.72-.511-.68-.629.18-.629.59 0 1.46.283 1.94.629.72.512.69.63-.18.63Zm128.7 7.13c-2.52 0-8.86-4.447-7.8-5.465.91-.874 3.12-.325 5.91 1.471 2.98 1.918 3.96 3.994 1.89 3.994Zm-643.94 4.433c-.34-1.4-.63-3.419-.63-4.487-.02-2.256-1.69-3.58-2.4-1.9-1.07 2.514-5.04 5.882-7.35 6.238-1.52.234-2.67.795-3.45 1.688l-1.17 1.338 3.2 1.716c8.52 4.572 13.56 2.611 11.8-4.593Zm550.86-5.692c-.36 0-.86-.188-1.1-.419-.24-.231.06-.419.66-.419.61 0 1.11.188 1.11.419 0 .231-.3.419-.67.419Zm-254.89 2.727c-1.54-.411-2.64-.889-2.46-1.063.83-.803 20.16 3.849 20.16 4.855 0 .453-2.36 1.89-4.01 2.438-1.6.533-19.05-2.325-22.22-3.639-1.9-.791-.14-1.11 6.19-1.118 5.31-.007 6.06-.478 2.34-1.473Zm179.4 2.154c-.25-.378-.27-.969-.04-1.316.51-.781 3.28-.836 3.28-.065 0 1.039-2.72 2.195-3.24 1.381Zm408.93 3.927c-2.26 0-6.37-3.231-5.35-4.206.86-.821 2.87-.339 4.77 1.143 2.3 1.799 2.54 3.063.58 3.063Zm-711.27.28c-.21-.123-.17-.425.09-.671.57-.553 1.8-.589 1.8-.053 0 .495-1.38 1.024-1.89.724Zm-176.9.494c-.69-.08-1.4-.398-1.58-.709-.2-.361.14-.512.95-.42.69.081 1.4.399 1.57.71.21.361-.13.512-.94.419Zm266.19 4.259c-1.27 0-2.07-.996-1.49-1.88.22-.354.87-.515 1.49-.375 1.44.328 1.44 2.255 0 2.255Zm-247.53.287c.51.121 1.13.106 1.36-.033.24-.14-.18-.239-.93-.221-.82.021-.99.12-.43.254Zm187.03 7.733c-.98-.21-3.52-.858-5.67-1.44-2.85-.775-3.44-1.068-2.23-1.093 1.91-.039 5.31.858 7.9 2.079l1.77.836-1.77-.382Zm-4.25.071c-.78-.121-1.42-.292-1.42-.38 0-.331 2.06-.146 2.44.219.22.209-.24.282-1.02.161Zm-168.61 9.525c-1.34 0-2.49-1.711-1.67-2.493.79-.757 3.08-.488 4.25.501 1.25 1.058.04 1.992-2.58 1.992Zm656.43-.315c-2.3-.778-3.18-1.59-2.47-2.273 1.18-1.131 5.94.672 5.94 2.249 0 .948-.72.954-3.47.024Zm-570.55 3.969c-6.47-.432-9.29-3.966-4.24-5.323 4.26-1.146 5.84-1.059 7.97.443 4.22 2.968 2.44 5.292-3.73 4.88Zm391.67 1.98c-1.95.29-5.12-1.027-6.75-2.803-.98-1.08 1.85-.961 5.39.228 3.46 1.161 4 2.182 1.36 2.575Zm165.26 6.511c-2.88-.458-3.89-1.188-3.18-2.284.67-1.045 5.7.309 9.83 2.646 4.69 2.655 2.84 4.291-2.9 2.57-2.73-.817-3.03-1.01-1.74-1.136 2.38-.234 1.21-1.281-2.01-1.796Zm-369.61 2.554c-4.57-2.151-8.31-3.979-8.31-4.062 0-.61 2.95.355 11.28 3.688 11.17 4.468 12.79 5.262 12.79 6.299 0 1.161-1.83.922-4.78-.624-1.46-.765-6.4-3.15-10.98-5.301Zm261.4.344c0 2.385-11.01-.532-12.67-3.358-.82-1.403-.39-1.47 4.65-.719 3.53.526 8.02 2.812 8.02 4.077Zm77.72 1.704c-1.97.031-3.87-1.267-3.03-2.072.26-.25 1.44-.15 3.04.256 1.44.365 3.08.774 3.63.909 1.31.318-.88.865-3.64.907Zm-266.27 3.385c-1.24 0-1.78-.744-1.32-1.8.48-1.083 1.88-.637 2.14.679.16.771-.1 1.121-.82 1.121Zm-328.27-.917c-.51-.101-1.07-.432-1.24-.734-.18-.315.09-.472.62-.367.51.1 1.07.431 1.24.734.18.314-.09.472-.62.367Zm67.44 8.202c-3.15.536-4.49-.193-2.61-1.423 1.71-1.118 4.94-.984 4.94.204 0 .571-.71.944-2.33 1.219Zm-137.48 1.537c0 .694 7.77.495 8.23-.21.22-.339.23-.857.03-1.153-.25-.371-.38-.383-.42-.041-.03.328-.87.42-2.43.27-2.42-.233-5.41.395-5.41 1.134Zm672.92 2.062c-1.32.646-3.23.293-3.23-.595 0-.69 1.89-.848 3.4-.284.73.276.7.452-.17.879Zm-522.84 4.179c0-1.858.29-2.306 2.2-3.361 3.35-1.857 5.8-.834 2.7 1.126-2.69 1.692 1.59 6.634 10.98 12.697 2.56 1.649 4.65 3.209 4.65 3.467 0 .915 4.99 5.25 10.57 9.175 5.29 3.726 7.91 6.291 6.41 6.291-1.22 0-8.24-4.424-11.31-7.13-5.13-4.533-9.4-7.586-11.53-8.238-5.73-1.756-16.9-9.767-15.49-11.109.45-.425.82-1.738.82-2.918Zm-39.61.261c-1.12-.414-.89-1.948.43-2.813 2.41-1.578 5.71-.364 4.44 1.632-.61.957-3.54 1.667-4.87 1.181Zm19.09-1.273c-1.14 0-1.85-.27-2.01-.766-.2-.619.13-.739 1.76-.629 2.55.173 2.77 1.395.25 1.395Zm-48.02 9.876c-4.68-.747-4.87-2.745-.51-5.33 2.58-1.529 4.23-1.73 6.5-.788 6.07 2.519 1.39 7.297-5.99 6.118Zm-24.47 2.077c-2.73 0-23.74-7.133-23.79-8.074-.02-.615 7.44-.324 9.08.355 9.25 3.838 16.57 4.953 21.77 3.315 5.35-1.684 7.92-1.247 11.29 1.915 4.86 4.562 1.4 5.998-9.54 3.965-4.37-.812-8.34-1.476-8.81-1.476Zm128.46.27c.16-2.754 3.65-5.52 9.06-7.19 3.85-1.188 6.43-1.296 9.38-.391 1.19.362 3.16.626 4.39.587 3.73-.119 3.9-.071 8.46 2.429 2.42 1.328 5.31 2.831 6.41 3.34 2.72 1.251 1.89 3.604-3.43 9.696-4.19 4.798-4.67 6.227-2.47 7.407 1.67.895 1.91 2.726.36 2.726-.58 0-1.87-.769-2.87-1.709-1.95-1.827-3.53-1.761-4 .167-.5 2.114-5.88 1.065-16.99-3.315-8.79-3.466-11.11-5.457-9.93-8.497.46-1.173.5-2.011.11-2.095-1.06-.226-.76-1.752.4-2.015.59-.133 1.09-.646 1.12-1.14Zm610.21-4.045c-2.35-1.499-4.27-2.868-4.28-3.041-.04-1.226 5.59 2.059 7.38 4.299 1 1.261.56 1.083-3.1-1.258Zm-278.95 9.967c-2.47.911-25.96-7.504-25.02-8.963.54-.82 1.58-.724 4.83.45 2.78 1.002 5.26 1.805 15.93 5.167 5.65 1.781 6.57 2.496 4.26 3.346Zm-272.25-6.611c-.56 0-1.02-.378-1.02-.839 0-.911.53-1.029 2.04-.46 1.14.428.46 1.299-1.02 1.299Zm-109.33 4.037c-3.56-.684-3.9-3.406-.55-4.356 4.23-1.196 7.41.819 5.41 3.421-1.04 1.353-1.86 1.511-4.86.935Zm-166.91-3.042c-.98-.062-2.12-.311-2.53-.554-1.08-.639-1.91-.512-4.88.744-3.33 1.409-3.64 3.835-.53 4.275 1.8.256 12.05-.547 13.44-1.053 1.17-.431-3.41-3.28-5.5-3.412Zm43.01.468c-.39-.145-.53-.439-.31-.653.61-.582 1.03-.474 1.03.263 0 .359-.32.535-.72.39Zm315.81 1.053c-1.47 0-1.92-.44-.99-.987.65-.389 1.84-.124 2.18.489.16.278-.37.498-1.19.498Zm-8.2 2.24c1.94-.335 5.61-1.059 8.14-1.61 4.91-1.068 6.01-1.105 6.01-.199 0 .633-11.94 2.514-15.57 2.453-1.78-.03-1.56-.133 1.42-.644Zm547.32 1.954c-2.93 0-6.83-.772-6.83-1.353 0-.424 5.83-.163 8.15.365 1.87.425 1.12.988-1.32.988Zm-790.03 1.938c-2.96 1.507-6.48.306-5.15-1.752.25-.39 1.42-.605 3.27-.605 3.75 0 4.55.998 1.88 2.357Zm487.76 2.536c-.51.305-2.59-.633-2.59-1.169 0-.203.28-.369.62-.369.9 0 2.49 1.233 1.97 1.538Zm-61.6 6.986c-11.07-3.951-12.8-5.022-9.84-6.109 3.64-1.336 8.32-.761 13.12 1.612 1.08.535 5.22 2.046 9.2 3.357 8.4 2.766 9.76 3.384 9.24 4.19-.58.891-1.45.753-8.49-1.345-7.35-2.19-9.75-2.295-4.85-.213 6.37 2.71.45 1.655-8.38-1.492Zm-456.73-2.897c-1.86.277-4.58-.332-4.58-1.028 0-.454 2.36-.523 4.78-.14 2.1.334 2.02.839-.2 1.168Zm69.16 1.084c-1 0-1.46-.472-1.06-1.09.57-.875 1.65-.711 1.65.251 0 .462-.27.839-.59.839Zm464.28 1.678c-.39 0-.71-.484-.71-1.074 0-.608.3-.961.71-.814.39.143.7.626.7 1.074 0 .447-.31.814-.7.814Zm-454.26 5.031c-1.12.684-5.18-3.024-5.17-4.711l.02-1.788 1.39 1.048c1.56 1.172 4.28 5.128 3.76 5.451Zm-144.65 1.894c1.21-.86.43-2.333-1.91-3.656-2.66-1.496-5.08-1.797-7.29-.906l-1.95.786c-.78.311.93 2.723 1.93 2.723.67 0 1.8.377 2.5.838 1.53.999 5.45 1.124 6.72.215Zm547.94 2.511c-.98-.163-2.4-.655-3.17-1.092-2.06-1.172-.32-.966 2.5.297 2.11.948 2.2 1.052.67.795Zm-223.66 8.825c-1.3-.477-.84-1.002 1.86-2.087 2.86-1.153 3.54-1.14 2.46.047-1.09 1.211-3.49 2.343-4.32 2.04Zm-141.17 6.774c-2.47-1.61-7.54-6.888-7.54-7.852 0-1.011 2.84 1.575 8.18 7.457l1.81 1.993-2.45-1.598Zm69.94-6.581c-1.26 0-1.36-.699-.14-.957.49-.103 1.13-.106 1.43-.006.81.271-.12.963-1.29.963Zm605.37 4.779c-1.1-.249-1.54-1.459-.71-1.949.88-.519 4.54.615 4.54 1.405 0 .816-1.62 1.046-3.83.544Zm-843.65 7.804c-3.48 0-7.54-4.491-4.67-5.175.48-.116.97-.227 1.08-.245 1.86-.308 7.23 2.364 7.23 3.596 0 .786-2.07 1.824-3.64 1.824Zm20.98 1.436c-2.37-3.174-.81-5.966 3.6-6.484 1.53-.18 3.42-.252 4.19-.162.78.091 2.03.168 2.77.171 1.55.006 6.79 3.097 6.79 4.008 0 .467-1 .611-4.25.611-5.39 0-6.15 1.579-1.77 3.652 1.37.644 2.48 1.488 2.48 1.876 0 1.228-4.54 3.699-6.81 3.707-1.12.004-4.43.378-7.35.831-7.21 1.121-7.38 1.102-9.86-1.069-5.15-4.519.81-8.714 9.46-6.659 1.15.274 1.26.2.75-.482Zm776.1-3.067c-3.28-.737-8.95-2.53-9.41-2.975-1.6-1.536 6.62.434 9.54 2.285l1.76 1.117-1.89-.427Zm-205.92.567c-2.69-.805-4.9-1.58-4.9-1.723 0-.556 5.68.232 9.18 1.272 2.02.602 4.4 1.095 5.27 1.095 1.96 0 2.56.319 2.06 1.09-.45.688-5.57.818-6.26.158-.24-.237-2.65-1.088-5.35-1.892Zm206.14.644c-.39 0-.9-.188-1.14-.419-.24-.231-.12-.42.27-.42s.9.189 1.14.42c.24.231.12.419-.27.419Zm-65.93 3.57c-3.47-.441-4.62-.865-6.42-2.359l-1.57-1.307 1.7.319c4.87.914 10.43 3.875 6.29 3.347Zm-4.41 2.293c-2.08-.022-4.4-1.556-3.42-2.258 1.17-.835 1.41-.832 3.01.025 1.47.79 1.74 2.247.41 2.233Zm-305.74-.454c-.18.328-.9.125-1.99-.561-1.8-1.137-1.19-1.455.98-.512.72.308 1.17.791 1.01 1.073Zm435.35.723c-.73 2.286-7.67.543-7.67-1.926 0-.26.73-.165 1.73.223.96.371 2.31.568 3.01.439 1.75-.324 3.23.315 2.93 1.264Zm-692.22 4.985c-3.74-1.702-5.67-2.982-5.67-3.749 0-.691 3.02.293 7.17 2.34 3.69 1.813 7.49 2.158 10.41.945 2.31-.957 2.37-.675.46 2.149-1.16 1.708-2.56 2.907-4.38 3.762-1.48.69-4.89 2.529-7.59 4.088-2.69 1.558-5.03 2.752-5.2 2.653-.89-.529 1.85-3.51 5.21-5.658 5.13-3.284 5.08-4.023-.41-6.53Zm529.43 7.252c-.39-.077-.49-.467-.24-.866.14-.211.23-.376.37-.486.45-.371 1.42-.116 6.43 1.069 7.98 1.886 11.36 4.143 6.2 4.143-2.76 0-6.03-.85-9.35-2.435-1.49-.707-3.02-1.348-3.41-1.425Zm-786.414 5.031c1.773.121 1.997-.457 1.464-3.777-.111-.698-2.695-1.13-3.753-.628-2.854 1.356-1.4 4.151 2.289 4.405Zm141.934 4.026c-1.94-3.62-1.88-4.184.52-4.771 5.29-1.292 10.2 1.189 8.41 4.246-.8 1.352-7.16 5.199-7.16 4.329 0-.273-.79-1.984-1.77-3.804Zm186.4-.08c-.4-.236-.51-.635-.25-.886.69-.665 2.51-.558 2.51.149 0 .82-1.37 1.267-2.26.737Zm-356.26 5.911c1.627-1.815 1.804-2.293 1.051-2.831-1.431-1.021-2.149-.764-2.149.769 0 .778-.194 2.052-.43 2.831-.388 1.277-.238 1.202 1.528-.769Zm417.24 5.289c-2.21-1.774-4.21-3.632-4.21-3.929 0-.838 1.7.16 4.1 2.405 1.54 1.447 3.32 2.885 3.95 3.197 1.64.805 1.43 1.385-.44 1.228-.88-.074-1.59-.431-1.6-.804-.01-.369-.81-1.313-1.8-2.097Zm-133.74-1.012c-.4.145-.72-.031-.72-.39 0-.737.42-.846 1.03-.264.22.215.08.509-.31.654Zm320.13 5.247c-.58 0-4.2-2.179-6.92-4.161-1.55-1.138-.64-.934 3.04.679 2.25.987 5.03 3.482 3.88 3.482Zm-398.03 5.714c-.9-1.125-3.37-3.153-5.49-4.509-4.21-2.689-4.08-3.144.34-1.247 2.97 1.276 7.76 6.143 7.12 7.233-.19.318-1.06-.331-1.97-1.477Zm-193.425-4.821c1.123.521 1.148.506.268-.159-.535-.404-1.092-.734-1.239-.734-.583 0-.208.344.971.893Zm-6.692.629c.286.17.893.089 1.347-.18 1.07-.634.473-.987-.849-.503-.561.205-.786.513-.498.683Zm944.157.31c0-.239.21-.56.47-.713.26-.154.63-.182.83-.063.21.119-.01.44-.47.713-.5.3-.83.325-.83.063Zm-685.86 17.671c-7.48-4.484-18.5-12.059-20.89-14.365-2.09-2.01 13.95 6.704 18.72 10.171 1.59 1.153 6.05 4.029 9.91 6.391 7.25 4.439 8.36 5.792 6.29 7.659-.76.689-2.08-.027-2.1-1.143-.03-1.152-3.29-3.535-11.93-8.713Zm138.64-14.28c-1.9.621-2.56.561-1.8-.162.25-.246 1.16-.441 2.01-.433 1.5.015 1.49.036-.21.595Zm289.23 1.65c-.61-.139-1.11-.719-1.11-1.29 0-1.398 1.7-1.036 1.99.424.17.871-.02 1.062-.88.866Zm-629.04 2.455c0-.671.21-1.344.47-1.495.82-.484 2.44.659 2.22 1.563-.35 1.445-2.69 1.386-2.69-.068Zm65.95-.323c3.14.177 4.88.11 5.2-.199 1.38-1.321 2.83-.155 2.81 2.257-.03 3.118-1.42 3.953-4.85 2.909-11.22-3.416-12.54-5.494-3.16-4.967Zm-31.29 3.406c-1.32-1.094-2.1-2.151-1.85-2.531.56-.862.58-.859 5.11.658 3.58 1.194 4.29 1.285 8.05 1.033 4.82-.323 7.42.903 8.18 3.855.22.858.65 2.334.97 3.28l.56 1.72-6.28-1.615c-7.71-1.981-7.93-1.983-8.74-.083-.8 1.871-2.53 2.644-4.14 1.853-1.31-.643-1.48-3.071-.35-4.986.69-1.173.54-1.499-1.51-3.184Zm-76.777 5.624c-.284-.807-.838-1.704-1.23-1.992-.392-.288-.913-.509-1.157-.491-1.816.135-2.114.576-1.763 2.615.275 1.608.176 2.011-.382 1.546-.415-.346-.76-1.337-.766-2.202-.018-2.6-2.926-2.245-5.153.629-1.993 2.571-4.411 4.068-7.714 4.777-1.3.279-1.796.521-1.101.539.696.017 1.97.297 2.832.622 1.368.515 2.199.49 6.523-.199 2.726-.434 5.665-.794 6.53-.8 1.023-.007 1.96-.452 2.673-1.269.604-.692 1.448-1.258 1.875-1.258.529 0 .549-.167.064-.525-.392-.288-.946-1.185-1.231-1.992Zm130.217 7.08c-4.38-.652-5.12-1.696-3.46-4.878 1.39-2.67 14.81 3.323 14.32 6.393-.28 1.733-2.17 1.824-5.19.249-1.37-.708-3.92-1.502-5.67-1.764Zm514.05.363c-.6.355-3.96-1.6-3.96-2.304 0-.994 2.41-.379 3.43.875.52.649.76 1.292.53 1.429Zm-302.33 2.623c-.97-.7-2.49-3.17-2.49-4.047 0-1.011 1.16-.613 6.11 2.099 2.67 1.467 6.17 3.061 7.77 3.543 3.66 1.103 5.1 2.86 3.84 4.666-2.27 3.248-10.72 1.009-13.19-3.497-.65-1.174-1.56-2.418-2.04-2.764Zm104.8 4.775c.9.203 1-.025.63-1.321-.45-1.533-.43-1.546.7-.631 2.06 1.649 3.23 3.807 3.2 5.867l-.03 2.005-1.35-1.468c-.75-.807-1.37-1.787-1.39-2.177-.06-1.389-1.41-1.182-2.8.429-2.8 3.256-7.86 5.665-7.85 3.741.01-1.434 7.39-6.785 8.89-6.445Zm-299.88 14.387c-2.2-2.14-1.35-3.932 2.48-5.201 4.18-1.385 10.8 3.822 7.31 5.747-3.61 1.996-7.39 1.785-9.79-.546Zm50.12 7.199c-2.55-1.47-2.65-1.644-2.65-4.356v-2.825l1.32 1c2.66 2.022 4.42 4.605 4.2 6.168l-.21 1.543-2.66-1.53Zm224.57-.423c-4.41-.911-7-5.512-3.34-5.929 2.8-.32 3.42-.305 4.76.12 3.49 1.107 2.16 6.548-1.42 5.809Zm-454.701.765c.163-.097-.851-.576-2.252-1.066-2.787-.975-3.184-1.047-3.158-.577.021.382 4.991 1.891 5.41 1.643Zm172.611.982 2.32-1.26c3.86-2.103 7.95-1.565 7.95 1.047 0 2.507-4.59 3.205-8.28 1.26l-1.99-1.047Zm-151.992 2.572c-1.282-.486-3.765-1.543-5.517-2.348-5.223-2.402-6.667-1.389-3.177 2.227 1.902 1.972 2.164 3.028 1.051 4.259-1.204 1.333.252 1.259 3.927-.2 6.023-2.392 6.489-2.886 3.716-3.938Zm330.282 2.384c-1.26-.086-2.09-.419-2.25-.901-.2-.619.14-.739 1.76-.629 1.26.086 2.09.418 2.25.901.2.618-.14.739-1.76.629Zm-224.3 3.06c-4.24-.311-5.26-2.222-1.77-3.297 1.59-.491 5.72-.397 7.25.165.7.255-.11 2.312-1.14 2.923-.51.297-2.1.374-4.34.209Zm308.98 12.457c.01-.848.52-1.839 1.14-2.202 1.62-.962 5.76-.867 6.3.145.47.881-3.61 4.783-8.4 8.027-2.88 1.953-2.91 1.801-.49-2.12.79-1.269 1.44-3.001 1.45-3.85Zm-262.68 11.422c-5.32 1.685-14.12-4.587-10.11-7.207 1.94-1.27 7.36-.914 10.14.665 3.48 1.973 3.46 5.434-.03 6.542Zm479.64 7.051c-5.63-2.392-9.81-6.086-10.75-9.507-.47-1.735.85-1.493 4.5.826 2.21 1.403 3.27 2.473 7.37 7.423l2.21 2.668-3.33-1.41Zm-389.32-6.084c-1.41-.322-1.33-1.37.18-2.366 1.12-.733 1.27-.743 1.48-.104.44 1.29-.53 2.727-1.66 2.47Zm105.45 2.785c-1.96 0-2.97-1.421-1.68-2.347 1.1-.781 3.45-.611 4.43.32.98.921-.53 2.027-2.75 2.027Zm6.08.108c-1.18-.995-2.15-2.087-2.15-2.427 0-2.563 4.49.326 8.12 5.22 1.77 2.403 4.14 5.248 5.26 6.322 3.87 3.726 3.38 6.023-1.06 5.023-1.36-.307-1.72-.557-1.13-.773 1.1-.405-5.84-10.68-9.04-13.365Zm-297.01 5.764c-4.49 0-5.65-2.33-2.38-4.789 2.54-1.916 5.29-1.213 6.04 1.549.58 2.116-.69 3.24-3.66 3.24Zm248.14 9.093c0 1.985-1.31 1.364-3.48-1.648-1.37-1.912-1.37-1.992-.12-1.992 1.84 0 3.6 1.779 3.6 3.64Zm-270.11 8.177c-3.11-1.844-3.639-6.828-1.03-9.718.46-.508 2.21-.63 8.96-.623 13.2.012 15.83 1.202 18.28 8.268.68 1.964 4.15 2.701 5.94 1.26 1.28-1.028 1.59-1.09 2.94-.599 1.36.493 1.91.375 5.36-1.167 2.1-.944 3.83-1.551 3.83-1.35 0 .785-4.54 5.804-6.24 6.89-1.5.961-1.76 1.503-1.64 3.355.12 1.793-.19 2.48-1.65 3.653-2.24 1.799-2.24 2.231.02 4.507.99 1.006 2.23 3.005 2.75 4.441.52 1.435 1.31 3.156 1.75 3.823.87 1.304.16 3.325-1.81 5.186-.55.521-1.28 2.22-1.61 3.775-1.08 4.981-4.53 8.714-7.67 8.276-2.1-.291-2.14.878-.11 2.916.82.821 1.3 1.492 1.08 1.492-1.58 0-6.13-1.476-6.46-2.097-.56-1.04-5.69-2.212-9.56-2.184-3.79.027-5.4-1.022-11.25-7.305-1.95-2.087-4.51-4.412-5.699-5.166-1.189-.755-2.162-1.518-2.162-1.696 0-.178-.989-.567-2.198-.864l-2.2-.54 1.669-.783c.917-.431 2.782-1.141 4.145-1.578 8.355-2.68 10.505-5.27 7.335-8.854-1.73-1.961-1.82-2.344-1.33-5.34.85-5.117.54-6.804-1.44-7.978Zm669.09-6.06c-.58.344-4.35-1.094-6.76-2.576-2.78-1.716-2.53-1.845 1.34-.676 2.59.782 6.07 2.87 5.42 3.252Zm-604.58 4.528c-2.09-2.612-1.39-4.885 1.74-5.624 6.19-1.464 9.1 3.022 3.94 6.078-2.8 1.656-4.07 1.554-5.68-.454Zm50.21-2.736c-1.25 0-2.73-1.943-2.16-2.827.38-.578 2.86-.403 4.13.29.87.471-.74 2.537-1.97 2.537Zm-52.97 12.77c-3.91.814-9.09-2.379-8.01-4.931.58-1.357.99-1.376 5.39-.253 5.24 1.334 6.74 4.324 2.62 5.184Zm14.47 7.782c-3.62 0-2.9-8.611.83-10.03 6.77-2.568 16.29 2.842 10.88 6.185-1.79 1.11-10.12 3.845-11.71 3.845Zm-157.963-9.108c.788.122 1.426.097 1.42-.054-.035-.894-1.209-1.34-2.013-.765-.672.479-.555.641.593.819Zm335.963 5.438c1.31-1.201 3.49-3.269 5.53-5.243.65-.634 1.51-1.153 1.9-1.153 1.05 0 1.77 1.39.82 1.579-.45.088-2.43 1.468-4.39 3.066-3.4 2.775-6.54 4.195-3.86 1.751Zm-184.36-3.46c-1.7 0-2.5-.635-1.93-1.519.61-.935 2.86-.517 3.12.579.17.706-.12.94-1.19.94Zm-148.472 2.38c-.835 2.636 1.784 2.714 2.897.086.372-.877.176-1.138-.986-1.318-1.203-.187-1.528.023-1.911 1.232Zm212.542 3.485c-1.84-.014-2.76-.753-2.3-1.836.44-1.043 2.71-1.545 3.51-.776.58.555-.38 2.619-1.21 2.612Zm583.61 14.267c-1.65 0-10.27-6.893-9.52-7.611.75-.723 2.1-.312 3.66 1.122.89.808 3.2 2.144 5.14 2.969 1.94.826 3.52 1.659 3.52 1.851 0 .45-2.04 1.669-2.8 1.669Zm-620.64 2.516c-5.78 0-7.45-5.089-2.05-6.277 2.51-.553 6.77 1.053 6.77 2.552 0 1.466-2.86 3.725-4.72 3.725Zm-176.552-4.026c-.066-.207-.082-.519-.036-.692.301-1.13 7.673 1 8.631 2.493 1.891 2.946-1.186 5.978-5.26 5.181-3.882-.759-4.91-1.925-3.974-4.509.417-1.152.705-2.265.639-2.473Zm41.297 10.995c-5.42-4.111-5.687-6.065-1.203-8.801 3.574-2.18 7.183-2.161 10.931.06 5.45 3.229 5.315 6.177-.424 9.311-4.201 2.295-5.644 2.206-9.304-.57Zm181.095-6.418c-1.1.654-3.09-.589-2.47-1.546.26-.398.98-.665 1.61-.593 1.39.159 1.93 1.505.86 2.139Zm115.46 5.467c-1.17-1.359-3.67-5.702-3.67-6.373 0-.53.77.441 3.09 3.905 2.64 3.95 2.93 5.204.58 2.468Zm37.11 7.556c3.36-3.198 7.06-6.522 8.21-7.387 1.16-.865 2.53-1.573 3.05-1.573 1.34 0 3.34 1.269 2.9 1.837-.2.258-1.25 1.775-2.34 3.371-1.09 1.596-2.85 3.419-3.92 4.052-1.07.633-3.83 2.84-6.13 4.904-5.26 4.703-7.51 5.867-9.38 4.861-1.69-.903-1.66-1.873.09-3.193.78-.581 4.16-3.674 7.52-6.872Zm70.25-4.725c-1.92-.571-3.31-2.906-2.31-3.869.58-.549 4.94-.204 6.38.504 1.9.933.3 4.684-1.74 4.064-.24-.076-1.29-.39-2.33-.699Zm-370.961 4.002c.929.984 2.251.319 2.251-1.132 0-1.274 1.19-1.621 2.63-.768.49.29.57.884.22 1.573-1.1 2.167-2.22 6.578-1.83 7.193.25.397-.33.871-1.598 1.296-1.099.369-3.008 1.732-4.243 3.029-4.985 5.233-12.536 5.102-15.725-.274-2.398-4.042-1.915-5.703 2.567-8.822 1.281-.893 2.532-2.167 2.778-2.832.574-1.55 1.788-1.534 3.303.043 2.591 2.698 7.652 3.505 7.652 1.22 0-1.337.983-1.596 1.995-.526Zm-31.063.433c-1.077-.448-1.221-.673-.538-.842 1.499-.369 4.341-.112 4.636.42.439.793-2.479 1.093-4.098.422Zm142.054 3.811c-4.73 2.649-5.09 1.887-.88-1.888 1.66-1.492 3.08-1.746 3.78-.675.31.479-.58 1.268-2.9 2.563Zm-197.21 2.199c-1.076 0-2.85-2.337-2.85-3.754 0-1.694.881-1.618 2.346.203 1.313 1.63 1.585 3.551.504 3.551Zm10.013 7.607c-3.391.739-8.183-4.008-5.778-5.725 1.145-.817 4.219-.796 6.241.043 2.362.98 2.022 5.14-.463 5.682Zm43.77-3.732c0-.671.19-1.332.423-1.47.989-.585 2.475.274 2.27 1.314-.318 1.621-2.693 1.758-2.693.156Zm41.057 12.805c0 1.685-3.12 1.101-3.4-.638-.16-.935.08-1.363.74-1.363 1.47 0 2.66.895 2.66 2.001Zm-261.062 5.233c-1.912-2.529-5.249-3.986-9.984-4.357-2.187-.172-4.742-.447-5.675-.611-2.45-.431-1.815 3.338.781 4.641.935.469 2.248 1.372 2.918 2.006 1.512 1.433 2.798 1.46 4.609.096l1.404-1.058 1.404 1.058c3.036 2.287 6.57.907 4.543-1.775Zm631.132.211c.68-1.16 2.18-2.696 3.32-3.414 2.84-1.772 3.17-.78 1.15 3.476-.84 1.754-1.83 3.883-2.21 4.732-.74 1.63-9.38 6.8-10.88 6.509-2.04-.396-1-2.301 3.12-5.688 2.34-1.929 4.81-4.456 5.5-5.615Zm-60 8.238c0-2.293 1.35-3.939 4.39-5.346 5.87-2.722 5.16 3.24-.79 6.616-2.6 1.477-3.6 1.126-3.6-1.27Zm117.25-3.247c-2.2-2.573-2.22-2.671-.62-2.919.68-.106 1.4-.211 1.59-.235.92-.109 2.05.747 3.42 2.591 1.46 1.975 1.47 2.011.1 1.754-2.8-.526-1.55.608 3.21 2.905 1.77.855 1.96 1.118 1.17 1.579-1.21.706-6.09-2.418-8.87-5.675Zm67.53 2.038c-.7-.254-3.55-3.659-3.55-4.233 0-.62 1.65.08 3.8 1.608 2.45 1.743 2.28 3.551-.25 2.625Zm-614.135 2.728c-.652 1.216-.905.984-3.232-2.955-2.257-3.82-1.224-3.919 1.865-.179 1.204 1.458 1.68 2.55 1.367 3.134Zm-6.014-1.473c-.389-.143-.708-.626-.708-1.074 0-.448.319-.814.708-.814.389 0 .708.483.708 1.073 0 .609-.307.962-.708.815Zm417.799 5.056c-2.06-.387-1.94-.899.53-2.362 2.56-1.52 2.88-1.525 2.88-.048 0 1.696-1.52 2.767-3.41 2.41Zm-506.972 4.8c-1.188 0-2.149-1.558-2.119-3.433l.03-1.81 1.356 1.468c1.442 1.56 1.872 3.775.733 3.775Zm67.595 5.037c-2.084-.66-2.721-1.621-2.081-3.133.913-2.156 5.281 1.811 10.555 9.588 4.639 6.839 5.348 7.516 8.32 7.932 2.452.343 6.2 2.312 6.2 3.257 0 .798-12.61.462-13.016-.347-.203-.404-.857-2.007-1.453-3.563-2.402-6.271-6.67-13.145-8.525-13.734Zm-104.71 4.189 3.856-2.09c2.121-1.15 3.909-2.093 3.974-2.097.065-.003.466.954.89 2.127 1.411 3.897-3.623 6.122-7.271 3.214l-1.449-1.154Zm240.263-3.774c1.341.514-.833.514-3.54 0-1.734-.329-1.727-.336.354-.371 1.168-.019 2.602.148 3.186.371ZM785.87 969.8c-3.902 1.646-8.679-.633-7.443-3.551.412-.972.81-1.093 3.595-1.093 6.363 0 8.563 2.655 3.848 4.644Zm-19.352 4.146c-.873-.53-.758-.989.867-3.442 2.331-3.521 2.386-3.515 1.835.21-.498 3.375-1.16 4.167-2.702 3.232Zm841.392-1.543c-2.67-2.008-3.62-3.749-2.44-4.451 2.25-1.333 9.33 4.789 7.25 6.272-1.15.82-1.46.704-4.81-1.821Zm-865.151.722c-.782 0-.952-1.651-.278-2.692.695-1.073.986-.774.986 1.014 0 .923-.319 1.678-.708 1.678Zm2.832-1.468c-.39.143-.708-.035-.708-.394 0-.36.318-.654.708-.654.389 0 .708.177.708.394 0 .218-.319.512-.708.654Zm137.336 7.55c0-.77.193-1.698.429-2.063.75-1.158 2.361-.723 4.718 1.273 2.956 2.504 3.693 3.169 4.262 3.047.233-.05.438-.232.756-.475 1.491-1.135 11.067-1.057 12.842.105 1.276.836 1.237.839-10.433.839-9.328 0-11.741.037-12.362-.999-.238-.397-.212-.952-.212-1.727Z" fill="#000C24"/></svg>