<svg width="44" height="43" fill="none" xmlns="http://www.w3.org/2000/svg"><path fill-rule="evenodd" clip-rule="evenodd" d="M21.732 41.643c11.091 0 20.082-8.99 20.082-20.082 0-11.09-8.991-20.081-20.082-20.081-11.09 0-20.082 8.99-20.082 20.081s8.991 20.082 20.082 20.082Zm-5.576-20.082a5.589 5.589 0 0 1 5.577-5.576 5.589 5.589 0 0 1 5.576 5.576 5.589 5.589 0 0 1-5.576 5.577 5.589 5.589 0 0 1-5.577-5.577Zm-3.004 0a8.569 8.569 0 0 0 8.58 8.581 8.569 8.569 0 0 0 8.581-8.58 8.569 8.569 0 0 0-8.58-8.581 8.569 8.569 0 0 0-8.581 8.58ZM28.66 12.63a2.002 2.002 0 0 0 2.771 1.852 2.001 2.001 0 0 0 1.237-1.852 2.002 2.002 0 0 0-2.004-2.004 2.002 2.002 0 0 0-2.004 2.004Z" fill="#928A97"/></svg>