<svg width="1712" height="1004" viewBox="0 0 1712 1004" fill="none" xmlns="http://www.w3.org/2000/svg">
<path fill-rule="evenodd" clip-rule="evenodd" d="M9.82926 4.18333V8.36667H4.45334H-0.922587V16.7333V25.1H5.39628H11.7141L14.0053 32.8392C15.2643 37.0953 16.2922 40.8603 16.2879 41.2058C16.2836 41.5514 12.4097 41.8333 7.67889 41.8333H-0.922587V50.0804V58.3274L9.87765 58.9064C15.818 59.2243 21.6004 59.7505 22.7283 60.0752C25.5216 60.8792 37.5217 79.7895 34.8327 79.1495C25.8495 77.0127 18.4791 75.9618 9.56047 75.546L-0.922587 75.0565V83.4207V91.7848L7.94769 92.3011C42.9503 94.3392 75.6231 113.402 88.4404 139.264C111.787 186.374 71.6223 236.323 6.33491 241.369L-0.922587 241.93V250.35V258.771L7.76061 258.207C81.3377 253.432 131.296 199.562 113.443 144.251C111.177 137.235 110.838 137.293 124.225 142.424C138.112 147.749 137.261 146.111 137.162 167.333C136.893 225.254 83.2236 269.723 7.4101 274.843L-0.922587 275.406V283.822V292.237L8.896 291.66C95.3699 286.58 159.278 233.507 159.361 166.706C159.369 159.228 159.649 153.11 159.98 153.11C160.311 153.11 163.313 153.638 166.651 154.282C169.989 154.927 174.604 155.707 176.906 156.016L181.091 156.577L180.484 170.949C177.395 244.164 103.349 304.141 11.7108 307.655L-0.922587 308.139V316.882V325.625L4.45441 325.335L9.83034 325.045V333.412V341.778L4.41571 341.486L-1 341.194L-0.692497 349.853L-0.384994 358.512L5.78979 358.763C11.1388 358.979 12.0388 359.26 12.5097 360.854C15.531 371.08 16.2513 373.715 16.2642 374.592C16.2761 375.351 14.0924 375.479 7.67889 375.094L-0.922587 374.579V382.998V391.417L7.4101 392.006C25.2496 393.266 23.5357 392.434 30.4169 403.167C35.824 411.601 36.2369 412.595 34.1801 412.234C20.2564 409.792 15.1944 409.099 7.76061 408.616L-0.922587 408.052V416.406V424.758L9.45187 425.75C72.8201 431.81 111.307 481.417 88.4404 527.559C75.6231 553.422 42.9503 572.484 7.94769 574.522L-0.922587 575.038V583.403V591.767L9.56047 591.28C80.3679 587.992 131.176 532.016 113.239 477.056C112.161 473.749 111.371 471.043 111.485 471.043C113.332 471.043 135.63 480.683 136.194 481.725C138.015 485.091 138.043 509.812 136.236 517.897C125.254 567.024 72.504 604.56 9.72067 607.925L-0.922587 608.496V616.871V625.246L11.1732 624.703C94.1872 620.976 159.318 566.094 159.336 499.854L159.34 486.414L169.793 488.233L180.246 490.052L180.114 504.184C179.452 575.233 107.386 634.562 13.8612 641.056L-0.922587 642.081V650.269V658.457H4.45334H9.82926V666.823V675.19H4.45334H-0.922587V683.557V691.923H4.9275C8.14553 691.923 11.0883 692.315 11.4689 692.793C12.1925 693.705 16.2804 706.516 16.2804 707.873C16.2804 708.304 12.4097 708.657 7.67889 708.657H-0.922587V716.904V725.151L9.87765 725.73C15.818 726.048 21.6004 726.574 22.7283 726.898C25.5216 727.703 37.5217 746.613 34.8327 745.973C25.8495 743.836 18.4791 742.785 9.56047 742.369L-0.922587 741.88V750.244V758.608L7.94769 759.124C42.9138 761.16 75.636 780.252 88.4404 806.087C111.793 853.21 71.6384 903.146 6.33491 908.192L-0.922587 908.753V917.173V925.594L7.76061 925.03C81.3312 920.256 131.3 866.398 113.455 811.114C111.175 804.053 110.83 804.113 124.225 809.247C138.112 814.572 137.261 812.935 137.162 834.157C136.893 892.077 83.2236 936.546 7.4101 941.667L-0.922587 942.23V950.645V959.06L8.896 958.484C95.3699 953.403 159.278 900.33 159.361 833.529C159.369 826.052 159.649 819.933 159.98 819.933C160.311 819.933 163.313 820.461 166.651 821.105C169.989 821.751 174.604 822.53 176.906 822.839L181.091 823.4L180.484 837.773C177.399 910.888 104.344 970.187 11.9796 974.551L-0.384994 975.135L-0.692497 983.794L-1 992.452L4.41571 992.16L9.83034 991.868V997.934L9.82926 1004H20.5381H31.2459L31.5588 997.126L31.8706 990.252L39.3969 988.914C43.5363 988.178 48.2532 987.31 49.8799 986.986L52.8367 986.398V995.199V1004H63.424H74.0124L74.6941 994.169C75.6596 980.25 74.9479 981.19 88.5726 975.872C102.437 970.461 101.612 970.319 98.9546 977.657C96.9343 983.232 94.9216 998.129 95.6505 1002.12C95.9796 1003.93 96.4172 1004 106.671 1004H117.348V998.297C117.348 944.725 193.94 908.98 256.356 933.42C287.667 945.681 306.601 968.343 309.425 996.938L310.123 1004H320.88H331.639L330.973 995.006C326.796 938.503 255.527 897.23 185.806 910.937C180.585 911.963 176.202 912.803 176.068 912.803C175.932 912.803 178.552 908.578 181.887 903.414C189.16 892.153 188.246 892.482 212.502 892.391C286.95 892.112 345.118 934.195 352.003 993.316L353.248 1004H363.947H374.646L373.991 994.587C369.212 925.832 296.674 873.396 208.957 875.286C196.195 875.562 195.752 875.513 196.233 873.898C196.507 872.978 197.54 869.325 198.531 865.781L200.33 859.337L205.147 858.775C211.887 857.988 231.793 859.099 245.832 861.044C327.692 872.387 391.13 928.328 394.425 992.077L395.042 1004H406.183H417.324V998.143V992.287H427.539H437.753V998.143V1004H449.042H460.332V997.06V990.12L469.655 988.612C474.782 987.783 479.57 986.928 480.295 986.711C481.304 986.41 481.476 988.379 481.031 995.159L480.452 1004H491.22H501.987L502.777 995.842C503.211 991.356 503.878 986.076 504.26 984.109L504.952 980.532L516.749 975.998C530.724 970.625 529.695 970.326 527.002 978.986C525.8 982.85 524.506 990.059 524.128 995.006L523.439 1004H534.197H544.954L545.652 996.938C550.858 944.226 615.539 911.89 677.793 930.875C712.225 941.375 737.73 969.845 737.73 997.779V1004H748.482H759.233L759.215 996.261C759.1 948.511 706.317 909.261 642.038 909.125C623.748 909.086 620.88 909.358 606.823 912.464C604.613 912.953 604.917 912.167 610.293 903.489C617.127 892.461 615.694 893.099 635.587 892.22C711.914 888.844 780.669 938.922 780.731 997.934L780.737 1004H791.654H802.571L801.907 992.496C798.16 927.499 727.947 875.818 643.113 875.617L624.298 875.572L626.42 867.438L628.541 859.303L633.409 858.728C640.001 857.948 667.223 859.724 679.132 861.711C762.259 875.578 823.744 933.979 823.744 999.069V1004H834.496H845.248V997.934V991.868H856H866.752V997.934V1004H877.461H888.168L888.481 997.126L888.793 990.252L896.319 988.914C900.459 988.178 905.176 987.31 906.803 986.986L909.759 986.398V995.199V1004H920.347H930.935L931.617 994.169C932.582 980.25 931.87 981.19 945.495 975.872C959.36 970.461 958.535 970.319 955.877 977.657C953.857 983.232 951.844 998.129 952.573 1002.12C952.902 1003.93 953.34 1004 963.594 1004H974.27V998.297C974.27 957.109 1022.68 922.672 1076.41 925.641C1125.78 928.369 1162.45 957.439 1166.35 996.938L1167.05 1004H1177.8H1188.56L1187.9 995.006C1183.72 938.503 1112.45 897.23 1042.73 910.937C1037.51 911.963 1033.14 912.803 1033.03 912.803C1032.92 912.803 1035.5 908.516 1038.76 903.277L1044.7 893.752L1055.41 892.702C1132.4 885.168 1201.61 930.528 1208.93 993.316L1210.17 1004H1220.87H1231.57L1230.91 994.587C1226.13 925.832 1153.6 873.396 1065.88 875.286C1053.12 875.562 1052.68 875.513 1053.16 873.898C1053.43 872.978 1054.46 869.325 1055.45 865.781L1057.25 859.337L1062.07 858.775C1068.81 857.988 1088.72 859.099 1102.76 861.044C1184.38 872.355 1248.08 928.353 1251.34 991.659L1251.98 1004H1263.11H1274.25V998.143V992.287H1284.46H1294.68V998.143V1004H1305.97H1317.25V997.06V990.12L1326.58 988.612C1331.7 987.783 1336.49 986.928 1337.22 986.711C1338.23 986.41 1338.4 988.379 1337.95 995.159L1337.37 1004H1348.14H1358.91L1359.7 995.842C1360.13 991.356 1360.8 986.076 1361.18 984.109L1361.87 980.532L1373.67 975.998C1387.65 970.625 1386.62 970.326 1383.92 978.986C1382.72 982.85 1381.43 990.059 1381.05 995.006L1380.36 1004H1391.12H1401.88L1402.57 996.938C1407.78 944.226 1472.46 911.89 1534.72 930.875C1569.44 941.465 1594.65 969.825 1594.65 998.297V1004H1605.4H1616.16L1616.14 996.261C1616.02 948.511 1563.24 909.261 1498.96 909.125C1480.67 909.086 1477.8 909.358 1463.75 912.464C1461.54 912.953 1461.84 912.167 1467.22 903.489C1474.05 892.461 1472.62 893.099 1492.51 892.22C1568.7 888.849 1637.59 939.026 1637.65 997.934L1637.66 1004H1648.58H1659.49L1658.83 992.496C1655.08 927.499 1584.87 875.818 1500.04 875.617L1481.22 875.572L1483.34 867.438L1485.46 859.303L1490.33 858.728C1496.92 857.948 1524.15 859.724 1536.05 861.711C1619.18 875.578 1680.67 933.979 1680.67 999.069V1004H1691.42H1702.17L1702.17 997.934V991.868L1707.55 992.159L1712.92 992.448V983.583V974.717H1706.49C1700.71 974.717 1700.01 974.528 1699.5 972.834C1696.54 962.821 1695.75 959.931 1695.74 959.055C1695.72 958.295 1697.91 958.167 1704.32 958.552L1712.92 959.068V950.649V942.23L1704.59 941.641C1686.75 940.381 1688.46 941.212 1681.58 930.48C1676.18 922.045 1675.76 921.052 1677.82 921.413C1691.74 923.855 1696.81 924.548 1704.24 925.03L1712.92 925.594V917.173V908.753L1705.67 908.192C1640.33 903.142 1600.2 853.233 1623.56 806.087C1636.38 780.225 1669.05 761.163 1704.05 759.124L1712.92 758.608V750.244V741.88L1702.44 742.367C1631.67 745.653 1580.83 801.658 1598.76 856.59C1599.84 859.898 1600.63 862.603 1600.52 862.603C1598.67 862.603 1576.37 852.964 1575.81 851.922C1573.99 848.556 1573.96 823.835 1575.76 815.75C1586.75 766.623 1639.5 729.086 1702.28 725.721L1712.92 725.151V716.776V708.401L1700.83 708.944C1617.83 712.67 1552.67 767.569 1552.64 833.79L1552.64 847.23L1542.2 845.412L1531.75 843.594L1531.89 829.463C1532.55 758.336 1604.51 699.092 1698.14 692.591L1712.92 691.565V683.378V675.19H1707.55H1702.17V666.823V658.457H1707.55H1712.92V650.09V641.723H1707.07C1699.63 641.723 1700.12 642.355 1696.21 627.709L1695.48 624.99H1704.2H1712.92V616.743V608.496L1702.12 607.917C1696.18 607.599 1690.4 607.073 1689.27 606.748C1686.48 605.944 1674.48 587.034 1677.17 587.674C1686.15 589.811 1693.52 590.862 1702.44 591.277L1712.92 591.767V583.403V575.038L1704.05 574.522C1669.09 572.487 1636.36 553.395 1623.56 527.559C1600.2 480.413 1640.33 430.504 1705.67 425.454L1712.92 424.894V416.473V408.052L1704.24 408.616C1630.55 413.399 1580.79 467.16 1598.62 522.738C1600.81 529.567 1601.13 529.519 1587.78 524.399C1573.89 519.075 1574.74 520.712 1574.84 499.49C1575.11 441.569 1628.78 397.1 1704.59 391.98L1712.92 391.417V383.002V374.587L1703.1 375.163C1616.63 380.243 1552.72 433.316 1552.64 500.117C1552.63 507.596 1552.35 513.713 1552.02 513.713C1551.69 513.713 1548.69 513.185 1545.35 512.541C1542.01 511.896 1537.4 511.116 1535.09 510.808L1530.91 510.246L1531.52 495.874C1534.6 422.758 1607.66 363.46 1700.02 359.096L1712.39 358.512L1712.69 349.853L1713 341.194L1707.58 341.486L1702.17 341.778V333.412V325.045L1707.55 325.335L1712.92 325.625V316.759V307.893H1706.49C1700.7 307.893 1700.01 307.707 1699.52 306.011C1699.22 304.975 1698.25 301.564 1697.35 298.429C1696.45 295.294 1695.72 292.388 1695.72 291.971C1695.72 291.537 1699.41 291.434 1704.32 291.729L1712.92 292.244V283.826V275.406L1704.59 274.817C1686.74 273.557 1688.48 274.407 1681.49 263.528C1678.09 258.248 1675.31 253.844 1675.3 253.74C1675.3 253.636 1676.61 253.942 1678.22 254.419C1683.14 255.874 1695.08 257.613 1704.24 258.207L1712.92 258.771V250.35V241.93L1705.67 241.369C1632.57 235.72 1593.36 174.724 1631.86 126.558C1647.17 107.4 1675.48 93.9644 1704.05 92.3011L1712.92 91.7848V83.3128V74.8415L1702.78 75.418C1630.97 79.5051 1580.78 134.673 1598.76 189.767C1599.84 193.074 1600.63 195.78 1600.52 195.78C1598.67 195.78 1576.37 186.141 1575.81 185.098C1573.99 181.732 1573.96 157.011 1575.76 148.927C1586.75 99.7817 1639.47 62.2639 1702.28 58.898L1712.92 58.3274V49.9549V41.5823L1701.36 42.0659C1618.21 45.5456 1552.67 100.586 1552.64 166.967L1552.64 180.406L1542.2 178.588L1531.75 176.771L1531.89 162.64C1532.55 91.5782 1604.6 32.2619 1698.14 25.7677L1712.92 24.7419V16.5543V8.36667H1707.55H1702.17V4.18333V0H1691.42H1680.67V4.91709V9.83334L1670.72 11.6163C1665.25 12.596 1660.41 13.3959 1659.97 13.3925C1659.53 13.3892 1659.16 10.3747 1659.16 6.69333V0H1648.57H1637.97L1637.22 8.40432C1636.81 13.0269 1636.14 17.5265 1635.72 18.4042C1634.69 20.5778 1610.39 29.9159 1611.21 27.8234C1613.96 20.833 1615.31 15.0976 1615.84 8.1575L1616.47 0H1605.72H1594.97L1594.31 6.9025C1589.45 57.4598 1517.94 89.489 1458.4 67.7784C1426.61 56.183 1406.3 33.516 1402.74 5.6475L1402.02 0H1391.2H1380.38L1381.11 6.75692C1387.26 64.1414 1456.29 102.829 1527.76 88.9444C1536.54 87.2392 1536.48 86.9924 1529.9 97.3847C1523.05 108.191 1525.16 107.529 1497.89 107.452C1423.17 107.241 1366.65 65.7829 1359.68 6.06583L1358.97 0H1348.17H1337.37L1338.12 7.64044C1344.64 74.931 1412.85 124.662 1498.69 124.726C1508.3 124.733 1516.16 125.005 1516.16 125.328C1516.15 125.653 1515.71 127.236 1515.16 128.847C1514.62 130.457 1513.6 133.993 1512.91 136.705L1511.65 141.634L1493.21 141.163C1399.22 138.761 1322.07 81.0772 1317.56 9.83083L1316.94 0H1305.7H1294.47L1294.84 4.18417L1295.21 8.3675H1284.46H1273.71L1274.08 4.18417L1274.45 0H1263.06H1251.67V5.0041C1251.67 9.51123 1251.43 10.05 1249.25 10.4282C1247.92 10.6591 1243.53 11.4188 1239.51 12.1174C1235.48 12.8152 1231.74 13.3867 1231.21 13.3867C1230.65 13.3867 1230.52 10.5177 1230.9 6.69333L1231.56 0H1220.74H1209.92L1209.16 6.48417C1207.54 20.3661 1208.61 19.0325 1194.82 24.3872C1183.98 28.5948 1182.7 28.916 1183.17 27.3155C1186.31 16.4807 1187.2 12.5416 1187.82 6.75692L1188.54 0H1177.72H1166.9L1166.18 5.6475C1159.69 56.4516 1095.51 87.7061 1034.97 69.5387C1001.73 59.5648 977.234 34.1402 974.614 6.9025L973.951 0H963.064H952.178L952.918 7.89144C958.172 63.79 1029.05 102.831 1099.87 88.8364C1104.12 87.9973 1107.59 87.3823 1107.59 87.471C1107.59 88.9084 1095.21 106.26 1093.87 106.698C1089.54 108.116 1057.77 108.137 1047.38 106.731C984.205 98.1786 936.016 57.1728 931.689 8.28216L930.955 0H920.196H909.437L910.058 8.99417C914.514 73.4627 985.37 124.726 1070.03 124.73L1087.84 124.731L1085.5 132.855L1083.17 140.978L1065.01 140.875C973.602 140.359 897.468 84.3611 889.114 11.5042L887.795 0H877.274H866.752V4.18333V8.36667H856H845.248V4.18333V0H834.496H823.744V4.91709V9.83334L813.799 11.6163C808.33 12.596 803.491 13.3959 803.047 13.3925C802.603 13.3892 802.241 10.3747 802.241 6.69333V0H791.643H781.045L780.301 8.40432C779.892 13.0269 779.216 17.5265 778.799 18.4042C777.765 20.5778 753.464 29.9159 754.286 27.8234C757.032 20.833 758.383 15.0976 758.917 8.1575L759.546 0H748.798H738.049L737.386 6.9025C734.766 34.1402 710.269 59.5648 677.034 69.5387C616.494 87.7061 552.305 56.4516 545.821 5.6475L545.101 0H534.28H523.458L524.183 6.75692C530.329 64.1029 599.416 102.82 670.838 88.9444C679.615 87.2392 679.552 86.9924 672.973 97.3847C666.131 108.191 668.235 107.529 640.963 107.452C566.53 107.242 509.384 65.4792 502.804 6.48417L502.08 0H491.266H480.452L481.193 7.64044C487.721 74.931 555.924 124.662 641.769 124.726C651.379 124.733 659.238 125.005 659.235 125.328C659.231 125.653 658.783 127.236 658.239 128.847C657.694 130.457 656.68 133.993 655.987 136.705L654.724 141.634L636.286 141.163C542.315 138.761 465.15 81.0655 460.638 9.83083L460.016 0H448.78H437.545L437.917 4.18417L438.291 8.3675H427.539H416.787L417.16 4.18417L417.532 0H406.139H394.746V5.0041C394.746 9.51123 394.506 10.05 392.326 10.4282C390.995 10.6591 386.612 11.4188 382.583 12.1174C378.554 12.8152 374.82 13.3867 374.284 13.3867C373.727 13.3867 373.593 10.5177 373.973 6.69333L374.635 0H363.817H352.997L352.24 6.48417C350.621 20.3661 351.69 19.0325 337.897 24.3872C327.058 28.5948 325.782 28.916 326.246 27.3155C329.384 16.4807 330.274 12.5416 330.895 6.75692L331.619 0H320.798H309.977L309.257 5.6475C302.772 56.4516 238.584 87.7061 178.043 69.5387C144.808 59.5648 120.311 34.1402 117.692 6.9025L117.028 0H106.141H95.2549L95.9957 7.89144C101.249 63.79 172.125 102.831 242.943 88.8364C247.194 87.9973 250.671 87.3823 250.671 87.471C250.671 88.9084 238.284 106.26 236.944 106.698C232.618 108.116 200.85 108.137 190.46 106.731C127.283 98.1786 79.0938 57.1728 74.7662 8.28216L74.0329 0H63.2735H52.5141L53.1356 8.99417C57.6073 73.7036 128.338 124.702 213.644 124.723L230.914 124.727L228.578 132.853L226.243 140.978L208.083 140.875C116.763 140.36 40.5366 84.2942 32.191 11.5042L30.8728 0H20.351H9.82926V4.18333ZM138.336 4.81083C146.149 57.3568 227.072 77.2561 270.906 37.4115C280.574 28.624 288.302 13.5088 288.302 3.39101V0H277.76H267.218L265.887 6.16456C259.861 34.0699 221.97 49.4688 189.629 37.1564C174.809 31.5139 161.854 17.3876 160.632 5.53539L160.061 0H148.841H137.621L138.336 4.81083ZM181.232 3.52069C184.444 19.1463 204.336 28.532 223.936 23.6693C234.817 20.9694 245.295 10.5169 245.295 2.36107V0H234.543C225.404 0 223.791 0.2008 223.791 1.33867C223.791 8.89962 205.654 9.95884 203.739 2.50916L203.094 0H191.801H180.508L181.232 3.52069ZM566.775 3.39101C566.775 13.5088 574.504 28.624 584.172 37.4115C628.006 77.2561 708.929 57.3568 716.741 4.81083L717.456 0H706.236H695.017L694.446 5.53539C693.223 17.3876 680.269 31.5139 665.448 37.1564C633.108 49.4688 595.216 34.0699 589.191 6.16456L587.86 0H577.317H566.775V3.39101ZM609.783 2.36107C609.783 10.5169 620.26 20.9694 631.141 23.6693C650.742 28.532 670.634 19.1463 673.845 3.52069L674.569 0H663.276H651.984L651.339 2.50916C649.424 9.95884 631.286 8.89962 631.286 1.33867C631.286 0.2008 629.674 0 620.534 0H609.783V2.36107ZM995.259 4.81083C1003.07 57.3568 1083.99 77.2561 1127.83 37.4115C1137.5 28.624 1145.22 13.5088 1145.22 3.39101V0H1134.68H1124.14L1122.81 6.16456C1116.78 34.0699 1078.89 49.4688 1046.55 37.1564C1031.73 31.5139 1018.78 17.3876 1017.55 5.53539L1016.98 0H1005.76H994.544L995.259 4.81083ZM1038.15 3.52069C1041.37 19.1463 1061.26 28.532 1080.86 23.6693C1091.74 20.9694 1102.22 10.5169 1102.22 2.36107V0H1091.47C1082.33 0 1080.71 0.2008 1080.71 1.33867C1080.71 8.89962 1062.58 9.95884 1060.66 2.50916L1060.02 0H1048.72H1037.43L1038.15 3.52069ZM1423.7 3.39101C1423.7 13.5088 1431.43 28.624 1441.09 37.4115C1484.93 77.2561 1565.85 57.3568 1573.66 4.81083L1574.38 0H1563.16H1551.94L1551.37 5.53539C1550.15 17.3876 1537.19 31.5139 1522.37 37.1564C1490.03 49.4688 1452.14 34.0699 1446.11 6.16456L1444.78 0H1434.24H1423.7V3.39101ZM1466.71 2.36107C1466.71 10.5169 1477.18 20.9694 1488.06 23.6693C1507.66 28.532 1527.56 19.1463 1530.77 3.52069L1531.49 0H1520.2H1508.91L1508.26 2.50916C1506.35 9.95884 1488.21 8.89962 1488.21 1.33867C1488.21 0.2008 1486.6 0 1477.46 0H1466.71V2.36107ZM442.086 31.375C443.033 34.5962 444.131 38.2156 444.527 39.4179L445.247 41.6049L424.028 42.0651C335.316 43.9911 267.748 97.132 267.41 165.242L267.336 180.302L256.883 178.65L246.429 176.999L245.69 173.212C244.688 168.082 246.971 146.899 249.524 137.632C267.641 71.8663 342.789 24.6231 428.039 25.4054L440.366 25.5183L442.086 31.375ZM869.48 27.4008C869.82 28.6667 870.797 32.0376 871.65 34.894C872.504 37.7496 873.203 40.4302 873.203 40.8511C873.203 41.2719 863.889 41.825 852.506 42.0801C762.842 44.0856 695.749 97.5286 695.721 166.967L695.716 180.406L685.273 178.588L674.831 176.771L674.964 162.64C675.668 87.0426 756.097 26.0705 856.248 25.2088L868.861 25.1L869.48 27.4008ZM1299.01 31.375C1299.96 34.5962 1301.05 38.2156 1301.45 39.4179L1302.17 41.6049L1280.95 42.0651C1192.2 43.9919 1124.78 97.0232 1124.35 165.242L1124.26 180.302L1113.81 178.65L1103.35 176.999L1102.65 173.362C1100.76 163.547 1105.16 138.24 1111.34 123.408C1135.79 64.7137 1206.64 24.7243 1284.96 25.4104L1297.29 25.5183L1299.01 31.375ZM450.655 59.8953C452.797 60.3228 454.497 62.3041 459.023 69.6517C465.154 79.6046 465.231 79.9368 461.116 78.7195C449.229 75.2029 420.501 74.0835 405.209 76.5416C348.173 85.709 310.517 121.453 310.44 166.497C310.417 180.687 310.789 183.055 314.746 193.9C315.374 195.619 314.364 195.383 303.212 191.199C289.04 185.881 289.86 186.997 288.73 171.517C284.814 117.902 336.251 68.5816 405.228 59.8116C414.579 58.6227 444.552 58.6779 450.655 59.8953ZM879.334 59.9647C882.412 60.8759 894.702 79.8531 891.755 79.1462C803.17 57.894 719.056 119.96 741.838 189.767C742.916 193.074 743.707 195.78 743.593 195.78C741.745 195.78 719.447 186.141 718.884 185.098C717.062 181.732 717.034 157.011 718.842 148.927C729.285 102.211 777.057 66.0632 837.184 59.3782C844.832 58.5273 875.939 58.9607 879.334 59.9647ZM1307.58 59.8953C1309.72 60.3228 1311.42 62.3041 1315.95 69.6517C1322.08 79.6046 1322.15 79.9368 1318.04 78.7195C1306.15 75.2029 1277.42 74.0835 1262.13 76.5416C1205.07 85.7132 1167.44 121.434 1167.36 166.497C1167.34 180.687 1167.71 183.055 1171.67 193.9C1172.3 195.619 1171.29 195.383 1160.13 191.199C1145.96 185.881 1146.78 186.997 1145.65 171.517C1141.75 118.027 1193.33 68.5606 1262.15 59.8116C1271.5 58.6227 1301.48 58.6779 1307.58 59.8953ZM446.016 93.2465C508.196 103.543 541.224 154.812 514.11 198.948C476.015 260.961 359.716 253.089 335.041 186.826C315.428 134.162 377.418 81.8887 446.016 93.2465ZM881.556 94.5132C988.151 119.192 966.895 241.218 856 241.218C738.781 241.218 725.493 109.989 840.947 92.5671C848.05 91.4954 873.864 92.7328 881.556 94.5132ZM1300.66 92.9127C1364.19 101.669 1399.19 155.569 1370.32 200.204C1334.9 254.99 1234.03 254.99 1198.6 200.204C1163.48 145.899 1223.94 82.3389 1300.66 92.9127ZM-0.922587 116.54V125.271L6.19084 125.715C21.4219 126.666 39.5753 136.747 46.8264 148.28C62.6488 173.446 42.86 202.932 6.99938 207.62L-0.922587 208.656V216.86V225.063H2.88572C29.1891 225.063 57.9373 209.336 68.457 189.191C87.6995 152.339 56.9568 113.02 5.25973 108.366L-0.922587 107.81V116.54ZM416.665 108.714C344.481 117.629 328.922 193.802 394.167 218.859C458.32 243.495 526.116 191.003 494.753 140.978C480.711 118.58 447.589 104.895 416.665 108.714ZM844.986 108.787C788.753 115.663 761.816 167.366 796.348 202.145C840.289 246.404 930.602 222.433 930.656 166.497C930.689 130.935 889.695 103.319 844.986 108.787ZM1273.59 108.714C1201.4 117.629 1185.84 193.802 1251.09 218.859C1315.24 243.495 1383.04 191.003 1351.68 140.978C1337.63 118.58 1304.51 104.895 1273.59 108.714ZM1701.91 108.838C1652.41 114.48 1623.66 156.735 1645.26 192.105C1656.55 210.605 1684.57 225.063 1709.11 225.063H1712.92V216.86V208.656L1705 207.62C1669.14 202.932 1649.35 173.446 1665.17 148.28C1672.42 136.747 1690.58 126.666 1705.81 125.715L1712.92 125.271V116.6C1712.92 106.727 1713.97 107.463 1701.91 108.838ZM443.492 127.193C481.994 136.446 493.448 175.126 464.027 196.541C428.181 222.635 371.462 201.723 374.601 163.568C376.758 137.336 410.835 119.343 443.492 127.193ZM878.794 129.462C926.001 147.666 915.812 200.783 863.795 207.642C828.79 212.259 796.593 186.439 803.672 159.429C810.811 132.186 847.696 117.472 878.794 129.462ZM1300.41 127.193C1338.92 136.446 1350.37 175.126 1320.95 196.541C1285.1 222.635 1228.39 201.723 1231.52 163.568C1233.68 137.336 1267.76 119.343 1300.41 127.193ZM565.727 155.172C576.404 221.24 500.707 281.258 415.312 274.434C408.436 273.885 402.631 273.3 402.413 273.134C401.572 272.496 390.581 254.798 390.881 254.565C391.056 254.429 395.504 255.157 400.767 256.183C454.785 266.708 516.761 241.68 536.796 201.252C545.451 183.786 547.621 161.712 542.294 145.305C540.975 141.242 539.896 137.847 539.896 137.759C539.896 137.672 545.405 139.678 552.138 142.217L564.379 146.835L565.727 155.172ZM1422.65 155.172C1433.32 221.228 1357.61 281.257 1272.23 274.434C1265.36 273.885 1259.55 273.3 1259.34 273.134C1258.49 272.496 1247.5 254.798 1247.8 254.565C1247.98 254.429 1252.43 255.157 1257.69 256.183C1272.35 259.039 1298.54 258.825 1313.49 255.73C1379.12 242.141 1415.75 191.238 1397.29 139.262C1396.76 137.784 1398.38 138.189 1408.99 142.191L1421.3 146.835L1422.65 155.172ZM981.693 142.626C994.946 147.666 994.184 146.147 994.085 167.333C993.839 220.304 947.872 263.235 880.729 273.206C869.691 274.845 844.439 275.213 835.572 273.864L830.733 273.127L824.563 263.528C821.169 258.248 818.388 253.851 818.38 253.756C818.374 253.661 820.183 254.077 822.4 254.679C841.133 259.766 870.655 259.392 893.094 253.784C948.414 239.957 984.398 191.979 971.736 148.927C968.587 138.22 968.508 137.808 969.664 138.147C970.267 138.324 975.681 140.339 981.693 142.626ZM-0.922587 149.97V158.757L2.30189 159.26C11.8753 160.75 10.5142 174.863 0.79771 174.863C-0.664542 174.863 -0.922587 176.118 -0.922587 183.23V191.597H2.11159C12.5925 191.597 26.0248 183.443 29.4944 174.976C35.7434 159.724 23.682 144.245 3.60179 141.746L-0.922587 141.182V149.97ZM418.937 142.517C383.027 151.774 389.996 191.196 427.539 191.172C468.929 191.147 470.585 143.941 429.273 141.731C425.954 141.553 421.303 141.907 418.937 142.517ZM845.591 142.898C822.941 149.197 816.493 170.944 833.366 184.129C857.798 203.22 898.177 183.011 886.04 157.768C880.089 145.391 861.371 138.509 845.591 142.898ZM1275.86 142.517C1239.95 151.774 1246.92 191.196 1284.46 191.172C1325.85 191.147 1327.51 143.941 1286.2 141.731C1282.88 141.553 1278.23 141.907 1275.86 142.517ZM1702.51 142.95C1670.6 151.532 1676.67 191.597 1709.89 191.597H1712.92V183.23C1712.92 176.39 1712.63 174.863 1711.33 174.863C1701.64 174.863 1700.17 160.743 1709.7 159.26L1712.92 158.757V150.077C1712.92 140.091 1712.98 140.133 1702.51 142.95ZM600.323 155.207L608.604 156.606L609.327 160.356C609.725 162.417 609.704 168.314 609.283 173.458C603.153 248.278 528.339 305.52 433.893 307.652L414.444 308.092L412.581 300.791C411.556 296.776 410.506 293.06 410.246 292.535C409.905 291.842 414.736 291.57 427.796 291.547C518.831 291.389 590.623 233.965 588.108 163.32C587.754 153.389 587.817 153.045 589.892 153.419C591.074 153.632 595.769 154.436 600.323 155.207ZM1023.57 154.282C1026.91 154.927 1031.46 155.697 1033.67 155.994L1037.71 156.533V166.348C1037.71 243.41 960.622 305.496 862.236 307.677L843.205 308.099L842.632 306.114C839.78 296.224 838.797 292.645 838.797 292.154C838.797 291.838 846.66 291.558 856.269 291.534C946.083 291.306 1016.2 236.609 1016.28 166.706C1016.29 159.229 1016.57 153.11 1016.9 153.11C1017.23 153.11 1020.24 153.638 1023.57 154.282ZM1457.25 155.207L1465.53 156.606L1466.25 160.356C1466.65 162.417 1466.63 168.314 1466.21 173.458C1460.08 248.278 1385.26 305.52 1290.82 307.652L1271.37 308.092L1269.5 300.791C1268.48 296.776 1267.43 293.06 1267.17 292.535C1266.83 291.842 1271.66 291.57 1284.72 291.547C1375.75 291.389 1447.55 233.965 1445.03 163.32C1444.68 153.389 1444.74 153.045 1446.81 153.419C1448 153.632 1452.69 154.436 1457.25 155.207ZM223.791 166.497V174.863H213.039H202.287V166.497V158.13H213.039H223.791V166.497ZM652.79 166.497V174.863H642.038H631.286V166.497V158.13H642.038H652.79V166.497ZM1080.71 166.497V174.863H1069.96H1059.21V166.497V158.13H1069.96H1080.71V166.497ZM1509.71 166.497V174.863H1498.96H1488.21V166.497V158.13H1498.96H1509.71V166.497ZM434.864 161.314C441.324 166.56 436.926 174.445 427.539 174.445C423.367 174.445 422.074 174.047 419.919 172.097C414.032 166.772 418.561 158.967 427.539 158.967C430.995 158.967 432.612 159.485 434.864 161.314ZM861.435 159.828C870.054 163.418 865.916 174.863 856 174.863C851.913 174.863 845.248 170.222 845.248 167.375C845.248 161.077 854.3 156.857 861.435 159.828ZM1291.79 161.314C1298.25 166.56 1293.85 174.445 1284.46 174.445C1280.29 174.445 1279 174.047 1276.84 172.097C1270.95 166.772 1275.48 158.967 1284.46 158.967C1287.92 158.967 1289.54 159.485 1291.79 161.314ZM245.309 194.145C329.999 206.012 391.948 261.787 394.435 328.408L394.997 343.486L385.548 345.014C380.352 345.855 375.578 346.698 374.94 346.889C374.139 347.127 373.767 342.89 373.74 333.212C373.536 262.358 299.759 206.505 208.957 208.463C196.195 208.738 195.752 208.69 196.233 207.075C196.507 206.155 197.539 202.506 198.528 198.966C200.013 193.646 200.728 192.459 202.65 192.119C207.41 191.276 233.77 192.529 245.309 194.145ZM657.628 192.467C753.334 199.5 827.358 263.872 823.556 336.758L823.207 343.452L815.143 344.783C810.708 345.515 805.99 346.388 804.66 346.721L802.241 347.33V335.202C802.241 264.089 733.311 209.158 643.651 208.821L624.298 208.748L626.417 200.625C628.188 193.837 628.895 192.446 630.718 192.163C635.049 191.491 646.035 191.615 657.628 192.467ZM1102.23 194.145C1186.85 206.002 1249.21 262.126 1251.42 328.408L1251.92 343.486L1242.47 345.014C1237.27 345.855 1232.5 346.698 1231.86 346.889C1231.06 347.127 1230.69 342.89 1230.66 333.212C1230.46 262.358 1156.68 206.505 1065.88 208.463C1053.12 208.738 1052.68 208.69 1053.16 207.075C1053.43 206.155 1054.46 202.506 1055.45 198.966C1056.94 193.646 1057.65 192.459 1059.57 192.119C1064.33 191.276 1090.69 192.529 1102.23 194.145ZM1514.55 192.467C1609.93 199.476 1683.52 263.111 1680.45 335.921L1680.13 343.451L1672.07 344.782C1667.63 345.515 1662.98 346.371 1661.73 346.685C1659.48 347.25 1659.45 347.079 1658.87 330.713C1656.39 261.647 1588.12 209.069 1500.57 208.806L1481.22 208.748L1483.34 200.625C1485.11 193.837 1485.82 192.446 1487.64 192.163C1491.97 191.491 1502.96 191.615 1514.55 192.467ZM239.892 227.149C309.425 237.953 358.849 289.11 351.748 342.926C351.041 348.277 350.29 352.794 350.077 352.964C349.257 353.618 326.514 362.17 326.214 361.937C326.04 361.801 326.976 358.34 328.294 354.245C331.963 342.839 331.689 322.46 327.711 310.822C310.238 259.716 244.881 231.253 177.999 245.623C175.973 246.058 184.896 229.998 188.12 227.407C191.116 224.997 224.959 224.829 239.892 227.149ZM661.051 226.36C732.442 234.609 783.184 281.919 780.354 337.595C779.544 353.532 780.336 352.376 766.505 357.775C752.635 363.187 753.442 363.328 756.211 355.99C761.157 342.878 760.039 319.412 753.755 304.496C734.9 259.729 671.385 232.415 613.637 244.24C608.956 245.198 605.01 245.888 604.867 245.772C604.359 245.362 616.277 227.151 617.213 226.905C624.365 225.022 647.038 224.741 661.051 226.36ZM1096.81 227.149C1166.32 237.949 1215.77 289.128 1208.67 342.926C1207.96 348.277 1207.21 352.794 1207 352.964C1206.18 353.618 1183.44 362.17 1183.14 361.937C1182.96 361.801 1183.9 358.34 1185.22 354.245C1198.75 312.191 1166.6 263.99 1114.63 248.392C1092.18 241.657 1063.81 239.969 1042.73 244.113C1037.51 245.14 1033.14 245.98 1033.03 245.98C1032.92 245.98 1035.5 241.689 1038.76 236.443L1044.7 226.907L1052.22 226.037C1061.86 224.923 1086.43 225.536 1096.81 227.149ZM1517.97 226.36C1589.36 234.609 1640.11 281.919 1637.28 337.595C1636.47 353.532 1637.26 352.376 1623.43 357.775C1609.56 363.187 1610.36 363.328 1613.13 355.99C1618.08 342.878 1616.96 319.412 1610.68 304.496C1591.82 259.729 1528.31 232.415 1470.56 244.24C1465.88 245.198 1461.93 245.888 1461.79 245.772C1461.28 245.362 1473.2 227.151 1474.14 226.905C1481.29 225.022 1503.96 224.741 1517.97 226.36ZM239.153 261.416C309.802 277.455 333.011 345.419 281.665 385.901C232.001 425.057 145.675 409.983 122.528 358.112C97.2074 301.372 165.552 244.707 239.153 261.416ZM658.685 259.806C727.754 269.178 760.786 332.29 719.981 376.918C676.577 424.387 581.776 415.895 552.918 361.954C523.937 307.781 584.092 249.684 658.685 259.806ZM1096.08 261.416C1166.72 277.455 1189.93 345.419 1138.59 385.901C1085.85 427.478 995.524 408.016 976.963 351.076C959.107 296.305 1026.46 245.61 1096.08 261.416ZM1515.61 259.806C1592.78 270.278 1621.77 345.676 1564.71 387.558C1503.28 432.653 1402.95 399.07 1402.95 333.412C1402.95 286.509 1456.17 251.74 1515.61 259.806ZM195.306 276.563C148.102 285.825 124.426 327.023 147.007 360.603C175.192 402.516 253.426 401.799 280.329 359.38C308.404 315.11 256.503 264.555 195.306 276.563ZM626.075 276.162C578.964 283.371 553.119 325.274 574.749 359.38C601.651 401.799 679.886 402.516 708.071 360.603C737.452 316.912 688.593 266.595 626.075 276.162ZM1052.23 276.563C1005.03 285.825 981.348 327.023 1003.93 360.603C1032.08 402.472 1110.38 401.753 1137.25 359.38C1165.32 315.118 1113.41 264.557 1052.23 276.563ZM1481.76 276.451C1426.58 286.225 1404.86 340.105 1443.03 372.519C1489.37 411.872 1573.59 386.645 1573.59 333.412C1573.59 296.027 1528.64 268.147 1481.76 276.451ZM226.434 293.278C266.103 301.318 279.757 338.425 251.649 361.806C218.939 389.016 160.355 370.795 160.355 333.412C160.355 306.213 192.858 286.472 226.434 293.278ZM661.514 294.857C692.761 304.727 704.616 334.816 685.827 356.567C660.153 386.29 600.477 377.75 589.9 342.84C580.148 310.656 622.241 282.454 661.514 294.857ZM1083.36 293.278C1123.03 301.318 1136.68 338.425 1108.57 361.806C1075.86 389.016 1017.28 370.795 1017.28 333.412C1017.28 306.213 1049.78 286.472 1083.36 293.278ZM1518.44 294.857C1562.56 308.792 1562.56 358.12 1518.44 371.949C1488.76 381.251 1454.21 367.207 1446.82 342.84C1437.07 310.656 1479.16 282.454 1518.44 294.857ZM100.592 306.429C88.1651 336.686 98.8127 372.56 127.236 396.205C149.976 415.121 178.375 424.497 213.039 424.533C231.274 424.551 234.318 424.262 248.255 421.182C250.464 420.694 250.16 421.48 244.784 430.158C237.95 441.186 239.383 440.548 219.49 441.427C139.393 444.969 71.3707 392.238 74.7575 329.228C75.6413 312.785 74.7909 314.069 88.1716 308.999C101.422 303.979 101.615 303.938 100.592 306.429ZM529.144 304.899C529.144 305.093 528.074 308.575 526.766 312.638C505.648 378.246 589.062 440.815 672.608 422.036C675.524 421.38 678.193 420.843 678.541 420.843C678.888 420.843 676.502 425.13 673.239 430.37L667.305 439.895L656.591 440.944C571.72 449.249 494.564 390.324 503.33 323.897C504.036 318.547 504.797 314.022 505.022 313.843C506.642 312.551 529.144 304.208 529.144 304.899ZM957.515 306.429C945.088 336.686 955.735 372.56 984.159 396.205C1006.9 415.121 1035.3 424.497 1069.96 424.533C1088.2 424.551 1091.24 424.262 1105.18 421.182C1107.39 420.694 1107.08 421.48 1101.71 430.158C1094.87 441.186 1096.31 440.548 1076.41 441.427C996.316 444.969 928.293 392.238 931.68 329.228C932.564 312.785 931.714 314.069 945.094 308.999C958.345 303.979 958.537 303.938 957.515 306.429ZM1386.07 304.899C1386.07 305.093 1385 308.575 1383.69 312.638C1370.18 354.606 1402.38 402.852 1454.3 418.431C1476.74 425.166 1505.11 426.855 1526.19 422.71C1531.42 421.683 1535.78 420.843 1535.89 420.843C1536 420.843 1533.42 425.13 1530.16 430.37L1524.23 439.895L1513.51 440.944C1428.64 449.249 1351.49 390.324 1360.25 323.897C1360.96 318.547 1361.72 314.022 1361.94 313.843C1363.56 312.551 1386.07 304.208 1386.07 304.899ZM208.178 308.799C187.993 310.81 175.304 328.864 183.822 343.452C198.296 368.234 244.722 360.583 244.75 333.412C244.766 317.09 229.319 306.694 208.178 308.799ZM636.511 308.79C606.141 312.512 599.702 344.842 627.201 355.535C639.921 360.481 655.377 358.566 664.833 350.873C686.204 333.484 667.064 305.047 636.511 308.79ZM1065.1 308.799C1026.55 312.639 1031.12 358.046 1070.06 358.085C1089.32 358.104 1101.66 348.48 1101.67 333.412C1101.69 317.09 1086.24 306.694 1065.1 308.799ZM1493.43 308.79C1463.06 312.512 1456.62 344.842 1484.12 355.535C1496.84 360.481 1512.3 358.566 1521.76 350.873C1543.13 333.484 1523.99 305.047 1493.43 308.79ZM53.1345 336.131C55.6139 405.314 124.028 457.821 211.964 458.03L230.78 458.075L228.657 466.209L226.536 474.344L221.862 474.889C209.248 476.361 176.727 472.937 157.667 468.129C81.4086 448.896 28.3386 390.825 31.5211 330.097L31.8706 323.435L41.5472 321.617C46.8694 320.617 51.5206 319.756 51.883 319.703C52.2453 319.65 52.8087 327.042 53.1345 336.131ZM481.338 333.621C481.542 404.476 555.55 460.459 646.263 458.374C658.884 458.085 659.322 458.133 658.843 459.748C658.57 460.669 657.537 464.322 656.547 467.866L654.748 474.31L649.93 474.872C636.75 476.41 604.876 472.899 584.853 467.703C512.04 448.81 462.545 397.299 460.581 338.37L460.078 323.248L470.15 321.537C475.69 320.596 480.465 319.777 480.76 319.717C481.056 319.657 481.316 325.913 481.338 333.621ZM910.057 336.131C912.533 405.234 980.687 457.673 1068.45 458.002L1087.9 458.075L1086.56 462.027C1085.83 464.201 1084.89 467.853 1084.49 470.144L1083.75 474.31L1078.74 474.902C1066.04 476.403 1032.93 472.794 1012.98 467.73C938.269 448.778 885.292 390.228 888.444 330.097L888.793 323.435L898.47 321.617C903.792 320.617 908.443 319.756 908.806 319.703C909.168 319.65 909.731 327.042 910.057 336.131ZM1338.26 333.621C1338.46 404.476 1412.47 460.459 1503.19 458.374C1515.81 458.085 1516.24 458.133 1515.77 459.748C1515.49 460.669 1514.46 464.322 1513.47 467.866L1511.67 474.31L1506.85 474.872C1504.2 475.181 1496.63 475.166 1490.02 474.838C1393.87 470.068 1320.3 411.851 1317.56 338.37L1317 323.248L1327.07 321.537C1332.61 320.596 1337.39 319.777 1337.68 319.717C1337.98 319.657 1338.24 325.913 1338.26 333.621ZM866.752 333.412V341.778H856H845.248V333.412V325.045H856H866.752V333.412ZM220.237 327.482C222.742 329.159 223.254 330.165 223.254 333.412C223.254 340.858 212.708 344.257 206.144 338.926C197.058 331.546 210.274 320.814 220.237 327.482ZM437.753 333.412V341.36H427.539H417.324V333.412V325.463H427.539H437.753V333.412ZM648.699 327.711C655.223 332.575 650.845 341.36 641.897 341.36C635.62 341.36 631.824 338.365 631.824 333.412C631.824 326.107 641.956 322.685 648.699 327.711ZM1077.16 327.482C1079.66 329.159 1080.18 330.165 1080.18 333.412C1080.18 340.858 1069.63 344.257 1063.07 338.926C1053.98 331.546 1067.2 320.814 1077.16 327.482ZM1294.68 333.412V341.36H1284.46H1274.25V333.412V325.463H1284.46H1294.68V333.412ZM1505.62 327.711C1512.15 332.575 1507.77 341.36 1498.82 341.36C1492.54 341.36 1488.75 338.365 1488.75 333.412C1488.75 326.107 1498.88 322.685 1505.62 327.711ZM442.54 366.198C443.541 370.122 444.572 373.763 444.831 374.289C445.173 374.981 440.341 375.253 427.282 375.276C336.209 375.435 264.454 432.829 266.969 503.503C267.323 513.434 267.261 513.779 265.186 513.405C264.003 513.191 259.309 512.387 254.754 511.617L246.473 510.217L245.751 506.468C242.997 492.18 250.412 462.067 261.52 442.424C290.839 390.579 362.528 355.827 434.049 358.788L440.718 359.064L442.54 366.198ZM868.732 359.386C869.153 359.678 873.134 373.139 873.175 374.408C873.192 374.931 866.643 375.262 855.731 375.289C765.917 375.518 695.804 430.214 695.717 500.117C695.708 507.596 695.429 513.713 695.097 513.713C694.766 513.713 691.764 513.185 688.426 512.541C685.089 511.896 680.474 511.116 678.172 510.808L673.986 510.246L674.594 495.874C677.393 429.513 736.514 374.835 819.981 361.409C834.48 359.077 866.382 357.753 868.732 359.386ZM1299.46 366.198C1300.46 370.122 1301.49 373.763 1301.75 374.289C1302.1 374.981 1297.26 375.253 1284.2 375.276C1193.13 375.435 1121.38 432.829 1123.89 503.503C1124.25 513.434 1124.18 513.779 1122.11 513.405C1120.93 513.191 1116.23 512.387 1111.68 511.617L1103.4 510.217L1102.67 506.468C1099.92 492.18 1107.33 462.067 1118.44 442.424C1147.75 390.598 1219.54 355.807 1291.02 358.788L1297.64 359.064L1299.46 366.198ZM441.989 392.512L452.753 393.465L458.629 402.741C465.605 413.755 466.057 412.929 454.311 410.64C400.269 400.112 338.326 425.125 318.282 465.572C309.626 483.037 307.457 505.112 312.783 521.519C314.102 525.581 315.182 528.992 315.182 529.096C315.182 529.202 309.752 527.164 303.116 524.568C288.644 518.908 289.068 519.62 288.951 500.745C288.55 436.068 360.351 385.288 441.989 392.512ZM876.964 393.097C881.195 393.67 881.36 393.831 887.337 403.16C892.747 411.602 893.16 412.595 891.103 412.234C889.833 412.011 885.164 411.16 880.729 410.342C797.457 394.992 720.639 457.094 741.699 522.738C743.888 529.561 744.223 529.51 730.872 524.392C716.979 519.066 717.816 520.675 717.915 499.49C718.224 433.223 794.837 381.974 876.964 393.097ZM1298.91 392.512L1309.68 393.465L1315.55 402.741C1322.53 413.755 1322.98 412.929 1311.23 410.64C1257.19 400.112 1195.25 425.125 1175.2 465.572C1166.55 483.037 1164.38 505.112 1169.71 521.519C1171.03 525.581 1172.1 528.992 1172.1 529.096C1172.1 529.202 1166.67 527.164 1160.04 524.568C1145.57 518.908 1145.99 519.62 1145.87 500.745C1145.47 436.068 1217.27 385.288 1298.91 392.512ZM448.316 427.086C520.32 438.889 548.184 508.925 497.634 551.046C436.616 601.889 326.754 565.536 331.681 496.135C334.313 459.066 368.105 431.386 417.862 425.544C423.407 424.893 440.091 425.737 448.316 427.086ZM868.556 425.925C927.647 432.24 966.189 479.723 947.432 523.1C917.662 591.946 794.51 591.823 764.502 522.917C742.344 472.04 799.709 418.568 868.556 425.925ZM1305.24 427.086C1377.32 438.901 1405.24 509.496 1354.35 551.256C1292.84 601.735 1183.68 565.434 1188.6 496.135C1191.24 459.066 1225.03 431.386 1274.78 425.544C1280.33 424.893 1297.01 425.737 1305.24 427.086ZM-0.922587 449.963V458.167L6.99938 459.203C42.86 463.892 62.6488 493.377 46.8264 518.543C39.5753 530.076 21.4219 540.157 6.19084 541.108L-0.922587 541.553V550.283V559.014L5.25973 558.457C65.9625 552.992 94.9011 500.682 57.6922 463.677C45.0674 451.121 21.8928 441.76 3.43514 441.76H-0.922587V449.963ZM410.873 443.058C364.425 450.799 339.189 492.132 360.325 525.845C387.53 569.239 467.538 569.239 494.755 525.845C522.301 481.926 472.512 432.786 410.873 443.058ZM838.225 443.33C781.641 454.164 761.706 509.015 802.762 540.905C850.537 578.013 930.705 552.576 930.656 500.327C930.619 461.991 885.636 434.253 838.225 443.33ZM1267.8 443.058C1221.35 450.799 1196.11 492.132 1217.25 525.845C1244.45 569.238 1324.47 569.238 1351.68 525.845C1379.25 481.862 1329.51 432.773 1267.8 443.058ZM1695.15 443.33C1613.11 459.037 1622.36 550.86 1706.74 558.457L1712.92 559.014V550.283V541.553L1705.81 541.108C1690.58 540.157 1672.42 530.076 1665.17 518.543C1649.33 493.336 1669.54 463.421 1705.34 459.109L1712.92 458.196V449.978V441.76L1707.82 441.822C1705.01 441.855 1699.31 442.535 1695.15 443.33ZM439.655 459.755C477.461 466.691 493.363 502.402 469.127 525.94C447.942 546.517 407.135 546.517 385.951 525.94C354.679 495.568 390.985 450.825 439.655 459.755ZM865.799 459.343C916.105 466.72 924.906 519.58 878.79 537.363L869.602 540.905H856H842.398L833.21 537.363C777.902 516.036 805.289 450.468 865.799 459.343ZM1296.58 459.755C1334.38 466.691 1350.29 502.402 1326.05 525.94C1304.87 546.517 1264.06 546.517 1242.87 525.94C1211.6 495.568 1247.91 450.825 1296.58 459.755ZM552.929 475.907C566.108 480.945 565.24 479.669 566.39 495.725C570.829 557.679 502.86 610.558 422.163 607.932C400.97 607.242 402.697 607.954 396.054 597.172C389.367 586.317 389.15 587.015 398.524 589.23C408.972 591.698 444.159 591.904 454.895 589.56C511.116 577.283 544.563 544.025 544.637 500.327C544.661 486.1 544.307 483.858 540.294 472.814C539.894 471.714 540.004 470.981 540.539 471.181C541.072 471.379 546.648 473.506 552.929 475.907ZM980.473 475.659C994.612 481.162 993.775 479.908 994.418 496.562C996.447 549.096 953.692 592.58 887.245 605.564C875.214 607.915 838.456 608.839 832.666 606.936C829.567 605.917 817.355 586.984 820.245 587.677C838.176 591.979 868.497 592.677 885.006 589.167C949.047 575.554 986.301 526.508 970.162 477.056C969.084 473.749 968.293 471.043 968.407 471.043C968.521 471.043 973.951 473.121 980.473 475.659ZM1409.85 475.907C1423.03 480.945 1422.16 479.669 1423.31 495.725C1427.75 557.679 1359.78 610.558 1279.09 607.932C1257.89 607.242 1259.62 607.954 1252.98 597.172C1246.29 586.317 1246.07 587.015 1255.45 589.23C1265.9 591.698 1301.08 591.904 1311.82 589.56C1368.04 577.283 1401.49 544.025 1401.56 500.327C1401.58 486.1 1401.23 483.858 1397.22 472.814C1396.82 471.714 1396.93 470.981 1397.46 471.181C1397.99 471.379 1403.57 473.506 1409.85 475.907ZM-0.922587 483.593C-0.922587 490.705 -0.664542 491.96 0.79771 491.96C10.5142 491.96 11.8753 506.074 2.30189 507.564L-0.922587 508.066V516.853V525.641L3.60179 525.078C23.682 522.579 35.7434 507.099 29.4944 491.847C26.0248 483.38 12.5925 475.227 2.11159 475.227H-0.922587V483.593ZM417.005 476.383C383.156 486.195 391.563 524.963 427.539 524.963C468.722 524.963 470.406 476.928 429.274 475.487C424.002 475.302 419.634 475.621 417.005 476.383ZM844.178 476.686C837.111 478.626 827.934 486.108 825.583 491.847C815.212 517.162 854.626 536.536 878.579 517.897C903.01 498.885 876.966 467.683 844.178 476.686ZM1273.93 476.383C1240.08 486.195 1248.49 524.963 1284.46 524.963C1325.64 524.963 1327.33 476.928 1286.2 475.487C1280.93 475.302 1276.56 475.621 1273.93 476.383ZM1701.1 476.686C1670.88 484.983 1676.33 521.087 1708.4 525.078L1712.92 525.641V516.853V508.066L1709.7 507.564C1700.12 506.074 1701.49 491.96 1711.2 491.96C1712.66 491.96 1712.92 490.705 1712.92 483.593V475.227L1709.43 475.293C1707.51 475.329 1703.76 475.956 1701.1 476.686ZM609.387 493.612C610.389 498.741 608.106 519.925 605.554 529.192C587.314 595.397 508.655 644.04 423.83 641.569L414.747 641.305L412.322 633.357C410.987 628.985 409.873 625.22 409.845 624.99C409.818 624.76 416.448 624.688 424.58 624.83C514.679 626.406 587.408 571.262 587.683 501.163L587.741 486.522L598.194 488.173L608.648 489.824L609.387 493.612ZM1037.04 504.184C1036.33 579.861 954.42 641.651 854.72 641.717C842.044 641.725 843.361 642.913 839.311 627.819L838.611 625.21L859.401 624.744C949.159 622.733 1016.24 569.324 1016.26 499.854L1016.26 486.414L1026.72 488.233L1037.17 490.052L1037.04 504.184ZM1466.31 493.612C1467.31 498.741 1465.03 519.925 1462.48 529.192C1444.24 595.397 1365.58 644.04 1280.75 641.569L1271.67 641.305L1269.24 633.357C1267.91 628.985 1266.8 625.22 1266.77 624.99C1266.74 624.76 1273.37 624.688 1281.5 624.83C1372.87 626.427 1447.43 568.378 1445.03 497.512L1444.66 486.522L1455.12 488.173L1465.57 489.824L1466.31 493.612ZM223.791 500.272V508.585H213.039H202.287V500.272V491.96H213.039H223.791V500.272ZM435.334 494.907C441.062 500.037 436.356 507.857 427.539 507.857C419.248 507.857 414.339 500.669 419.052 495.433C422.71 491.369 431.081 491.098 435.334 494.907ZM652.79 500.287V508.614L642.038 508.585L631.286 508.554V500.257V491.96H642.038H652.79V500.287ZM863.096 494.805C871.651 501.462 861.347 511.485 850.565 506.995C841.946 503.406 846.084 491.96 856 491.96C858.479 491.96 860.462 492.755 863.096 494.805ZM1080.71 500.272V508.585H1069.96H1059.21V500.272V491.96H1069.96H1080.71V500.272ZM1292.26 494.907C1297.98 500.037 1293.28 507.857 1284.46 507.857C1276.17 507.857 1271.26 500.669 1275.97 495.433C1279.63 491.369 1288 491.098 1292.26 494.907ZM1509.71 500.287V508.614L1498.96 508.585L1488.21 508.554V500.257V491.96H1498.96H1509.71V500.287ZM249.058 527.953C332.662 541.584 392.065 596.333 394.468 661.971L395.01 676.78L392.459 677.239C380.503 679.393 375.775 680.187 374.855 680.197C374.184 680.205 373.758 675.099 373.722 666.614C373.429 596.745 303.183 542.203 213.308 542.061C203.699 542.046 195.836 541.834 195.836 541.59C195.836 541.346 196.515 539.022 197.343 536.424C198.172 533.827 199.175 530.234 199.572 528.44L200.294 525.179L219.3 525.689C232.198 526.036 241.762 526.764 249.058 527.953ZM676.982 527.94C763.743 542.156 823.664 599.419 823.736 668.185L823.744 676.657L813.799 678.44C808.33 679.419 803.554 680.219 803.186 680.216C802.819 680.213 802.252 672.962 801.924 664.104C799.343 594.252 730.805 542.132 641.439 542.066L624.176 542.054L626.578 533.949C627.899 529.492 629.016 525.696 629.059 525.514C629.31 524.444 667.413 526.372 676.982 527.94ZM1105.98 527.953C1189.58 541.584 1248.99 596.333 1251.39 661.971L1251.93 676.78L1249.38 677.239C1237.43 679.393 1232.7 680.187 1231.78 680.197C1231.11 680.205 1230.68 675.099 1230.65 666.614C1230.35 596.745 1160.11 542.203 1070.23 542.061C1060.62 542.046 1052.76 541.834 1052.76 541.59C1052.76 541.346 1053.44 539.022 1054.27 536.424C1055.09 533.827 1056.1 530.234 1056.49 528.44L1057.22 525.179L1076.22 525.689C1089.12 526.036 1098.68 526.764 1105.98 527.953ZM1533.9 527.94C1620.67 542.156 1680.59 599.419 1680.66 668.185L1680.67 676.657L1670.72 678.44C1665.25 679.419 1660.48 680.219 1660.11 680.216C1659.74 680.213 1659.17 672.962 1658.85 664.104C1656.27 594.252 1587.73 542.132 1498.36 542.066L1481.1 542.054L1483.5 533.949C1484.82 529.492 1485.94 525.696 1485.98 525.514C1486.23 524.444 1524.34 526.372 1533.9 527.94ZM247.983 562.132C315.931 575.867 363.79 631.88 351.015 682.72L350.068 686.485L337.897 691.21C327.058 695.418 325.782 695.739 326.246 694.139C326.532 693.151 327.626 689.518 328.676 686.067C348.403 621.268 268.597 561.49 184.239 577.879C180.522 578.601 177.242 579.006 176.95 578.779C176.506 578.433 186.592 561.73 187.915 560.621C191.281 557.8 231.567 558.814 247.983 562.132ZM665.283 560.187C720.373 567.647 763.3 599.175 777.249 642.42C780.297 651.87 781.499 680.449 779.039 684.981C777.731 687.393 753.399 696.896 754.291 694.647C759.819 680.694 760.716 657.099 756.206 644.252C738.706 594.402 675.702 565.424 612.134 577.987C607.884 578.826 604.407 579.441 604.407 579.352C604.407 579.264 607.1 575.002 610.391 569.881C616.5 560.377 616.555 560.334 623.76 559.451C631.09 558.552 656.547 559.004 665.283 560.187ZM1104.91 562.132C1170.4 575.37 1215.6 625.052 1208.73 676.236C1207.24 687.307 1208.54 685.945 1194.17 691.478C1183.89 695.434 1182.71 695.717 1183.17 694.125C1183.46 693.144 1184.55 689.518 1185.6 686.067C1205.33 621.268 1125.52 561.49 1041.16 577.879C1037.45 578.601 1034.16 579.006 1033.87 578.779C1033.43 578.433 1043.51 561.73 1044.84 560.621C1048.2 557.8 1088.49 558.814 1104.91 562.132ZM1522.21 560.187C1577.21 567.636 1620.25 599.247 1634.17 642.42C1637.22 651.87 1638.42 680.449 1635.96 684.981C1634.65 687.393 1610.32 696.896 1611.21 694.647C1616.74 680.694 1617.64 657.099 1613.13 644.252C1595.63 594.402 1532.62 565.424 1469.06 577.987C1464.81 578.826 1461.33 579.441 1461.33 579.352C1461.33 579.264 1464.02 575.002 1467.31 569.881C1473.42 560.377 1473.48 560.334 1480.68 559.451C1488.01 558.552 1513.47 559.004 1522.21 560.187ZM235.25 594.108C297.804 604.802 329.247 662.809 295.572 705.39C245.78 768.351 121.721 743.75 117.656 670.109C114.896 620.085 171.858 583.27 235.25 594.108ZM661.41 593.604C735.252 605.138 763.381 677.896 710.037 719.384C659.59 758.62 573.095 743.089 550.811 690.793C527.402 635.858 588.454 582.209 661.41 593.604ZM1092.17 594.108C1163.52 606.305 1190.56 676.348 1140.02 718.038C1081.82 766.046 978.217 736.032 974.579 670.109C971.819 620.085 1028.78 583.27 1092.17 594.108ZM1518.33 593.604C1601.49 606.593 1622.37 693.029 1551.13 729.402C1499.05 755.998 1427.29 736.677 1407.73 690.793C1384.32 635.858 1445.38 582.209 1518.33 593.604ZM200.218 609.111C139.39 619.105 117.461 674.391 160.893 708.251C207.652 744.704 288.302 718.48 288.302 666.823C288.302 631.047 243.873 601.938 200.218 609.111ZM626.514 609.582C570.838 619.283 547.741 670.936 584.174 704.265C626.909 743.358 707.513 724.638 716.345 673.569C722.997 635.105 675.244 601.091 626.514 609.582ZM1057.14 609.111C996.313 619.105 974.383 674.391 1017.82 708.251C1064.57 744.704 1145.22 718.48 1145.22 666.823C1145.22 631.047 1100.8 601.938 1057.14 609.111ZM1483.44 609.582C1427.76 619.283 1404.66 670.936 1441.1 704.265C1483.83 743.358 1564.44 724.638 1573.27 673.569C1579.92 635.105 1532.17 601.091 1483.44 609.582ZM221.641 625.851C249.836 629.272 270.608 651.34 265.915 672.889C257.1 713.368 188.84 721.295 165.445 684.557L160.893 677.408V666.823V656.239L165.445 649.089C176.27 632.09 198.229 623.01 221.641 625.851ZM652.234 626.257C668.898 629.003 681.894 636.938 689.632 649.089L694.185 656.239V666.823V677.408L689.632 684.557C666.237 721.295 597.977 713.368 589.163 672.889C583.133 645.206 616.687 620.398 652.234 626.257ZM1078.56 625.851C1106.76 629.272 1127.53 651.34 1122.84 672.889C1114.02 713.368 1045.76 721.295 1022.37 684.557L1017.82 677.408V666.823V656.239L1022.37 649.089C1033.19 632.09 1055.15 623.01 1078.56 625.851ZM1515.09 627.435C1545.35 634.764 1560.6 662.503 1546.52 684.609C1529.97 710.607 1487.16 716.316 1461.04 696.009C1421.93 665.608 1462.13 614.609 1515.09 627.435ZM98.9621 644.256C76.2359 710.728 156.409 772.76 242.943 755.66C247.194 754.821 250.671 754.206 250.671 754.294C250.671 755.732 238.284 773.083 236.944 773.522C232.618 774.939 200.85 774.961 190.46 773.554C122.204 764.315 74.8436 720.366 74.993 666.405C75.0478 646.668 74.3726 647.843 88.8607 642.286C102.874 636.913 101.561 636.657 98.9621 644.256ZM527.661 643.55C505.786 711.613 583.765 772.795 670.723 755.799C679.629 754.058 679.561 753.802 672.973 764.208C666.131 775.014 668.235 774.353 640.963 774.276C572.35 774.082 518.222 738.804 504.815 685.543C502.789 677.491 502.357 657.725 504.06 650.927L505.003 647.162L516.804 642.528C530.731 637.061 529.775 636.971 527.661 643.55ZM955.885 644.256C933.159 710.728 1013.33 772.76 1099.87 755.66C1104.12 754.821 1107.59 754.206 1107.59 754.294C1107.59 755.732 1095.21 773.083 1093.87 773.522C1089.54 774.939 1057.77 774.961 1047.38 773.554C979.127 764.315 931.766 720.366 931.916 666.405C931.97 646.668 931.295 647.843 945.783 642.286C959.796 636.913 958.483 636.657 955.885 644.256ZM1384.58 643.55C1362.69 711.66 1440.58 772.704 1527.76 755.768C1536.54 754.063 1536.48 753.816 1529.9 764.208C1523.05 775.014 1525.16 774.353 1497.89 774.276C1416.04 774.045 1351.85 719.561 1360.19 657.411C1361.67 646.366 1360.46 647.665 1374.41 642.239C1387.58 637.114 1386.69 636.999 1384.58 643.55ZM201.317 643.546C194.335 645.633 186.854 651.164 183.837 656.473C169.465 681.755 210.561 703.914 235.698 684.436C260.412 665.286 233.937 633.798 201.317 643.546ZM630.749 643.202C618.888 646.237 609.783 656.496 609.783 666.823C609.783 690.243 648.243 700.856 666.826 682.563C687.029 662.673 661.882 635.236 630.749 643.202ZM1058.24 643.546C1051.26 645.633 1043.78 651.164 1040.76 656.473C1026.39 681.755 1067.48 703.914 1092.62 684.436C1117.33 665.286 1090.86 633.798 1058.24 643.546ZM1487.67 643.202C1475.81 646.237 1466.71 656.496 1466.71 666.823C1466.71 690.243 1505.17 700.856 1523.75 682.563C1543.95 662.673 1518.8 635.236 1487.67 643.202ZM53.1538 669.542C55.7343 739.395 124.272 791.514 213.638 791.58L230.901 791.593L228.571 799.698L226.243 807.802L208.083 807.699C112.435 807.159 35.3327 746.989 31.6448 670.008L31.0158 656.877L33.5941 656.464C35.0112 656.236 39.0743 655.499 42.6224 654.826C53.5033 652.762 52.4808 651.334 53.1538 669.542ZM481.355 667.032C481.648 736.902 551.895 791.444 641.769 791.585C651.379 791.6 659.238 791.867 659.235 792.177C659.231 792.487 658.783 794.059 658.239 795.67C657.694 797.281 656.68 800.816 655.987 803.528L654.724 808.458L636.286 807.987C539.247 805.506 463.353 746.618 460.609 671.676L460.067 656.867L462.619 656.412C464.022 656.163 468.073 655.432 471.621 654.79C475.169 654.148 478.798 653.581 479.685 653.53C481.055 653.451 481.307 655.482 481.355 667.032ZM910.076 669.542C912.657 739.395 981.195 791.514 1070.56 791.58L1087.82 791.593L1085.49 799.698L1083.17 807.802L1065.01 807.699C967.486 807.148 888.346 743.454 888.264 665.453L888.256 656.972L897.126 655.302C902.005 654.384 906.78 653.588 907.739 653.535C909.27 653.448 909.553 655.386 910.076 669.542ZM1338.28 667.032C1338.57 736.902 1408.82 791.444 1498.69 791.585C1508.3 791.6 1516.16 791.867 1516.16 792.177C1516.15 792.487 1515.71 794.059 1515.16 795.67C1514.62 797.281 1513.6 800.816 1512.91 803.528L1511.65 808.458L1493.21 807.987C1396.17 805.506 1320.28 746.618 1317.53 671.676L1316.99 656.867L1319.54 656.412C1320.94 656.163 1325 655.432 1328.54 654.79C1332.09 654.148 1335.72 653.581 1336.61 653.53C1337.98 653.451 1338.23 655.482 1338.28 667.032ZM220.834 661.814C224.579 665.014 224.662 668.4 221.074 671.718C214.504 677.794 203.363 674.603 203.363 666.646C203.363 659.018 214.088 656.052 220.834 661.814ZM438.291 666.823V675.19H427.539H416.787V666.823V658.457H427.539H438.291V666.823ZM646.36 659.72C655.75 663.498 652.518 674.734 642.043 674.734C632.32 674.734 628.053 666.662 634.942 661.301C638.96 658.175 641.609 657.808 646.36 659.72ZM866.752 666.823V675.19H856H845.248V666.823V658.457H856H866.752V666.823ZM1077.76 661.814C1081.93 665.375 1081.7 668.731 1077.06 672.345C1070.15 677.721 1060.29 674.368 1060.29 666.646C1060.29 659.018 1071.01 656.052 1077.76 661.814ZM1295.21 666.823V675.19H1284.46H1273.71V666.823V658.457H1284.46H1295.21V666.823ZM1503.28 659.72C1512.67 663.498 1509.44 674.734 1498.97 674.734C1489.24 674.734 1484.98 666.662 1491.86 661.301C1495.88 658.175 1498.53 657.808 1503.28 659.72ZM442.086 698.198C443.033 701.419 444.131 705.039 444.527 706.241L445.247 708.428L424.028 708.888C333.927 710.845 264.629 766.987 266.965 836.135L267.336 847.125L256.883 845.473L246.429 843.823L245.69 840.035C244.688 834.905 246.971 813.722 249.524 804.455C267.596 738.855 343.213 691.31 428.039 692.211L440.366 692.342L442.086 698.198ZM868.566 692.969C869.333 693.897 870.276 696.837 872.689 705.828L873.389 708.437L852.599 708.903C762.842 710.914 695.749 764.325 695.721 833.79L695.716 847.23L685.273 845.412L674.831 843.594L674.964 829.463C675.609 760.267 745.379 700.926 835.572 692.861C848.657 691.692 867.559 691.753 868.566 692.969ZM1299.01 698.198C1299.96 701.419 1301.05 705.039 1301.45 706.241L1302.17 708.428L1280.95 708.888C1192.05 710.819 1124.59 764.049 1124.32 832.483L1124.26 847.125L1113.81 845.473L1103.35 843.823L1102.61 840.035C1101.61 834.905 1103.89 813.722 1106.45 804.455C1124.52 738.855 1200.14 691.31 1284.96 692.211L1297.29 692.342L1299.01 698.198ZM450.655 726.719C453.029 727.193 465.692 744.924 464.383 745.943C464.208 746.079 460.684 745.393 456.554 744.417C444.786 741.637 410.873 741.724 397.971 744.568C355.263 753.981 324.611 777.852 313.319 810.498C309.395 821.841 309.149 844.99 312.841 855.421C315.721 863.556 316.82 863.282 302.817 857.915C289.103 852.658 289.852 853.698 288.73 838.34C284.823 784.85 336.411 735.384 405.228 726.635C414.579 725.446 444.552 725.501 450.655 726.719ZM879.334 726.788C882.412 727.699 894.702 746.676 891.755 745.969C873.824 741.667 843.503 740.97 826.994 744.479C762.953 758.093 725.699 807.139 741.838 856.59C742.916 859.898 743.707 862.603 743.593 862.603C741.745 862.603 719.447 852.964 718.884 851.922C717.062 848.556 717.034 823.835 718.842 815.75C729.28 769.056 777.085 732.883 837.184 726.202C844.832 725.351 875.939 725.784 879.334 726.788ZM1307.58 726.719C1309.95 727.193 1322.61 744.924 1321.31 745.943C1321.13 746.079 1317.61 745.393 1313.48 744.417C1303.03 741.948 1267.84 741.743 1257.11 744.087C1212.4 753.85 1181.72 777.287 1170.26 810.448C1166.32 821.843 1166.06 844.966 1169.76 855.421C1172.64 863.556 1173.74 863.282 1159.74 857.915C1146.03 852.658 1146.77 853.698 1145.65 838.34C1141.75 784.85 1193.33 735.384 1262.15 726.635C1271.5 725.446 1301.48 725.501 1307.58 726.719ZM443.737 759.736C529.523 771.56 552.732 858.845 479.997 896.098C418.486 927.604 335.757 894.925 331.681 837.512C328.301 789.9 383.686 751.459 443.737 759.736ZM881.556 761.337C953.977 778.104 976.196 847.918 921.815 887.838C860.824 932.61 760.208 898.966 760.327 833.84C760.397 796.25 792.374 766.72 840.947 759.39C848.05 758.319 873.864 759.556 881.556 761.337ZM1300.66 759.736C1386.46 771.561 1409.66 858.84 1336.92 896.098C1275.41 927.604 1192.68 894.925 1188.6 837.512C1185.22 789.9 1240.61 751.459 1300.66 759.736ZM-0.922587 783.363V792.094L6.19084 792.538C21.4219 793.49 39.5753 803.571 46.8264 815.103C62.6488 840.269 42.86 869.755 6.99938 874.444L-0.922587 875.48V883.683V891.887H3.43514C21.8928 891.887 45.0674 882.525 57.6922 869.969C94.9011 832.964 65.9625 780.654 5.25973 775.189L-0.922587 774.633V783.363ZM416.665 775.537C344.498 784.45 328.899 860.616 394.112 885.66C458.275 910.302 526.122 857.813 494.755 807.802C480.704 785.401 447.588 771.718 416.665 775.537ZM844.986 775.61C787.875 782.594 761.7 834.48 797.385 869.969C830.978 903.378 900.208 897.346 923.643 858.968C949.333 816.9 903.607 768.441 844.986 775.61ZM1273.59 775.537C1201.42 784.45 1185.82 860.616 1251.03 885.66C1315.26 910.326 1383.07 857.869 1351.68 807.802C1337.63 785.403 1304.51 771.718 1273.59 775.537ZM1701.91 775.661C1652.38 781.307 1623.66 823.559 1645.28 858.968C1656.54 877.407 1684.38 891.887 1708.56 891.887H1712.92V883.683V875.48L1705 874.444C1669.14 869.755 1649.35 840.269 1665.17 815.103C1672.42 803.571 1690.58 793.49 1705.81 792.538L1712.92 792.094V783.424C1712.92 773.55 1713.97 774.286 1701.91 775.661ZM443.492 794.016C481.809 803.225 493.356 841.513 464.353 863.184C428.942 889.644 371.455 868.641 374.601 830.392C376.758 804.16 410.835 786.166 443.492 794.016ZM878.794 796.286C926.001 814.489 915.812 867.607 863.795 874.466C828.728 879.091 796.599 853.24 803.706 826.119C810.811 799.012 847.775 784.325 878.794 796.286ZM1300.41 794.016C1338.73 803.225 1350.28 841.513 1321.28 863.184C1285.86 889.644 1228.38 868.641 1231.52 830.392C1233.68 804.16 1267.76 786.166 1300.41 794.016ZM565.039 817.074C566.582 822.079 566.401 844.6 564.76 851.727C552.002 907.135 485.659 946.879 415.312 941.258C408.436 940.708 402.631 940.123 402.413 939.957C401.572 939.319 390.581 921.622 390.881 921.388C391.056 921.253 395.504 921.981 400.767 923.006C454.809 933.535 516.751 908.522 536.796 868.075C545.451 850.61 547.621 828.535 542.294 812.128C540.975 808.065 539.896 804.655 539.896 804.55C539.896 804.445 545.325 806.483 551.961 809.078C563.53 813.603 564.07 813.933 565.039 817.074ZM1421.96 817.074C1423.5 822.079 1423.32 844.6 1421.68 851.727C1408.92 907.135 1342.58 946.879 1272.23 941.258C1265.36 940.708 1259.55 940.123 1259.34 939.957C1258.49 939.319 1247.5 921.622 1247.8 921.388C1247.98 921.253 1252.43 921.981 1257.69 923.006C1311.73 933.535 1373.67 908.522 1393.72 868.075C1402.37 850.61 1404.54 828.535 1399.22 812.128C1397.9 808.065 1396.82 804.655 1396.82 804.55C1396.82 804.445 1402.25 806.483 1408.88 809.078C1420.45 813.603 1420.99 813.933 1421.96 817.074ZM981.693 809.449C994.946 814.489 994.184 812.971 994.085 834.157C993.837 887.421 948.084 929.985 880.192 940.115C869.757 941.671 844.393 941.989 835.572 940.673L830.733 939.951L824.661 930.48C819.253 922.045 818.841 921.052 820.897 921.413C822.167 921.635 826.836 922.487 831.271 923.304C911.352 938.066 989.805 877.985 971.715 815.75C968.569 804.928 968.513 804.633 969.664 804.97C970.267 805.147 975.681 807.162 981.693 809.449ZM-0.922587 816.793V825.581L2.30189 826.083C11.8753 827.573 10.5142 841.687 0.79771 841.687C-0.664542 841.687 -0.922587 842.942 -0.922587 850.053V858.42H2.11159C12.5925 858.42 26.0248 850.267 29.4944 841.8C35.7434 826.547 23.682 811.068 3.60179 808.569L-0.922587 808.006V816.793ZM418.937 809.34C383.027 818.597 389.992 858.002 427.539 858.002C468.886 858.002 470.544 810.762 429.273 808.555C425.954 808.376 421.303 808.73 418.937 809.34ZM845.777 809.672C822.82 816.068 816.348 837.617 833.378 850.952C857.775 870.054 898.175 849.83 886.04 824.591C880.123 812.285 861.357 805.332 845.777 809.672ZM1275.86 809.34C1239.95 818.597 1246.91 858.002 1284.46 858.002C1325.81 858.002 1327.47 810.762 1286.2 808.555C1282.88 808.376 1278.23 808.73 1275.86 809.34ZM1702.7 809.723C1685.55 814.337 1676.89 828.097 1682.51 841.8C1685.98 850.267 1699.41 858.42 1709.89 858.42H1712.92V850.053C1712.92 842.942 1712.66 841.687 1711.2 841.687C1701.49 841.687 1700.12 827.573 1709.7 826.083L1712.92 825.581V816.9C1712.92 806.935 1712.96 806.962 1702.7 809.723ZM600.323 822.03L608.604 823.43L609.327 827.179C610.335 832.408 608.912 847.917 606.437 858.679C590.637 927.39 509.533 978.203 420.956 974.889L414.374 974.642L412.546 967.478C411.54 963.538 410.506 959.883 410.246 959.358C409.905 958.665 414.736 958.393 427.796 958.371C517.156 958.215 587.257 904.005 587.655 834.748C587.739 820.308 587.806 819.873 589.892 820.245C591.074 820.457 595.769 821.259 600.323 822.03ZM1023.57 821.105C1026.91 821.751 1031.53 822.53 1033.83 822.839L1038.01 823.4L1037.41 837.773C1034.44 907.992 969.385 963.976 879.179 973.933C871.617 974.767 844.336 975.123 843.406 974.4C842.884 973.992 838.873 960.723 838.825 959.238C838.808 958.715 845.357 958.385 856.269 958.357C946.083 958.129 1016.2 903.433 1016.28 833.529C1016.29 826.052 1016.57 819.933 1016.9 819.933C1017.23 819.933 1020.24 820.461 1023.57 821.105ZM1457.25 822.03L1465.53 823.43L1466.25 827.179C1467.26 832.408 1465.83 847.917 1463.36 858.679C1447.56 927.369 1366.43 978.202 1277.88 974.889L1271.3 974.642L1269.47 967.478C1268.46 963.538 1267.43 959.883 1267.17 959.358C1266.83 958.665 1271.66 958.393 1284.72 958.371C1375.79 958.212 1447.55 900.817 1445.03 830.143C1444.68 820.213 1444.74 819.868 1446.81 820.242C1448 820.455 1452.69 821.259 1457.25 822.03ZM223.791 833.374V841.687H213.039H202.287V833.374V825.062H213.039H223.791V833.374ZM652.79 833.352V841.687H642.038H631.286V833.361V825.036L642.038 825.026L652.79 825.016V833.352ZM1080.71 833.361V841.687H1069.96H1059.21V833.352V825.016L1069.96 825.026L1080.71 825.036V833.361ZM1509.71 833.352V841.687H1498.96H1488.21V833.361V825.036L1498.96 825.026L1509.71 825.016V833.352ZM434.864 828.137C441.324 833.384 436.926 841.268 427.539 841.268C423.367 841.268 422.074 840.87 419.919 838.921C414.032 833.595 418.561 825.79 427.539 825.79C430.995 825.79 432.612 826.308 434.864 828.137ZM861.435 826.652C870.054 830.241 865.916 841.687 856 841.687C851.913 841.687 845.248 837.045 845.248 834.198C845.248 827.9 854.3 823.68 861.435 826.652ZM1291.79 828.137C1298.25 833.384 1293.85 841.268 1284.46 841.268C1280.29 841.268 1279 840.87 1276.84 838.921C1270.95 833.595 1275.48 825.79 1284.46 825.79C1287.92 825.79 1289.54 826.308 1291.79 828.137ZM195.306 943.438C164.147 949.3 140.919 971.022 138.23 996.816L137.481 1004H148.917H160.355V998.649C160.355 983.247 174.293 967.738 193.563 961.698C227.665 951.009 266.668 971.426 266.782 1000.03L266.799 1004H277.55H288.302L288.284 998.771C288.154 962.58 241.416 934.765 195.306 943.438ZM624.835 943.277C592.11 949.087 566.885 973.205 566.794 998.771L566.775 1004H577.527H588.279L588.295 1000.03C588.409 971.426 627.412 951.009 661.514 961.698C680.785 967.738 694.722 983.247 694.722 998.649V1004H706.16H717.597L716.847 996.816C713.061 960.492 669.764 935.3 624.835 943.277ZM1052.23 943.438C1021.07 949.3 997.842 971.022 995.153 996.816L994.403 1004H1005.84H1017.28V998.649C1017.28 983.247 1031.22 967.738 1050.49 961.698C1084.59 951.009 1123.59 971.426 1123.7 1000.03L1123.72 1004H1134.47H1145.22L1145.21 998.771C1145.08 962.58 1098.34 934.765 1052.23 943.438ZM1481.76 943.277C1449.03 949.087 1423.81 973.205 1423.72 998.771L1423.7 1004H1434.45H1445.2L1445.22 1000.03C1445.33 971.426 1484.34 951.009 1518.44 961.698C1537.71 967.738 1551.64 983.247 1551.64 998.649V1004H1563.08H1574.52L1573.77 996.816C1569.98 960.492 1526.69 935.3 1481.76 943.277ZM199.599 977.553C189.139 981.412 182.174 989.504 181.057 999.095L180.485 1004H191.924H203.363V1000.49C203.363 993.251 213.248 989.628 220.237 994.305C222.727 995.972 223.254 996.995 223.254 1000.16V1004H234.418H245.584L245.063 998.352C243.457 980.95 219.768 970.112 199.599 977.553ZM627.201 978.112C616.495 982.275 610.889 988.877 610.015 998.352L609.493 1004H620.659H631.824V1000.16C631.824 996.995 632.351 995.972 634.841 994.305C641.83 989.628 651.715 993.251 651.715 1000.49V1004H663.154H674.593L674.021 999.095C671.852 980.482 648.275 969.917 627.201 978.112ZM1056.52 977.553C1046.06 981.412 1039.1 989.504 1037.98 999.095L1037.41 1004H1048.85H1060.29V1000.49C1060.29 993.251 1070.17 989.628 1077.16 994.305C1079.65 995.972 1080.18 996.995 1080.18 1000.16V1004H1091.34H1102.51L1101.99 998.352C1100.38 980.95 1076.69 970.112 1056.52 977.553ZM1484.12 978.112C1473.42 982.275 1467.81 988.877 1466.94 998.352L1466.42 1004H1477.58H1488.75V1000.16C1488.75 996.995 1489.27 995.972 1491.76 994.305C1498.75 989.628 1508.64 993.251 1508.64 1000.49V1004H1520.08H1531.52L1530.94 999.095C1528.77 980.482 1505.2 969.917 1484.12 978.112Z" fill="#000C24"/>
</svg>
