<svg width="44" height="43" fill="none" xmlns="http://www.w3.org/2000/svg"><path fill-rule="evenodd" clip-rule="evenodd" d="M22.25 41.643c11.091 0 20.082-8.99 20.082-20.082 0-11.09-8.991-20.081-20.082-20.081-11.09 0-20.082 8.99-20.082 20.081S11.16 41.644 22.25 41.644Zm-5.368-2.926c1.695.53 3.498.815 5.368.815 1.858 0 3.649-.282 5.334-.805v-4.393a5.334 5.334 0 0 0-1.594-3.807c5.9-1.038 8.368-4.631 8.368-8.907 0-2.075-.69-3.995-2.046-5.535.766-2.381-.028-4.417-.208-4.88-.01-.023-.017-.042-.022-.057-2.26-.205-4.602 1.477-5.075 1.837-1.393-.377-2.975-.582-4.749-.582-1.765 0-3.342.197-4.723.57-.197-.156-2.723-2.114-5.154-1.896l-.017.043c-.175.438-1.01 2.539-.188 4.978-1.339 1.535-2.021 3.439-2.021 5.51 0 4.267 2.452 7.856 8.334 8.91a5.278 5.278 0 0 0-1.452 2.544c-1.092.272-3.246.548-4.35-1.087-1.528-2.255-2.846-3.088-4.139-2.423-.287.331.085.58.612.936.473.317 1.07.72 1.434 1.34.056.092.109.25.175.453.39 1.18 1.267 3.834 6.113 3.266v3.17Z" fill="#928A97"/></svg>