<svg width="44" height="44" viewBox="0 0 44 44" fill="none" xmlns="http://www.w3.org/2000/svg">
<path fill-rule="evenodd" clip-rule="evenodd" d="M21.8093 42.1576C32.9001 42.1576 41.891 33.1667 41.891 22.0759C41.891 10.985 32.9001 1.99414 21.8093 1.99414C10.7184 1.99414 1.72755 10.985 1.72755 22.0759C1.72755 33.1667 10.7184 42.1576 21.8093 42.1576ZM16.4415 39.231C18.1366 39.7609 19.9396 40.0464 21.8093 40.0464C23.6666 40.0464 25.4581 39.7646 27.1433 39.2415V34.8487C27.1439 34.14 27.0032 33.4383 26.7295 32.7847C26.4558 32.131 26.0546 31.5384 25.5494 31.0415C31.4484 30.0039 33.9167 26.4102 33.9167 22.1344C33.9167 20.0593 33.2264 18.139 31.8709 16.5994C32.6368 14.2181 31.8434 12.1829 31.6627 11.7192C31.6538 11.6966 31.6465 11.6777 31.6408 11.6626C29.3816 11.4576 27.0388 13.1395 26.566 13.4993C25.1728 13.1227 23.5914 12.9177 21.8175 12.9177C20.052 12.9177 18.4747 13.1144 17.0941 13.4867C16.8975 13.3319 14.3705 11.374 11.9398 11.5915C11.9352 11.6033 11.9296 11.6175 11.9229 11.6342C11.7485 12.0726 10.9125 14.1733 11.7348 16.6119C10.396 18.1474 9.71409 20.0509 9.71409 22.1219C9.71409 26.3892 12.1657 29.9788 18.048 31.0331C17.3451 31.7151 16.8347 32.5936 16.5963 33.5768C15.5043 33.8488 13.3497 34.1249 12.2452 32.4891C10.7182 30.234 9.40032 29.4015 8.10755 30.0667C7.82057 30.3978 8.19172 30.6474 8.71945 31.0023C9.19187 31.32 9.78977 31.7221 10.1534 32.3426C10.2091 32.4345 10.2616 32.5934 10.3284 32.7956C10.7182 33.9753 11.5952 36.6298 16.4415 36.0619V39.231Z" fill="#928A97"/>
</svg>
