<svg width="43" height="43" fill="none" xmlns="http://www.w3.org/2000/svg"><g clip-path="url(#a)"><path d="M21.491.998C10.134.998.928 10.204.928 21.562c0 11.357 9.206 20.563 20.563 20.563 11.358 0 20.564-9.206 20.564-20.563C42.055 10.204 32.85.998 21.491.998Zm-5.033 29.087h-4.165v-13.4h4.165v13.4ZM14.35 15.039c-1.315 0-2.166-.932-2.166-2.084 0-1.176.876-2.08 2.22-2.08 1.342 0 2.165.904 2.19 2.08 0 1.152-.848 2.084-2.244 2.084Zm17.316 15.046h-4.164v-7.427c0-1.728-.604-2.902-2.11-2.902-1.15 0-1.834.795-2.136 1.56-.111.271-.139.657-.139 1.04v7.727h-4.166v-9.125c0-1.673-.054-3.072-.11-4.276h3.619l.19 1.862h.084c.548-.875 1.891-2.164 4.138-2.164 2.74 0 4.794 1.836 4.794 5.781v7.924Z" fill="#928A97"/></g><defs><clipPath id="a"><path fill="#fff" transform="translate(.07 .14)" d="M0 0h42.841v42.841H0z"/></clipPath></defs></svg>