<svg width="44" height="43" fill="none" xmlns="http://www.w3.org/2000/svg"><path fill-rule="evenodd" clip-rule="evenodd" d="M22.01 41.643c11.09 0 20.081-8.991 20.081-20.082 0-11.09-8.99-20.082-20.082-20.082-11.09 0-20.081 8.991-20.081 20.082 0 11.09 8.99 20.082 20.081 20.082Zm9.02-24.094c0-.201 0-.406-.013-.603a9.74 9.74 0 0 0 2.33-2.41 9.192 9.192 0 0 1-2.678.724 4.625 4.625 0 0 0 2.042-2.556 9.18 9.18 0 0 1-2.95 1.117 4.638 4.638 0 0 0-3.392-1.464c-2.837 0-5.197 2.556-4.54 5.715a13.192 13.192 0 0 1-9.58-4.857 4.555 4.555 0 0 0-.632 2.342 4.649 4.649 0 0 0 2.07 3.866 4.649 4.649 0 0 1-2.095-.59v.059a4.644 4.644 0 0 0 3.72 4.56c-.737.188-1.382.188-2.097.084a4.648 4.648 0 0 0 4.343 3.221 9.322 9.322 0 0 1-5.77 1.983c-.385 0-.744-.016-1.12-.058a13.177 13.177 0 0 0 7.137 2.083c8.547 0 13.224-7.075 13.224-13.216Z" fill="#928A97"/></svg>