<svg width="235" height="276" viewBox="0 0 235 276" fill="none" xmlns="http://www.w3.org/2000/svg">
<path d="M166.193 242.697C167.725 235.838 163.092 230.998 160.414 225.565C160.086 224.891 158.385 224.906 157.075 224.528L155.084 217.793L151.839 220.004C150.663 216.716 150.04 216.902 143.977 222.835C146.027 213.885 145.437 212.288 140.293 212.548C138.455 210.491 143.37 207.608 139.385 205.781C135.047 203.802 135.11 208.763 132.149 209.686C133.407 207.007 134.666 204.304 135.924 201.649C136.881 200.132 137.759 198.567 138.554 196.959C138.974 195.864 139.226 193.944 138.645 193.394C137.252 192.085 135.589 190.639 133.215 192.29C130.136 194.449 126.749 196.13 123.168 197.277C126.125 194.665 129.245 192.2 131.946 189.392C133.034 188.23 133.32 186.382 133.966 184.841L129.117 184.716C130.336 183.558 131.638 182.403 132.988 181.248C133.474 180.856 134.459 180.917 134.744 180.473C138.201 175.091 142.602 169.971 144.68 164.079C146.454 158.939 142.293 153.813 137.017 151.334C133.245 149.56 135.56 145.993 134.845 143.298C134.73 141.959 134.821 140.609 135.114 139.297C128.181 139.749 125.709 145.24 121.845 149.326C123.396 144.538 130.128 140.335 122.436 136.081L108.811 129.451L107.333 118.043C108.904 116.157 111.12 113.217 113.661 110.619C114.443 109.806 116.141 109.886 117.411 109.526C118.663 109.083 119.953 108.758 121.266 108.555C122.528 108.468 124.901 108.72 124.94 109.03C125.366 112.799 127.974 112.676 129.943 112.429C131.064 115.074 131.606 118.502 133.218 119.162C134.831 119.821 137.928 118.248 139.864 116.954C140.833 116.277 140.678 113.978 140.919 112.926L163.517 96.2391L164.139 96.5524L162.339 99.955L162.667 101.058C166.856 100.036 171.044 99.0255 174.778 98.1226C175.211 99.323 175.307 101.145 176.117 101.558C179.861 103.486 183.332 102.16 186.391 99.7654L189.395 105.028L188.152 107.125C189.925 107.075 191.115 107.047 192.305 107.03C190.378 110.726 191.9 113.976 197.271 117.385C195.003 120.05 196.249 121.046 199.16 121.632C203.064 122.434 204.191 125.329 201.852 128.385C199.514 131.441 200.839 133.568 202.653 136.088C203.948 138.222 205.133 140.42 206.206 142.673C206.958 143.953 207.963 145.097 208.812 146.308C209.661 147.519 210.322 148.643 211.1 149.828L209.887 150.76L206.39 148.006C205.376 147.195 204.379 145.742 203.356 145.728C201.633 145.684 199.908 146.614 198.183 147.129C199.107 148.164 199.83 149.645 200.982 150.186C205.777 152.391 210.699 154.313 215.335 157.168C212.678 156.434 209.958 155.84 207.39 154.906C204.269 153.708 202.275 154.465 201.502 157.704C200.724 160.589 200.105 163.515 199.647 166.469C199.328 168.38 199.465 170.339 200.047 172.187C201.405 175.79 203.436 179.113 204.868 182.646C205.203 183.476 204.458 184.693 204.467 185.728C204.431 187.131 204.181 189.003 204.944 189.844C210.541 196.041 211.792 201.045 208.314 207.234C213.222 209.228 213.537 213.613 213.85 219.008C212.711 217.281 211.423 215.657 210.003 214.152C208.888 213.206 207.496 212.649 206.036 212.563C205.489 212.549 204.914 214.568 203.372 215.801C203.434 213.954 203.371 212.104 203.182 210.266C202.84 209.267 202.32 208.339 201.647 207.527C199.984 208.642 198.395 209.864 196.89 211.186C196.293 211.753 196.633 213.332 196.036 213.876C191.434 218.003 193.228 222.699 194.497 227.453C194.989 229.748 195.35 232.068 195.579 234.403C193.674 234.045 192.029 233.729 190.36 233.424C186.239 223.471 185.683 222.909 181.775 225.021L178.47 220.381C177.594 222.047 176.519 223.173 176.501 224.326C176.441 226.644 175.333 227.186 173.358 227.218C168.348 227.327 165.918 230.737 166.87 235.793C167.287 238.063 169.622 240.692 166.182 242.637L166.193 242.697ZM139.824 118.975C137.351 119.905 134.94 120.991 132.604 122.226C132.121 122.511 132.202 124.452 132.631 125.343C132.947 126.005 134.616 126.773 135.051 126.499C137.481 124.968 140.614 123.859 139.824 118.975Z" fill="#000C24"/>
<path d="M-12.8788 225.184C-11.0622 227.609 -12.3268 229.146 -14.5731 230.016C-17.5987 231.128 -20.7154 232.082 -23.7976 233.085C-31.0412 235.428 -38.2887 237.766 -45.54 240.101C-45.8639 240.211 -46.2768 240.082 -46.9356 239.34L-18.5338 226.798L-18.7376 225.937L-24.062 225.8L-24.176 225.143C-19.654 223.653 -15.1754 221.997 -10.5898 220.807C-9.46432 220.514 -7.95173 221.814 -6.59658 222.301C-5.88654 222.658 -5.09505 222.822 -4.3016 222.776C1.21438 221.479 6.72032 220.11 10.9777 215.962C11.2567 215.69 11.596 215.487 11.9681 215.369C16.9298 213.892 21.9238 212.546 26.8397 210.995C30.352 209.936 33.7777 208.609 37.0865 207.025C37.7253 206.697 37.4062 204.31 37.3835 202.882C37.4076 201.943 36.6407 200.782 36.9906 200.125C38.2385 197.85 39.3748 195.286 41.2836 193.67C44.7973 190.693 43.1485 188.676 41.1718 186.924L41.7553 181.814L40.8332 181.6C43.8654 178.383 47.1188 175.351 49.8009 171.876C50.7348 170.711 50.2715 168.38 50.3813 167.348C52.4203 164.832 54.1957 162.392 56.2383 160.197C59.1492 157.072 63.2196 156.951 67.0329 156.657C69.1676 156.656 71.2989 156.826 73.4063 157.166C73.7609 157.15 74.1139 157.221 74.4357 157.371C77.7973 159.836 81.1353 162.3 84.4256 164.763C81.2647 166.05 81.4669 167.898 84.5829 170.203C85.8551 171.139 86.5123 172.869 87.6108 174.086C89.9238 176.631 95.148 176.968 98.4171 175.637C100.112 174.943 102.378 175.608 104.506 175.663L103.277 169.804C106.021 171.313 108.096 172.033 109.618 173.392C112.664 176.123 112.632 179.69 112.21 183.615C111.627 189.154 112.124 194.78 115.967 199.339C116.833 200.36 118.477 200.724 119.228 201.124C117.604 204.74 116.183 208.443 114.97 212.217C114.154 215.265 115.689 217.528 118.93 218.706C120.779 219.383 122.334 220.898 124.017 222.036L123.42 223.507C120.598 223.185 117.78 222.696 114.953 222.587C113.589 222.73 112.252 223.06 110.979 223.567C111.501 224.996 111.632 226.843 112.619 227.784C116.101 231.12 120.224 233.557 121.426 239.059C122.044 241.858 125.293 244.07 127.474 246.695C125.452 250.378 126.682 253.442 129.517 256.5C134.527 261.897 139.234 267.561 144.049 273.143C144.343 273.694 144.556 274.285 144.682 274.896C140.95 276.191 139.59 273.576 137.85 271.426C131.663 263.655 125.538 255.815 119.011 248.345C116.945 245.913 113.746 244.522 110.959 242.809C110.479 242.512 109.538 243.034 108.8 243.087C107.441 243.194 105.713 243.816 104.765 243.209C100.446 240.493 97.1347 243.012 94.8341 244.142L91.1224 252.503C90.4181 251.044 89.6118 249.636 88.7095 248.29C87.984 247.368 86.8889 246.019 86.0548 246.081C84.7349 246.379 83.5596 247.127 82.7299 248.196C82.0124 249.131 81.5716 250.248 81.4576 251.421C80.9754 255.369 79.061 255.356 76.1048 253.769C74.647 253.036 72.9631 252.891 71.4014 253.364C69.8397 253.838 68.5197 254.893 67.7144 256.312C66.9563 257.577 65.0963 259.611 64.7209 259.411C62.7735 258.4 61.0336 257.032 59.5918 255.378C57.7607 253.029 56.057 250.583 54.4881 248.051L51.6099 253.603C51.0182 252.565 50.6519 252.008 50.3698 251.418C49.5484 249.601 48.698 248.449 46.7096 250.384C44.9044 252.134 42.9992 252.227 42.4912 249.324C41.7444 245.071 41.3325 240.744 40.8725 236.438C40.8219 235.249 40.8525 234.058 40.9642 232.873C40.4367 232.574 40.2055 232.318 40.0025 232.349C32.2564 233.422 31.7927 232.494 34.3101 224.793C35.149 222.234 35.0445 218.437 33.6719 216.321C31.9333 213.636 28.687 212.232 24.7559 213.867C17.2544 216.992 9.65103 219.912 1.94048 222.378C-2.6369 223.711 -7.58445 224.178 -12.8788 225.184Z" fill="#000C24"/>
<path d="M-10.9939 97.4434C-15.9267 93.1777 -16.9933 93.0314 -20.3762 96.0126L-20.7172 93.0901L-28.1427 84.9426C-24.5571 81.9428 -26.7912 78.6386 -28.7656 75.4124C-27.5539 73.9091 -26.2127 72.515 -24.7575 71.246C-22.7605 69.8165 -20.3722 69.0358 -17.9165 69.0097C-15.4607 68.9835 -13.0564 69.7133 -11.0294 71.0999C-8.85368 72.5117 -7.22278 73.3743 -4.52466 71.1246C-1.43766 68.552 2.71155 67.2198 6.32997 65.2554C10.9014 62.7686 15.1213 64.6968 18.1654 67.4867C20.082 69.2605 19.9808 73.1944 21.0786 77.2068C25.4773 80.0435 33.232 78.6376 35.7408 73.5763C35.954 78.2319 43.1762 80.4158 51.9024 78.2262C50.4363 81.126 50.0259 83.6724 53.6671 84.9792C54.0444 85.1078 54.1387 86.0617 54.3261 86.6374C55.2137 89.7148 56.2836 92.7367 57.5301 95.687C56.9562 97.1945 54.405 98.8177 57.1589 99.947L53.5317 109.641C48.6955 109.017 50.6847 114.444 48.1545 116.639C43.2417 116.679 41.6329 117.731 40.5107 122.055L37.8526 119.977L37.4043 123.533C34.4733 122.816 31.5083 121.574 28.6199 121.511C24.8083 121.434 21.0449 120.644 17.5245 119.18C15.6174 118.515 13.9798 117.245 12.8605 115.564C11.4159 113.469 9.96734 114.3 8.85425 115.96C7.42022 118.076 6.13826 120.291 4.53968 122.331C4.96315 117.43 10.6283 114.495 9.65038 108.595C7.9316 108.836 6.4755 109.037 5.26992 109.208C6.53001 106.457 8.07594 103.69 9.05568 100.742C9.91622 98.2671 6.60093 95.3869 3.78629 95.6951C2.06905 95.8768 0.00599698 95.1696 -1.35628 95.8838C-4.65711 97.5233 -8.49244 92.6674 -10.9939 97.4434Z" fill="#000C24"/>
<path d="M140.41 46.7412C135.633 47.5102 133.459 49.7495 135.164 52.8023C133.07 52.3679 130.79 51.3102 128.737 51.626C126.91 51.9119 125.317 53.7262 124.155 54.5169C118.243 53.1754 112.602 51.948 106.996 50.7096L101.963 43.4443C103.1 40.8215 102.017 36.6906 100.478 35.9731L101.137 26.9872L99.955 26.7189L102.891 26.3306C103.592 20.8185 108.565 19.341 110.877 17.2955C114.79 16.8254 117.564 16.7065 120.243 16.1332C123.281 15.474 127.862 18.1489 130.004 19.9523C134.46 23.8014 135.109 31.37 142.379 32.1637C141.169 32.9888 139.585 33.5427 139.384 34.4057C139.183 35.2687 140.437 36.4784 140.896 37.5962C141.376 38.5089 141.635 39.5219 141.652 40.5532C141.345 42.6358 140.93 44.7012 140.41 46.7412Z" fill="#000C24"/>
<path d="M71.4685 136.351C69.8743 138.937 68.0978 141.408 66.1525 143.742C64.5874 145.402 62.303 146.366 60.3434 147.648C58.6608 148.794 56.5957 149.549 55.4025 151.088C53.7073 153.186 52.566 153.632 50.9207 150.557C50.3867 154.206 48.1365 153.839 46.0918 153.346C43.7273 152.798 42.8745 151.277 43.0232 148.736C43.3272 143.392 42.3729 142.583 37.5871 143.233C39.1753 138.825 37.8878 134.784 36.7116 131.044C39.1574 128.431 41.8267 125.455 44.7028 122.758C45.6781 121.832 47.3584 121.696 48.6009 121.015C54.1146 117.958 59.5396 118.347 64.2728 122.512C65.7382 123.799 67.8224 123.222 69.2365 125.578C70.7517 128.162 73.3013 129.833 71.9013 133.4C71.5577 134.272 72.2503 135.55 72.472 136.638L71.4685 136.351Z" fill="#000C24"/>
<path d="M99.8515 99.1194C98.054 97.3368 96.0195 95.0605 93.7149 93.1102C90.5842 90.4489 90.6251 86.5491 94.0524 82.7721C96.6466 79.937 100.166 78.5886 103.514 79.7214C106.533 80.7386 109.802 82.1785 110.581 86.5633C111.757 93.0989 110.247 95.3791 103.447 96.215C102.015 96.3922 100.775 98.3464 99.8515 99.1194Z" fill="#000C24"/>
<path d="M107.74 58.7919C107.559 62.1291 104.945 64.8091 101.987 64.6853C99.0287 64.5616 95.7162 61.1107 95.7777 58.258C95.8393 55.4053 99.8212 51.3334 102.326 51.5168C104.532 51.7401 107.807 56.1772 107.74 58.7919Z" fill="#000C24"/>
<path d="M169.677 12.6485C168.133 11.938 166.632 11.1369 165.183 10.2495C163.875 9.31194 162.141 8.31587 161.7 6.97252C161.259 5.62917 161.522 2.78167 162.476 2.23536C164.035 1.26461 167.334 0.635948 168.226 1.52711C170.06 3.61674 171.304 6.15682 171.831 8.88639C172.112 9.96399 170.335 11.5713 169.677 12.6485Z" fill="#000C24"/>
<path d="M230.207 145.848C228.014 138.656 229.013 133.116 233.113 130.462C235.656 133.763 234.348 140.698 230.207 145.848Z" fill="#000C24"/>
<path d="M9.16147 231.079C7.34393 234.695 1.68796 237.273 -3.90741 237.034C0.793147 235.073 2.97139 229.457 9.16147 231.079Z" fill="#000C24"/>
<path d="M228.049 162.692L218.11 157.465L218.214 157.123L225.711 159.278L228.599 151.943L229.568 152.182L228.049 162.692Z" fill="#000C24"/>
<path d="M214.457 121.978C215.099 119.776 215.898 117.623 216.847 115.534C217.159 114.948 218.798 115.061 219.814 114.849C219.897 115.791 220.354 116.957 219.969 117.625C218.786 119.45 217.502 121.207 216.123 122.889L214.457 121.978Z" fill="#000C24"/>
<path d="M97.5731 130.339L98.0183 113.047L99.8229 113.165L98.5934 130.437L97.5731 130.339Z" fill="#000C24"/>
<path d="M217.673 208.189L219.071 197.319C223.264 201.649 220.064 204.921 218.594 208.451L217.673 208.189Z" fill="#000C24"/>
<path d="M12.253 228.328C14.5378 226.888 16.6867 224.719 19.9039 227.716L12.4775 229.309L12.253 228.328Z" fill="#000C24"/>
<path d="M166.193 242.685L168.286 257.011L166.855 257.152L166.193 242.685Z" fill="#000C24"/>
<path d="M168.166 36.2168C170.374 35.001 171.135 31.3101 174.515 32.1345L175.233 33.3422C173.073 34.5473 170.901 35.752 168.741 36.9689L168.166 36.2168Z" fill="#000C24"/>
</svg>
